<svg width="240" height="53" viewBox="0 0 240 53" fill="none" xmlns="http://www.w3.org/2000/svg">
<path d="M46.63 38.1044L43.0192 33.2118L41.0289 13.6414C42.774 10.8554 48.8649 5.12014 59.2681 4.4678C72.2722 3.65236 78.2876 2.82754 93.2316 3.03139C108.176 3.23525 181.376 3.44087 186.634 3.44087C191.892 3.44087 217.937 2.82946 224.863 5.88717C230.404 8.33334 235.491 13.0222 237.341 15.0608C236.789 15.4685 236.017 16.7323 237.35 18.5263C238.684 20.3202 239.392 23.0791 239.58 24.2343C238.844 24.9138 237.372 26.436 237.374 27.0883C237.376 27.9037 232.395 28.1076 234.889 29.1269C236.883 29.9423 237.388 32.3207 237.391 33.4079C235.456 34.4272 230.702 36.5066 227.161 36.6696C223.619 36.8327 220.522 37.553 219.416 37.8928L219.42 39.5238C221.081 39.7956 224.072 40.4206 222.744 40.7468C221.085 41.1545 219.422 40.1352 218.04 40.7468C216.658 41.3584 214.724 42.5815 216.385 42.9893C216.896 43.3649 217.396 43.5523 217.844 43.6252C218.393 43.5276 218.986 43.4473 219.431 43.397C219.147 43.5644 218.562 43.7422 217.844 43.6252C216.912 43.7911 216.11 44.0071 216.389 44.2124C216.832 44.5386 218.605 45.0278 219.436 45.2317L220.823 46.4548H216.395C213.96 46.4548 214.461 47.678 215.016 48.2896C214.371 48.4255 212.693 48.6157 211.142 48.2896C209.204 47.8818 210.036 48.4934 206.715 48.6973C204.059 48.8604 189.617 48.7652 185.097 48.6973C185.465 48.4255 185.703 47.8818 183.711 47.8818C181.22 47.8818 180.944 47.8818 177.901 48.2896C174.858 48.6973 96.1207 47.8801 86.7119 47.8801C79.1849 47.8801 88.7504 46.8702 87.3667 46.8702C83.0332 47.5497 68.0227 48.868 61.6022 48.7049C53.5764 48.501 46.6527 46.4625 46.6521 46.2586C46.6517 46.0955 45.1727 44.9675 44.4333 44.4239C45.1722 44.7636 46.6493 45.2393 46.6471 44.4239C46.6449 43.6084 45.1626 41.2301 44.4217 40.1429L46.63 38.1044Z" fill="#FDA3C4"/>
<path d="M51.9194 49.7242C51.0339 49.7242 50.9992 50.5396 51.0925 50.9473L49.2943 51.1512C48.4199 51.8307 46.8369 53.149 47.5006 52.9859C48.1643 52.8228 49.436 52.3743 49.9889 52.1705C50.3572 51.8987 52.8647 51.3551 59.949 51.3551C68.8043 51.3551 67.973 50.9473 68.8032 50.9473C69.6334 50.9473 53.0263 49.7242 51.9194 49.7242Z" fill="#FDA3C4"/>
<path d="M72.0706 36.1342C72.276 36.135 72.4583 35.9957 72.6177 35.7162C72.6833 35.5951 72.735 35.474 72.7726 35.3528C72.8196 35.241 72.8665 35.1198 72.9135 34.9893C73.2522 33.9452 73.5022 32.8915 73.6635 31.828C73.8342 30.7647 73.9396 29.6777 73.9798 28.5672L73.98 28.4692C73.983 27.3025 73.8785 26.1821 73.6665 25.108C73.464 24.0246 73.1867 22.9456 72.8347 21.8709C72.8162 21.8242 72.7976 21.7821 72.7791 21.7447C72.7605 21.7073 72.7419 21.6653 72.7234 21.6185C72.5654 21.366 72.3557 21.2392 72.0943 21.2382C71.9917 21.2379 71.8843 21.2655 71.7721 21.321C71.6693 21.3673 71.5805 21.4417 71.5056 21.5441C71.3464 21.7582 71.2245 21.9817 71.1399 22.2147C71.0553 22.4478 70.98 22.6855 70.9141 22.9279C70.7161 23.7205 70.5787 24.518 70.502 25.3204C70.4253 26.1135 70.3626 26.9206 70.3139 27.7417C70.2947 27.9283 70.2849 28.115 70.2845 28.3016C70.284 28.4883 70.2835 28.675 70.283 28.8616C70.2803 29.935 70.3524 30.9666 70.4992 31.9564C70.646 32.9463 70.8582 33.9318 71.1357 34.9128C71.182 35.0716 71.2329 35.2212 71.2886 35.3614C71.3442 35.5109 71.4232 35.6512 71.5255 35.7822C71.7023 36.0162 71.884 36.1335 72.0706 36.1342ZM69.5892 37.4831C69.3745 37.4824 69.1833 37.4303 69.0156 37.327C68.8572 37.2331 68.7035 37.1159 68.5545 36.9753C68.3124 36.7411 68.1217 36.4838 67.9824 36.2032C67.8525 35.9228 67.7412 35.6284 67.6487 35.32C67.3434 34.2549 67.1127 33.19 66.9568 32.1255C66.8101 31.0516 66.7383 29.9406 66.7412 28.7926C66.7423 28.3446 66.7575 27.8874 66.7867 27.4208C66.8354 26.5903 66.9075 25.7739 67.0029 24.9716C67.0983 24.1599 67.245 23.3531 67.443 22.5512C67.6598 21.7213 68.0349 20.9993 68.5685 20.3853C68.6808 20.2457 68.8025 20.1342 68.9333 20.0506C69.0642 19.9671 69.223 19.9164 69.4097 19.8984C69.6618 19.8806 69.9138 19.8629 70.1659 19.8451C70.4179 19.8274 70.6746 19.819 70.9359 19.82C71.2346 19.8211 71.5285 19.8408 71.8178 19.8792C72.107 19.9083 72.3962 19.9653 72.6853 20.0504C73.0491 20.1544 73.3426 20.3281 73.566 20.5716C73.7894 20.8151 73.9567 21.1144 74.0678 21.4695C74.327 22.2918 74.5536 23.1186 74.7475 23.95C74.9507 24.7721 75.0933 25.6173 75.1751 26.4856C75.2024 26.7657 75.225 27.0457 75.2429 27.3258C75.2702 27.5966 75.2836 27.8673 75.2829 28.138L75.2821 28.446C75.2323 29.6685 75.1173 30.858 74.9371 32.0147C74.7662 33.1621 74.4973 34.2951 74.1305 35.4138C74.0834 35.5723 74.0317 35.7214 73.9753 35.8612C73.9189 36.0103 73.8532 36.1548 73.7782 36.2945C73.4686 36.9467 72.945 37.3228 72.2074 37.4227C71.9739 37.4592 71.7405 37.4817 71.5072 37.4902C71.2832 37.4987 71.0545 37.5025 70.8212 37.5017L69.5892 37.4831ZM75.4355 25.7445C75.3985 25.623 75.3661 25.5016 75.3384 25.3801C75.209 24.9037 75.1449 24.4088 75.1462 23.8954C75.1467 23.6901 75.1566 23.4848 75.1757 23.2795C75.214 22.9063 75.271 22.5379 75.3465 22.1742C75.3842 22.0343 75.4219 21.8944 75.4596 21.7546C75.4038 21.6704 75.3434 21.5861 75.2782 21.5019C75.2596 21.4832 75.2457 21.4691 75.2363 21.4597C75.2177 21.4503 75.1991 21.4363 75.1805 21.4175C75.0593 21.3331 74.8914 21.2905 74.6768 21.2897C74.5928 21.2894 74.5088 21.2984 74.4247 21.3168C74.3407 21.3351 74.2706 21.3582 74.2145 21.386C74.0837 21.4602 73.9855 21.5392 73.9199 21.6229C73.8544 21.6974 73.7936 21.7718 73.7374 21.8463C73.578 22.107 73.47 22.3726 73.4133 22.6431C73.3474 22.9042 73.2953 23.17 73.2573 23.4405C73.2478 23.5058 73.243 23.5711 73.2428 23.6365C73.2427 23.6925 73.2425 23.7531 73.2424 23.8185C73.2415 24.1731 73.3013 24.514 73.4218 24.8411C73.533 25.1682 73.7001 25.4955 73.9233 25.823C73.9605 25.8791 74.0024 25.9306 74.0489 25.9774C74.0955 26.0243 74.1607 26.0712 74.2446 26.1181C74.3844 26.1933 74.5289 26.2312 74.6783 26.2317C74.8463 26.2323 74.991 26.1862 75.1126 26.0933C75.1687 26.0562 75.2155 26.019 75.2529 25.9818C75.281 25.9446 75.3138 25.9027 75.3512 25.8562C75.3793 25.819 75.4074 25.7817 75.4355 25.7445ZM78.68 21.6124C78.6985 21.6498 78.7171 21.6872 78.7357 21.7246C78.8934 22.0985 79.0045 22.4769 79.0688 22.8598C79.0965 22.9812 79.1195 23.1073 79.1379 23.2381C79.1562 23.3595 79.1652 23.4808 79.1649 23.6022L79.1646 23.7422C79.1259 24.2834 79.0359 24.8104 78.8946 25.3232C78.8474 25.5097 78.7863 25.6961 78.7112 25.8825L78.7949 25.9948C78.8414 26.0417 78.9066 26.0886 78.9905 26.1355C79.1303 26.2107 79.2749 26.2486 79.4242 26.2491C79.5922 26.2498 79.737 26.2036 79.8586 26.1107C79.9147 26.0736 79.9568 26.0364 79.9849 25.9992C80.0223 25.962 80.0597 25.9201 80.0972 25.8736C80.3687 25.5293 80.5703 25.18 80.7018 24.8258C80.8334 24.4716 80.9136 24.1126 80.9426 23.7487L80.9427 23.7067C80.9436 23.324 80.8606 22.955 80.6935 22.5998C80.5264 22.2352 80.3033 21.875 80.0242 21.5193C80.0056 21.5006 79.987 21.4865 79.9683 21.4771C79.959 21.4677 79.945 21.4537 79.9264 21.4349C79.8053 21.3505 79.6374 21.3079 79.4227 21.3071C79.3387 21.3068 79.2547 21.3158 79.1707 21.3342C79.0866 21.3525 79.0119 21.3756 78.9465 21.4034C78.8343 21.4683 78.7455 21.5379 78.68 21.6124ZM77.8804 27.7695L77.8775 28.9175C77.8754 29.7201 77.8734 30.5181 77.8714 31.3115C77.8694 32.1048 77.8721 32.9028 77.8794 33.7055C77.8876 34.1535 77.8958 34.5876 77.9041 35.0076C77.9123 35.437 77.9159 35.871 77.9148 36.3097C77.9142 36.5243 77.9091 36.697 77.8994 36.8276C77.8991 36.9676 77.8848 37.0796 77.8566 37.1635C77.8377 37.2474 77.8002 37.3126 77.7441 37.359C77.6973 37.4149 77.6365 37.4613 77.5617 37.4984C77.4683 37.5354 77.3749 37.5584 77.2816 37.5673C77.1975 37.5764 77.1182 37.5807 77.0435 37.5805L76.6376 37.565C76.5163 37.5459 76.4325 37.4802 76.3861 37.3681C76.3397 37.2559 76.3122 37.0645 76.3035 36.7938C76.2769 36.271 76.2642 35.7343 76.2656 35.1836C76.2586 34.2689 76.2469 33.3589 76.2305 32.4535C76.2235 31.5481 76.2211 30.6381 76.2234 29.7234L76.2284 27.7634L76.1584 27.7632C75.9717 27.7718 75.785 27.7758 75.5984 27.7751L74.6044 27.7575C74.4364 27.7569 74.2871 27.7376 74.1565 27.6998C74.026 27.6527 73.9001 27.5962 73.779 27.5304C73.5832 27.4271 73.4342 27.3145 73.3318 27.1928C73.2202 27.0617 73.1272 26.9307 73.0528 26.7998C72.802 26.3229 72.6166 25.8462 72.4964 25.3697C72.3763 24.8933 72.3169 24.3984 72.3182 23.8851C72.3187 23.6797 72.3286 23.4744 72.3478 23.2692C72.386 22.896 72.443 22.5322 72.5185 22.1778C72.5941 21.8141 72.7117 21.4505 72.8713 21.0871C73.0495 20.7237 73.349 20.4028 73.7697 20.1244C73.8632 20.0687 73.9613 20.0224 74.0641 19.9854C74.1668 19.9485 74.2929 19.9256 74.4423 19.9168C74.6476 19.9082 74.853 19.8997 75.0583 19.8911C75.2543 19.8825 75.4597 19.8786 75.6744 19.8793C75.9077 19.8802 76.141 19.8857 76.3743 19.8959C76.5423 19.9152 76.7055 19.9345 76.8642 19.9537C76.9015 19.9445 76.9389 19.9353 76.9762 19.9261C77.0789 19.9078 77.1863 19.8989 77.2983 19.8993C77.3823 19.9089 77.4523 19.9139 77.5083 19.9141C77.6389 19.9145 77.7649 19.9103 77.8863 19.9015C78.0823 19.8928 78.2877 19.8889 78.5023 19.8897C78.7357 19.8906 78.969 19.9008 79.2023 19.9203C79.4356 19.9305 79.6688 19.9547 79.9021 19.9928C80.1913 20.0406 80.4244 20.1208 80.6015 20.2334C80.7785 20.3367 80.9135 20.4679 81.0065 20.6269C81.2202 21.001 81.4059 21.375 81.5636 21.749C81.7214 22.1135 81.8324 22.4873 81.8968 22.8702C81.9245 22.9916 81.9475 23.1177 81.9658 23.2484C81.9842 23.3698 81.9932 23.4912 81.9929 23.6125L81.9926 23.7525C81.9539 24.2937 81.8639 24.8207 81.7226 25.3336C81.5813 25.8464 81.3653 26.3543 81.0747 26.8572C81.0372 26.9224 80.995 26.9876 80.9482 27.0527C80.9014 27.1179 80.8499 27.183 80.7937 27.2482C80.541 27.5366 80.1206 27.703 79.5324 27.7475C79.3457 27.7655 79.159 27.7788 78.9723 27.7875C78.795 27.7868 78.613 27.7862 78.4263 27.7855L77.8804 27.7695ZM87.9299 36.1924C88.1352 36.1931 88.3176 36.0538 88.477 35.7744C88.5426 35.6533 88.5942 35.5321 88.6319 35.411C88.6788 35.2991 88.7258 35.178 88.7728 35.0475C89.1114 34.0034 89.3614 32.9496 89.5228 31.8862C89.6935 30.8228 89.7989 29.7359 89.8391 28.6253L89.8393 28.5273C89.8423 27.3607 89.7378 26.2403 89.5258 25.1662C89.3232 24.0828 89.046 23.0037 88.694 21.9291C88.6755 21.8824 88.6569 21.8403 88.6383 21.8029C88.6198 21.7655 88.6012 21.7234 88.5826 21.6767C88.4246 21.4241 88.2149 21.2973 87.9536 21.2964C87.8509 21.296 87.7435 21.3236 87.6314 21.3792C87.5286 21.4255 87.4398 21.4998 87.3648 21.6022C87.2056 21.8163 87.0837 22.0399 86.9991 22.2729C86.9145 22.5059 86.8393 22.7436 86.7733 22.9861C86.5753 23.7787 86.438 24.5762 86.3613 25.3786C86.2846 26.1716 86.2219 26.9787 86.1731 27.7999C86.154 27.9865 86.1442 28.1731 86.1437 28.3598C86.1432 28.5465 86.1428 28.7331 86.1423 28.9198C86.1396 29.9931 86.2116 31.0247 86.3585 32.0146C86.5053 33.0045 86.7175 33.9899 86.995 34.9709C87.0412 35.1298 87.0922 35.2793 87.1478 35.4195C87.2035 35.569 87.2824 35.7093 87.3848 35.8404C87.5615 36.0744 87.7432 36.1917 87.9299 36.1924ZM85.4485 37.5413C85.2338 37.5405 85.0426 37.4885 84.8749 37.3852C84.7164 37.2913 84.5627 37.174 84.4138 37.0335C84.1717 36.7993 83.981 36.5419 83.8417 36.2614C83.7118 35.9809 83.6005 35.6865 83.5079 35.3782C83.2026 34.313 82.972 33.2482 82.816 32.1836C82.6694 31.1097 82.5976 29.9988 82.6005 28.8508C82.6016 28.4028 82.6168 27.9455 82.6459 27.479C82.6947 26.6485 82.7668 25.8321 82.8621 25.0297C82.9575 24.2181 83.1042 23.4113 83.3023 22.6093C83.519 21.7795 83.8942 21.0575 84.4278 20.4434C84.5401 20.3039 84.6617 20.1923 84.7926 20.1088C84.9235 20.0253 85.0823 19.9745 85.269 19.9565C85.521 19.9388 85.7731 19.921 86.0251 19.9033C86.2772 19.8856 86.5339 19.8772 86.7952 19.8781C87.0939 19.8792 87.3878 19.899 87.677 19.9374C87.9663 19.9664 88.2555 20.0235 88.5446 20.1085C88.9084 20.2125 89.2019 20.3863 89.4253 20.6298C89.6487 20.8733 89.8159 21.1725 89.927 21.5276C90.1863 22.3499 90.4129 23.1767 90.6068 24.0081C90.81 24.8302 90.9525 25.6754 91.0343 26.5437C91.0616 26.8238 91.0842 27.1039 91.1022 27.384C91.1295 27.6547 91.1428 27.9254 91.1421 28.1961L91.1414 28.5041C91.0916 29.7266 90.9766 30.9162 90.7963 32.0729C90.6254 33.2202 90.3566 34.3533 89.9897 35.4719C89.9427 35.6304 89.8909 35.7796 89.8346 35.9194C89.7782 36.0685 89.7125 36.2129 89.6375 36.3526C89.3278 37.0048 88.8042 37.3809 88.0666 37.4809C87.8332 37.5174 87.5998 37.5398 87.3665 37.5483C87.1424 37.5568 86.9138 37.5607 86.6804 37.5598L85.4485 37.5413ZM97.2762 29.9966C97.3322 29.9968 97.3928 29.9924 97.4582 29.9833C97.5329 29.9742 97.6169 29.9605 97.7103 29.9422C97.7383 29.9423 97.7663 29.9377 97.7943 29.9285C97.8224 29.9193 97.8457 29.91 97.8644 29.9008C98.3687 29.7813 98.7426 29.5587 98.9861 29.2329C99.2389 28.9071 99.3986 28.5064 99.4652 28.0306C99.5125 27.7601 99.5458 27.5036 99.5651 27.261C99.5937 27.0091 99.6176 26.8178 99.6366 26.6872C99.646 26.6406 99.6508 26.594 99.6509 26.5473C99.651 26.5006 99.6511 26.454 99.6513 26.4073C99.6515 26.314 99.647 26.23 99.6379 26.1553C99.6381 26.0713 99.6383 25.9966 99.6385 25.9313C99.5945 24.8764 99.4104 23.8537 99.0862 22.8632C98.9566 22.4707 98.7614 22.1573 98.5006 21.9231C98.2399 21.6794 97.9277 21.487 97.5641 21.3456C97.4895 21.3267 97.4148 21.3124 97.3402 21.3028C97.2656 21.2839 97.1909 21.2649 97.1163 21.246L97.0044 21.2316C96.8457 21.231 96.7661 21.3194 96.7657 21.4967L96.7782 22.0987C96.7952 22.7428 96.8076 23.3729 96.8154 23.9889C96.8325 24.5956 96.8498 25.1417 96.8672 25.6271C96.8661 26.0751 96.8647 26.6211 96.8631 27.2651C96.8615 27.8997 96.8645 28.5578 96.8721 29.2391C96.8714 29.5285 96.8942 29.7292 96.9406 29.8414C96.987 29.9442 97.0988 29.996 97.2762 29.9966ZM94.0789 37.6009C94.0322 37.6008 93.9809 37.5959 93.9249 37.5864C93.8783 37.5862 93.8316 37.5814 93.785 37.5719C93.2719 37.486 93.0113 37.1817 93.0033 36.659C92.9768 36.0616 92.9597 35.4408 92.952 34.7968C92.9443 34.1621 92.9366 33.5227 92.9289 32.8787C92.9305 32.2347 92.9321 31.5954 92.9337 30.9607C92.9353 30.3167 92.9369 29.7007 92.9384 29.1127L92.9435 27.1107C92.9447 26.6347 92.9412 26.168 92.933 25.7107C92.9342 25.244 92.926 24.7773 92.9086 24.3106C92.8912 23.7972 92.8785 23.2838 92.8705 22.7704C92.8718 22.2571 92.8637 21.7437 92.8464 21.2303L92.8469 21.0063C92.8572 20.6144 92.9326 20.344 93.073 20.1951C93.2227 20.037 93.4936 19.9447 93.8857 19.9181L94.4177 19.9061L95.4537 19.9239L96.5737 19.928L97.1336 19.958C97.9267 20.0543 98.5934 20.3087 99.1337 20.7214C99.6833 21.1341 100.083 21.7329 100.333 22.5178C100.694 23.6484 100.901 24.7972 100.954 25.9641L100.954 26.0901C100.954 26.1647 100.954 26.2767 100.953 26.4261C100.953 26.5661 100.943 26.7574 100.924 27C100.905 27.1866 100.876 27.4105 100.838 27.6717C100.8 27.9329 100.757 28.1987 100.71 28.4692C100.644 28.8143 100.526 29.1545 100.357 29.4899C100.198 29.816 99.9779 30.1092 99.6972 30.3695C99.4259 30.6298 99.094 30.8433 98.7016 31.0098C98.3092 31.1671 97.8563 31.2494 97.343 31.2569C97.1563 31.2562 97.0396 31.2698 96.9929 31.2976C96.9461 31.3254 96.9226 31.4093 96.9222 31.5493L96.9194 32.6553C96.9186 32.982 96.9131 33.3133 96.9029 33.6493C96.9021 33.9853 96.9012 34.3213 96.9004 34.6573C96.9 34.8066 96.8996 34.9559 96.8992 35.1053C96.8989 35.2546 96.9031 35.4039 96.9121 35.5533L96.9649 36.8135C96.964 37.1775 96.7767 37.4055 96.4032 37.4975C96.3285 37.5159 96.2538 37.5249 96.1791 37.5246C96.1137 37.5337 96.0437 37.5428 95.969 37.5519C95.6703 37.5694 95.3716 37.5777 95.073 37.5766C94.7743 37.5848 94.4756 37.5931 94.1769 37.6013L94.0789 37.6009ZM103.588 37.6498C103.205 37.6484 102.986 37.4329 102.931 37.0034C102.913 36.8353 102.899 36.6673 102.89 36.4992C102.882 36.3312 102.873 36.1632 102.864 35.9951C102.838 34.9777 102.804 33.9602 102.759 32.9427C102.715 31.9159 102.69 30.8891 102.683 29.8624C102.684 29.5638 102.675 29.2651 102.658 28.9663C102.64 28.6676 102.631 28.3689 102.632 28.0702L102.678 21.0564C102.698 20.4311 102.997 20.0915 103.576 20.0377C103.884 20.0015 104.188 19.9746 104.486 19.957C104.794 19.9301 105.102 19.9173 105.41 19.9184C105.494 19.9187 105.578 19.919 105.662 19.9193C105.746 19.9196 105.835 19.9246 105.928 19.9343C106.227 19.954 106.437 20.0201 106.558 20.1326C106.679 20.245 106.762 20.446 106.808 20.7355C107.02 21.8376 107.302 23.0147 107.653 24.2666C108.005 25.5093 108.38 26.7753 108.778 28.0648L108.875 28.2891C108.941 28.2427 108.978 28.2055 108.988 28.1775C109.006 28.1403 109.02 28.0983 109.03 28.0517C109.332 26.7275 109.662 25.436 110.02 24.1773C110.387 22.9186 110.735 21.7252 111.065 20.5971C111.178 20.1589 111.407 19.9404 111.752 19.9416L111.836 19.9419C112.023 19.9706 112.177 20.0645 112.298 20.2236C112.419 20.3734 112.483 20.565 112.492 20.7984L112.484 24.0463L112.468 24.9283C112.466 25.619 112.474 26.305 112.491 26.9864C112.517 27.6585 112.548 28.3399 112.583 29.0307C112.628 29.7869 112.663 30.5804 112.689 31.4111C112.715 32.2419 112.741 33.0353 112.767 33.7914C112.785 34.0808 112.799 34.3656 112.807 34.6456C112.825 34.935 112.843 35.2244 112.861 35.5138C112.879 35.7285 112.897 35.9386 112.915 36.144C112.934 36.3587 112.97 36.5735 113.026 36.7884L113.053 36.9705C113.053 37.1292 112.997 37.269 112.884 37.3899C112.781 37.5202 112.65 37.6037 112.492 37.6405C112.454 37.6496 112.403 37.6541 112.338 37.6539C112.207 37.6534 112.086 37.6063 111.974 37.5126C111.862 37.4281 111.778 37.3065 111.723 37.1476C111.686 37.0448 111.658 36.9421 111.64 36.8393C111.631 36.746 111.621 36.6479 111.612 36.5452C111.514 34.7529 111.426 32.9278 111.346 31.0702C111.276 29.2126 111.22 27.3831 111.178 25.5816C111.169 25.5349 111.16 25.4928 111.15 25.4555C111.141 25.4181 111.127 25.376 111.109 25.3293C110.987 25.5902 110.893 25.8559 110.827 26.1263C110.761 26.3874 110.695 26.6531 110.629 26.9236C110.478 27.539 110.332 28.1498 110.19 28.756C110.058 29.3528 109.926 29.959 109.793 30.5745C109.765 30.6771 109.737 30.7843 109.709 30.8962C109.68 31.0081 109.643 31.1153 109.596 31.2178C109.53 31.3389 109.446 31.4272 109.343 31.4829C109.25 31.5385 109.147 31.5662 109.035 31.5657C108.82 31.565 108.643 31.4663 108.504 31.2698C108.448 31.1949 108.406 31.1154 108.378 31.0313C108.351 30.9379 108.323 30.8445 108.295 30.751C108.036 29.9194 107.767 29.0971 107.489 28.2841C107.211 27.4617 106.961 26.6254 106.74 25.7753C106.721 25.7286 106.707 25.6865 106.698 25.6491C106.698 25.6025 106.675 25.5651 106.628 25.5369L106.6 25.5368C106.572 25.5367 106.558 25.5553 106.558 25.5926C106.548 25.9379 106.538 26.2832 106.527 26.6285C106.527 26.9645 106.526 27.3052 106.525 27.6505C106.524 28.1825 106.541 28.7052 106.577 29.2187C106.613 29.7322 106.63 30.2549 106.629 30.7869C106.625 32.4202 106.663 34.0397 106.743 35.6454C106.752 35.8041 106.756 35.9674 106.755 36.1354C106.764 36.3034 106.778 36.4715 106.796 36.6396L106.81 36.7936C106.809 37.0363 106.743 37.218 106.612 37.3389C106.491 37.4598 106.299 37.5384 106.038 37.5748C105.636 37.62 105.235 37.6372 104.834 37.6264C104.432 37.6249 104.031 37.6328 103.63 37.65L103.588 37.6498ZM119.879 37.6815C119.665 37.6714 119.502 37.6102 119.39 37.4977C119.278 37.3947 119.222 37.2498 119.223 37.0631L119.251 36.8532C119.289 36.6947 119.308 36.5361 119.309 36.3774C119.318 36.2188 119.333 36.0602 119.352 35.9016C119.371 35.7057 119.386 35.4257 119.396 35.0618C119.416 34.6978 119.431 34.2965 119.441 33.8579C119.461 33.4286 119.471 32.9854 119.472 32.528C119.483 32.0614 119.489 31.6321 119.49 31.2401C119.5 30.8388 119.506 30.4935 119.506 30.2041C119.516 29.9148 119.521 29.7282 119.522 29.6442C119.523 29.2148 119.519 28.7622 119.511 28.2861C119.503 27.8008 119.5 27.3061 119.501 26.8021L119.502 26.4381C119.502 26.3821 119.483 26.3494 119.446 26.3399C119.399 26.377 119.367 26.4236 119.348 26.4795C119.338 26.5262 119.324 26.5774 119.305 26.6334C119.117 27.314 118.929 27.9947 118.74 28.6753C118.552 29.356 118.354 30.0366 118.147 30.7171C117.874 31.6215 117.62 32.5212 117.384 33.4164C117.149 34.3115 116.857 35.1598 116.51 35.9612C116.416 36.1755 116.327 36.3852 116.242 36.5902C116.158 36.7952 116.064 36.9955 115.961 37.1912C115.81 37.4986 115.591 37.6518 115.301 37.6508L115.091 37.622C114.69 37.5365 114.476 37.2651 114.45 36.8076C114.45 36.7516 114.45 36.6956 114.45 36.6396C114.459 36.5837 114.469 36.5277 114.478 36.4717C114.537 35.4266 114.605 34.3628 114.682 33.2805C114.769 32.1888 114.856 31.0877 114.943 29.9774C115.02 28.9883 115.074 28.0085 115.104 27.038C115.135 26.0581 115.151 25.0735 115.154 24.0841C115.155 23.7015 115.156 23.3235 115.157 22.9501C115.158 22.5768 115.154 22.2175 115.145 21.8721L115.134 20.64C115.144 20.4534 115.201 20.3089 115.304 20.2067C115.416 20.0951 115.556 20.0302 115.724 20.0122L115.752 20.0123C115.911 20.0129 116.046 20.06 116.158 20.1538C116.269 20.2475 116.344 20.3831 116.381 20.5606C116.399 20.654 116.408 20.7474 116.408 20.8407C116.408 20.934 116.412 21.0274 116.421 21.1208C116.439 21.3635 116.448 21.6249 116.447 21.9049C116.456 22.1756 116.46 22.4509 116.459 22.7309L116.439 25.2509C116.436 26.3242 116.401 27.3881 116.333 28.4425C116.265 29.4969 116.192 30.556 116.115 31.6197C116.096 31.7503 116.081 31.8856 116.072 32.0255C116.062 32.1562 116.057 32.2915 116.057 32.4315C116.056 32.5155 116.061 32.6042 116.07 32.6975C116.079 32.7816 116.093 32.8703 116.111 32.9637C116.139 32.8891 116.168 32.8192 116.196 32.754C116.224 32.6888 116.247 32.6189 116.266 32.5443C116.426 32.0035 116.582 31.4674 116.732 30.936C116.892 30.4045 117.048 29.8684 117.198 29.3277C117.603 27.8825 118.004 26.4513 118.399 25.034C118.804 23.6075 119.116 22.1666 119.334 20.7114C119.363 20.4969 119.429 20.3384 119.532 20.2362C119.644 20.1339 119.817 20.0739 120.05 20.0561C120.321 20.0384 120.587 20.0254 120.848 20.017C121.109 20.0086 121.375 20.0049 121.646 20.0059C122.038 20.0073 122.421 20.0228 122.794 20.0521C123.018 20.0716 123.19 20.1469 123.311 20.278C123.442 20.4092 123.507 20.5821 123.506 20.7967L123.505 21.1187C123.505 21.3521 123.509 21.5854 123.518 21.8188C123.526 22.0428 123.53 22.2715 123.53 22.5048L123.529 22.7848C123.509 23.2048 123.499 23.6387 123.498 24.0867C123.497 24.5347 123.495 24.9874 123.494 25.4447C123.493 25.9487 123.492 26.4481 123.491 26.9427C123.499 27.4281 123.511 27.9228 123.529 28.4269L123.541 29.0849L123.541 29.3089C123.54 29.4676 123.535 29.6869 123.525 29.9669C123.524 30.2375 123.519 30.5408 123.509 30.8768C123.498 31.2128 123.488 31.5721 123.478 31.9547C123.468 32.328 123.457 32.6966 123.447 33.0606C123.446 33.4153 123.441 33.7512 123.431 34.0685C123.42 34.3952 123.415 34.6705 123.414 34.8945C123.414 35.1838 123.399 35.4684 123.37 35.7483C123.342 36.0376 123.317 36.3268 123.298 36.6161C123.298 36.7841 123.269 36.952 123.213 37.1198C123.109 37.4741 122.875 37.6505 122.511 37.6492C122.073 37.6569 121.634 37.6646 121.195 37.6724C120.766 37.6801 120.327 37.6832 119.879 37.6815ZM128.672 37.7698C128.476 37.7691 128.28 37.759 128.084 37.7396C127.897 37.7296 127.706 37.7056 127.51 37.6675C127.296 37.6201 127.142 37.5402 127.049 37.4278C126.965 37.3249 126.914 37.1567 126.896 36.9233C126.815 35.831 126.747 34.7434 126.694 33.6605C126.65 32.587 126.63 31.4996 126.632 30.3983L126.649 29.3203C126.67 28.3591 126.682 27.4024 126.684 26.4504C126.696 25.4891 126.727 24.5186 126.776 23.5387C126.795 23.2215 126.815 22.9135 126.834 22.615C126.863 22.3071 126.896 22.0272 126.934 21.7753L126.934 21.7193C126.935 21.598 126.907 21.5092 126.851 21.453C126.805 21.3968 126.716 21.3592 126.585 21.34C126.343 21.3111 126.105 21.2963 125.872 21.2954C125.788 21.2951 125.699 21.2948 125.606 21.2944C125.522 21.2941 125.437 21.2985 125.353 21.3075C125.269 21.2979 125.186 21.2929 125.102 21.2926C125.018 21.2923 124.938 21.2827 124.864 21.2637C124.724 21.2259 124.612 21.1555 124.528 21.0525C124.444 20.9495 124.403 20.828 124.403 20.688L124.403 20.646C124.404 20.394 124.535 20.2032 124.797 20.0735C124.918 20.0272 125.044 20.0044 125.175 20.0049L125.343 20.0195C126.304 20.0323 127.251 20.0451 128.185 20.0579C129.127 20.0613 130.079 20.0648 131.041 20.0684L131.993 20.0718C132.161 20.0725 132.347 20.0965 132.552 20.1439C132.711 20.1912 132.832 20.2709 132.916 20.3832C133.009 20.4862 133.055 20.6077 133.055 20.7477L133.041 20.8457C133.022 20.995 132.956 21.1207 132.844 21.223C132.731 21.3159 132.587 21.3667 132.409 21.3754L131.177 21.3709C131.065 21.3705 130.977 21.3748 130.911 21.3839C130.855 21.3837 130.813 21.3975 130.785 21.4254C130.757 21.4533 130.734 21.4999 130.715 21.5652C130.705 21.6211 130.696 21.7051 130.686 21.8171C130.581 22.666 130.514 23.5198 130.484 24.3783C130.463 25.2276 130.451 26.0769 130.449 26.9262L130.443 29.2222C130.433 29.5489 130.423 29.8802 130.413 30.2161C130.412 30.5428 130.411 30.8695 130.41 31.1961C130.409 31.6348 130.413 32.0735 130.421 32.5122C130.429 32.9415 130.452 33.3756 130.488 33.8144C130.524 34.2719 130.542 34.7246 130.54 35.1726C130.539 35.6299 130.575 36.0874 130.649 36.545C130.658 36.5731 130.663 36.6011 130.663 36.6291C130.663 36.6664 130.663 36.6991 130.662 36.7271L130.648 36.993C130.619 37.1889 130.554 37.3427 130.451 37.4543C130.357 37.566 130.212 37.6354 130.016 37.6627C129.792 37.6992 129.568 37.7264 129.344 37.7442C129.12 37.7621 128.896 37.7706 128.672 37.7698ZM139.173 27.6862C138.995 27.6856 138.883 27.7412 138.836 27.853C138.789 27.9555 138.766 28.1514 138.765 28.4407C138.754 29.122 138.747 29.7847 138.746 30.4287C138.744 31.0633 138.743 31.6047 138.742 32.0527C138.722 32.5379 138.702 33.0839 138.682 33.6905C138.671 34.3064 138.655 34.9364 138.635 35.5803L138.619 36.1822C138.619 36.3596 138.698 36.4485 138.857 36.4491L138.969 36.4355C139.043 36.4171 139.118 36.3987 139.193 36.3804C139.267 36.3713 139.342 36.3576 139.417 36.3392C139.781 36.2005 140.094 36.0103 140.356 35.7686C140.618 35.5362 140.815 35.2243 140.947 34.8328C141.276 33.8446 141.465 32.8233 141.514 31.7688C141.515 31.7035 141.515 31.6335 141.515 31.5588C141.524 31.4749 141.529 31.3862 141.53 31.2929C141.53 31.2462 141.53 31.1996 141.53 31.1529C141.53 31.1062 141.526 31.0595 141.516 31.0128C141.498 30.8821 141.475 30.6954 141.448 30.4526C141.43 30.2005 141.398 29.9391 141.352 29.6682C141.288 29.192 141.13 28.7901 140.879 28.4625C140.637 28.1349 140.264 27.9096 139.76 27.7864C139.742 27.777 139.719 27.7676 139.691 27.7581C139.663 27.7487 139.635 27.7439 139.607 27.7438C139.513 27.7248 139.429 27.7105 139.355 27.7009C139.289 27.6913 139.229 27.6864 139.173 27.6862ZM136.014 20.0586L136.112 20.059C136.411 20.0694 136.709 20.0798 137.008 20.0902C137.307 20.0913 137.605 20.1018 137.904 20.1215C137.979 20.1311 138.049 20.1407 138.114 20.1503C138.188 20.1506 138.263 20.1602 138.338 20.1791C138.711 20.2738 138.897 20.5032 138.896 20.8672L138.837 22.127C138.827 22.2763 138.822 22.4256 138.822 22.5749C138.821 22.7242 138.821 22.8736 138.821 23.0229C138.82 23.3589 138.819 23.6949 138.818 24.0309C138.826 24.3669 138.83 24.6983 138.829 25.0249L138.827 26.1309C138.826 26.2709 138.849 26.355 138.896 26.3832C138.943 26.4114 139.059 26.4258 139.246 26.4265C139.759 26.4377 140.212 26.528 140.603 26.6975C140.995 26.8576 141.326 27.0688 141.596 27.3311C141.875 27.5935 142.094 27.8929 142.251 28.2295C142.419 28.5568 142.534 28.8932 142.599 29.2388C142.645 29.5096 142.686 29.7758 142.723 30.0373C142.759 30.2987 142.787 30.5228 142.805 30.7096C142.823 30.9523 142.832 31.1483 142.832 31.2977C142.831 31.4377 142.831 31.545 142.831 31.6197L142.83 31.7457C142.772 32.9121 142.559 34.0593 142.192 35.1873C141.938 35.9704 141.535 36.5663 140.983 36.9749C140.441 37.3836 139.773 37.6332 138.979 37.7236L138.419 37.7495L137.299 37.7454L136.263 37.7556L135.731 37.7397C135.339 37.7102 135.069 37.6159 134.92 37.4567C134.78 37.3068 134.706 37.0359 134.698 36.6439L134.699 36.4199C134.719 35.9066 134.729 35.3933 134.731 34.88C134.741 34.3667 134.756 33.8534 134.776 33.3401C134.796 32.8735 134.807 32.4116 134.808 31.9542C134.818 31.4876 134.824 31.0163 134.825 30.5403L134.831 28.5383C134.832 27.9503 134.834 27.339 134.835 26.7043C134.837 26.0603 134.838 25.4163 134.84 24.7723C134.851 24.1284 134.862 23.4891 134.873 22.8544C134.884 22.2105 134.904 21.5899 134.934 20.9926C134.944 20.47 135.206 20.1676 135.72 20.0855C135.767 20.0764 135.813 20.0719 135.86 20.072C135.916 20.0629 135.967 20.0584 136.014 20.0586ZM155.222 37.8251C155.045 37.8245 154.867 37.8238 154.69 37.8232C154.522 37.8226 154.345 37.8126 154.158 37.7932C153.934 37.7737 153.729 37.6983 153.542 37.567C153.356 37.445 153.184 37.3043 153.026 37.1451C152.616 36.6862 152.3 36.1951 152.077 35.6716C151.855 35.1481 151.697 34.5922 151.606 34.0039C151.587 33.8358 151.569 33.6677 151.551 33.4996C151.542 33.3316 151.538 33.1636 151.538 32.9956C151.539 32.6689 151.554 32.347 151.583 32.0298C151.621 31.7032 151.663 31.3767 151.711 31.0502C151.787 30.6492 151.993 30.4492 152.329 30.4505L152.385 30.4507C152.562 30.4607 152.706 30.5265 152.818 30.6483C152.93 30.77 152.985 30.9289 152.985 31.1249L152.985 31.2369C152.984 31.3676 152.975 31.4982 152.956 31.6288C152.946 31.7594 152.932 31.89 152.913 32.0206C152.893 32.1792 152.874 32.3332 152.855 32.4824C152.846 32.6317 152.841 32.7857 152.84 32.9444C152.838 33.8684 153.06 34.7512 153.505 35.5928C153.663 35.8921 153.882 36.1215 154.162 36.2812C154.441 36.4409 154.73 36.5213 155.029 36.5224C155.216 36.5231 155.398 36.4958 155.575 36.4404C155.753 36.3851 155.921 36.2924 156.08 36.1623C156.183 36.0786 156.267 35.9763 156.333 35.8552C156.398 35.7434 156.455 35.627 156.502 35.5058C156.586 35.2635 156.648 35.0257 156.686 34.7925C156.723 34.5593 156.743 34.3214 156.743 34.0787C156.744 33.78 156.717 33.4859 156.662 33.1964C156.616 32.9069 156.551 32.6126 156.468 32.3137C156.449 32.2483 156.421 32.1922 156.384 32.1454C156.347 32.0892 156.31 32.0331 156.273 31.977C156.17 31.8086 156.054 31.7241 155.923 31.7237C155.849 31.7234 155.765 31.7511 155.671 31.8067C155.634 31.8346 155.592 31.8578 155.545 31.8763C155.508 31.8855 155.466 31.8993 155.419 31.9178C155.325 31.9361 155.255 31.9452 155.209 31.945C154.966 31.9442 154.789 31.8502 154.677 31.6631C154.603 31.5415 154.566 31.42 154.566 31.2987C154.567 31.14 154.628 30.9862 154.75 30.8374C154.815 30.7723 154.89 30.7119 154.974 30.6562C155.273 30.4519 155.516 30.2102 155.704 29.9309C155.891 29.6515 156.041 29.3441 156.154 29.0085C156.239 28.7661 156.31 28.4491 156.367 28.0573C156.433 27.6655 156.471 27.2783 156.482 26.8957L156.499 25.6777C156.499 25.3697 156.495 25.0617 156.487 24.7537C156.478 24.4363 156.461 24.1189 156.433 23.8015C156.415 23.5214 156.374 23.2459 156.309 22.975C156.254 22.7042 156.185 22.4332 156.102 22.1623C155.963 21.7418 155.748 21.531 155.459 21.5299C155.319 21.5294 155.146 21.5708 154.941 21.654C154.52 21.8391 154.174 22.1132 153.903 22.4762C153.594 22.8951 153.355 23.3375 153.185 23.8036C153.016 24.2696 152.903 24.7592 152.846 25.2723L152.831 25.5103C152.831 25.641 152.84 25.7763 152.858 25.9164C152.886 26.0565 152.918 26.1919 152.955 26.3228C152.983 26.4069 152.997 26.4909 152.996 26.5749C152.996 26.8549 152.86 27.0411 152.589 27.1334C152.514 27.1611 152.439 27.1749 152.365 27.1746C152.085 27.1736 151.88 27.0328 151.75 26.7523C151.601 26.3878 151.528 26.0002 151.529 25.5895C151.529 25.5242 151.529 25.4635 151.529 25.4075C151.529 25.3422 151.534 25.2769 151.544 25.2116C151.601 24.6331 151.719 24.0782 151.898 23.5469C152.077 23.0155 152.325 22.5031 152.644 22.0096C153 21.4509 153.426 21.0138 153.921 20.6983C154.417 20.3734 155 20.1935 155.673 20.1587L156.709 20.1625L157.745 20.1803C158.192 20.2006 158.556 20.3233 158.836 20.5483C159.115 20.764 159.338 21.0635 159.505 21.4467C159.774 22.0731 159.936 22.7223 159.99 23.3945C160.027 23.7307 160.054 24.0668 160.072 24.4028C160.099 24.7296 160.112 25.033 160.112 25.313L160.111 25.607C160.09 26.3069 160.065 26.9462 160.036 27.5247C160.016 28.1033 159.935 28.6164 159.794 29.0638C159.719 29.2969 159.639 29.5253 159.554 29.749C159.479 29.9727 159.376 30.187 159.245 30.3918C159.226 30.4384 159.207 30.4804 159.188 30.5176C159.17 30.5456 159.16 30.5782 159.16 30.6155C159.16 30.6715 159.188 30.7276 159.244 30.7838C159.486 31.0274 159.676 31.2801 159.816 31.5419C159.964 31.8038 160.076 32.0796 160.15 32.3692C160.224 32.6588 160.27 32.9529 160.287 33.2517C160.305 33.5504 160.314 33.8538 160.313 34.1618L160.312 34.4978C160.31 35.2258 160.113 35.9251 159.719 36.5956C159.4 37.1358 158.928 37.4841 158.302 37.6404C157.947 37.7325 157.597 37.7872 157.252 37.8046C156.916 37.822 156.571 37.8301 156.216 37.8288L155.222 37.8251ZM165.861 27.0421C165.86 27.4901 165.873 27.9335 165.9 28.3722C165.927 28.811 165.949 29.2544 165.967 29.7025C165.966 29.8238 165.99 29.9126 166.036 29.9687C166.083 30.0249 166.176 30.0626 166.316 30.0818C166.428 30.0915 166.54 30.1013 166.652 30.111C166.764 30.1114 166.876 30.1118 166.988 30.1122C167.324 30.1135 167.655 30.1007 167.982 30.0739C168.318 30.0378 168.654 30.0063 168.99 29.9796C169.121 29.9707 169.223 29.9571 169.298 29.9387C169.373 29.911 169.429 29.8738 169.466 29.8273C169.504 29.7808 169.527 29.7155 169.537 29.6316C169.546 29.5476 169.556 29.4356 169.566 29.2957C169.566 29.193 169.566 29.0903 169.567 28.9877C169.576 28.8757 169.581 28.7684 169.581 28.6657C169.583 28.0497 169.561 27.4383 169.516 26.8315C169.48 26.2247 169.44 25.6132 169.395 24.997C169.367 24.7263 169.331 24.4601 169.285 24.1986C169.248 23.9371 169.197 23.671 169.133 23.4001C169.059 23.0918 168.943 22.8067 168.785 22.5448C168.636 22.2829 168.46 22.0349 168.255 21.8008C168.125 21.6417 167.98 21.5385 167.822 21.4912C167.663 21.4347 167.495 21.406 167.318 21.4054C167.243 21.4051 167.168 21.4095 167.094 21.4186C167.019 21.4183 166.944 21.4227 166.87 21.4317C166.655 21.4496 166.51 21.5331 166.435 21.6822C166.36 21.8219 166.29 21.9663 166.224 22.1154C165.923 22.8516 165.772 23.6304 165.77 24.4517C165.77 24.5077 165.77 24.5637 165.77 24.6197C165.779 24.6758 165.783 24.7318 165.783 24.7878C165.792 25.1331 165.8 25.4785 165.809 25.8239C165.826 26.1599 165.844 26.5053 165.862 26.8601L165.861 27.0421ZM162.2 29.9827C162.165 29.0772 162.13 28.1811 162.095 27.2943C162.069 26.4075 162.048 25.5161 162.032 24.62C162.032 24.5827 162.027 24.5453 162.018 24.508C162.018 24.4706 162.018 24.4333 162.018 24.396C162.029 23.864 162.086 23.3462 162.19 22.8426C162.303 22.339 162.473 21.845 162.698 21.3604C163.017 20.6336 163.559 20.2389 164.325 20.1764C164.67 20.1403 165.011 20.1183 165.347 20.1102C165.692 20.0928 166.038 20.0847 166.383 20.086C166.831 20.0876 167.279 20.1032 167.727 20.1329C168.044 20.1527 168.329 20.2378 168.58 20.388C168.832 20.5289 169.06 20.7211 169.265 20.9645C169.572 21.339 169.832 21.7366 170.046 22.1574C170.26 22.5688 170.403 23.0174 170.476 23.503C170.605 24.3248 170.701 25.1371 170.764 25.9401C170.837 26.7337 170.872 27.5411 170.87 28.3625C170.869 28.6425 170.864 28.9224 170.854 29.2024C170.844 29.473 170.829 29.7483 170.81 30.0282C170.791 30.2802 170.771 30.5321 170.752 30.784C170.742 31.0267 170.737 31.274 170.736 31.526C170.735 31.8246 170.744 32.1187 170.762 32.4081C170.789 32.6882 170.826 32.9777 170.872 33.2765C170.899 33.6593 170.916 34.028 170.925 34.3827C170.943 34.7468 170.96 35.0922 170.978 35.4189C170.996 35.755 171.023 36.0724 171.06 36.3712C171.096 36.67 171.152 36.9409 171.226 37.1838C171.244 37.2585 171.254 37.3099 171.253 37.3379C171.253 37.5246 171.155 37.6782 170.958 37.7988C170.837 37.8731 170.72 37.91 170.608 37.9096C170.477 37.9091 170.347 37.8713 170.216 37.7961C170.114 37.7211 170.035 37.6321 169.979 37.5292C169.923 37.4264 169.886 37.3096 169.868 37.1788C169.84 36.9921 169.808 36.8006 169.771 36.6045C169.734 36.4083 169.716 36.2123 169.717 36.0163C169.709 35.5029 169.687 35.0408 169.65 34.63C169.623 34.2193 169.592 33.8458 169.555 33.5097C169.528 33.1642 169.501 32.8468 169.474 32.5574C169.446 32.2586 169.433 31.9645 169.434 31.6752L169.434 31.5492C169.435 31.3625 169.346 31.2689 169.169 31.2682L169.071 31.2679C168.744 31.2947 168.413 31.3261 168.077 31.3622C167.75 31.3984 167.423 31.4158 167.096 31.4146C166.863 31.4138 166.63 31.3989 166.397 31.3701L166.327 31.3698C166.149 31.3692 166.06 31.4762 166.06 31.6908C166.068 32.0735 166.072 32.4562 166.071 32.8389C166.07 33.2122 166.069 33.5949 166.068 33.9869L166.019 36.8847C166.018 37.2114 165.952 37.4445 165.821 37.584C165.699 37.7236 165.475 37.8021 165.148 37.8195C164.737 37.846 164.331 37.8585 163.93 37.8571C163.818 37.8567 163.701 37.8516 163.58 37.8418C163.468 37.8414 163.356 37.841 163.244 37.8405C162.89 37.8299 162.638 37.7497 162.489 37.5998C162.34 37.4592 162.261 37.2069 162.253 36.8429C162.244 36.5442 162.24 36.2502 162.241 35.9609C162.242 35.6715 162.242 35.3775 162.243 35.0789L162.292 32.419C162.293 32.0084 162.285 31.6023 162.267 31.2009C162.249 30.7995 162.227 30.3934 162.2 29.9827ZM173.929 37.8657C173.575 37.8644 173.356 37.677 173.273 37.3033C173.245 37.2099 173.231 37.1165 173.231 37.0232L172.953 30.9881C172.954 30.4374 172.96 29.9055 172.971 29.3922C172.971 29.1775 172.972 28.9582 172.972 28.7342C172.982 28.5102 172.988 28.2956 172.988 28.0902C172.998 27.8756 173.003 27.6796 173.004 27.5023C173.004 27.3249 173.004 27.1709 173.005 27.0403L173.006 26.6763C172.989 25.7149 172.982 24.7582 172.985 23.8062C172.987 22.8542 172.99 21.9255 172.992 21.0202C172.993 20.7682 173.04 20.5817 173.133 20.4607C173.236 20.3304 173.409 20.2517 173.652 20.2246C173.857 20.2067 174.058 20.1934 174.254 20.1848C174.45 20.1762 174.651 20.1723 174.856 20.173C175.071 20.1738 175.29 20.1793 175.514 20.1894C175.738 20.1996 175.957 20.2144 176.172 20.2338C176.415 20.2534 176.592 20.3287 176.703 20.4598C176.815 20.5815 176.885 20.7638 176.912 21.0066C176.921 21.0813 176.926 21.1653 176.925 21.2586C176.925 21.3426 176.925 21.4219 176.925 21.4966C176.922 22.5886 176.919 23.6993 176.916 24.8286C176.913 25.9486 176.915 27.0779 176.922 28.2166L176.921 28.5666C177.005 28.4923 177.057 28.4225 177.075 28.3572C177.104 28.292 177.127 28.2267 177.146 28.1615C177.531 27.0335 177.945 25.8637 178.387 24.652C178.829 23.4309 179.298 22.2053 179.796 20.9751C179.834 20.9006 179.866 20.8261 179.895 20.7515C179.923 20.6676 179.96 20.5884 180.007 20.5139C180.138 20.3277 180.321 20.2351 180.554 20.2359C180.582 20.236 180.61 20.2361 180.638 20.2362C180.675 20.2364 180.713 20.2458 180.75 20.2646C181.02 20.3683 181.155 20.5741 181.154 20.8821C181.154 20.9848 181.14 21.0781 181.112 21.162C181.083 21.2459 181.05 21.3344 181.013 21.4276C180.487 22.7323 179.989 24.0279 179.519 25.3141C179.059 26.5911 178.626 27.8309 178.222 29.0334C178.118 29.3317 178.01 29.6253 177.897 29.9142C177.794 30.1939 177.681 30.4734 177.559 30.753C177.512 30.8742 177.489 30.9721 177.489 31.0467C177.488 31.1401 177.525 31.2522 177.6 31.3831C178.12 32.3184 178.613 33.1695 179.077 33.9366C179.551 34.713 180.053 35.4428 180.584 36.1261C180.705 36.2852 180.854 36.4258 181.031 36.5478C181.077 36.5759 181.119 36.6041 181.156 36.6322C181.203 36.6697 181.25 36.7072 181.296 36.7447C181.454 36.8853 181.533 37.0536 181.533 37.2496C181.533 37.3803 181.495 37.4968 181.42 37.5992C181.298 37.7854 181.125 37.8781 180.901 37.8773C180.827 37.877 180.733 37.8533 180.621 37.8063C180.398 37.7028 180.197 37.5714 180.02 37.4121C179.844 37.2527 179.676 37.0748 179.518 36.8782C179.164 36.4009 178.816 35.905 178.472 35.3904C178.128 34.8758 177.779 34.2678 177.426 33.5665C177.38 33.473 177.324 33.3841 177.259 33.2999C177.194 33.2063 177.115 33.094 177.022 32.963C177.012 33.0937 177.007 33.215 177.007 33.327C177.007 33.439 177.006 33.551 177.006 33.663C177.005 33.9057 177.009 34.1343 177.018 34.349C177.036 34.5731 177.054 34.7925 177.073 35.0072C177.1 35.3247 177.122 35.6421 177.14 35.9595C177.158 36.2769 177.167 36.5943 177.166 36.9116L177.165 37.1356C177.146 37.3875 177.08 37.5693 176.968 37.6809C176.865 37.8018 176.692 37.8665 176.449 37.875C176.272 37.8837 176.095 37.8877 175.917 37.887C175.74 37.8864 175.563 37.8857 175.385 37.8851L173.929 37.8657ZM187.094 27.1199C187.093 27.5679 187.106 28.0113 187.132 28.4501C187.159 28.8889 187.182 29.3323 187.199 29.7803C187.199 29.9017 187.222 29.9904 187.268 30.0466C187.315 30.1028 187.408 30.1404 187.548 30.1596C187.66 30.1694 187.772 30.1791 187.884 30.1889C187.996 30.1893 188.108 30.1897 188.22 30.1901C188.556 30.1913 188.887 30.1785 189.214 30.1517C189.55 30.1156 189.886 30.0842 190.222 30.0574C190.353 30.0486 190.456 30.0349 190.53 30.0166C190.605 29.9888 190.661 29.9517 190.699 29.9052C190.736 29.8586 190.76 29.7934 190.769 29.7094C190.779 29.6255 190.788 29.5135 190.798 29.3735C190.798 29.2709 190.799 29.1682 190.799 29.0655C190.808 28.9536 190.813 28.8462 190.814 28.7436C190.815 28.1276 190.793 27.5162 190.748 26.9093C190.713 26.3025 190.672 25.691 190.627 25.0749C190.6 24.8041 190.563 24.538 190.517 24.2765C190.48 24.015 190.43 23.7488 190.365 23.4779C190.291 23.1696 190.175 22.8845 190.017 22.6226C189.869 22.3607 189.692 22.1128 189.487 21.8787C189.357 21.7195 189.212 21.6163 189.054 21.5691C188.895 21.5125 188.727 21.4839 188.55 21.4832C188.475 21.483 188.401 21.4874 188.326 21.4964C188.251 21.4961 188.177 21.5005 188.102 21.5096C187.887 21.5275 187.742 21.6109 187.667 21.76C187.592 21.8997 187.522 22.0441 187.456 22.1932C187.156 22.9295 187.004 23.7083 187.002 24.5296C187.002 24.5856 187.002 24.6416 187.002 24.6976C187.011 24.7536 187.016 24.8096 187.015 24.8656C187.024 25.211 187.032 25.5564 187.041 25.9017C187.059 26.2378 187.076 26.5832 187.094 26.9379L187.094 27.1199ZM183.432 30.0605C183.397 29.1551 183.362 28.2589 183.327 27.3721C183.301 26.4854 183.28 25.5939 183.264 24.6979C183.264 24.6605 183.259 24.6232 183.25 24.5858C183.25 24.5485 183.25 24.5112 183.25 24.4738C183.261 23.9419 183.318 23.4241 183.422 22.9204C183.536 22.4169 183.705 21.9228 183.93 21.4383C184.249 20.7115 184.792 20.3168 185.557 20.2543C185.903 20.2182 186.243 20.1961 186.579 20.188C186.925 20.1706 187.27 20.1625 187.615 20.1638C188.063 20.1654 188.511 20.1811 188.959 20.2107C189.277 20.2306 189.561 20.3156 189.813 20.4659C190.064 20.6068 190.292 20.799 190.497 21.0424C190.804 21.4168 191.065 21.8145 191.278 22.2352C191.492 22.6467 191.635 23.0952 191.709 23.5808C191.837 24.4026 191.933 25.215 191.997 26.0179C192.069 26.8115 192.105 27.619 192.102 28.4403C192.102 28.7203 192.096 29.0003 192.086 29.2803C192.076 29.5509 192.062 29.8262 192.042 30.1061C192.023 30.358 192.004 30.61 191.984 30.8619C191.974 31.1045 191.969 31.3518 191.968 31.6038C191.968 31.9025 191.976 32.1965 191.994 32.4859C192.021 32.766 192.058 33.0555 192.104 33.3543C192.131 33.7371 192.149 34.1058 192.157 34.4605C192.175 34.8246 192.193 35.17 192.211 35.4967C192.228 35.8328 192.256 36.1502 192.292 36.4491C192.329 36.7479 192.384 37.0187 192.458 37.2617C192.477 37.3364 192.486 37.3878 192.486 37.4158C192.485 37.6024 192.387 37.7561 192.191 37.8767C192.069 37.9509 191.952 37.9878 191.84 37.9874C191.71 37.9869 191.579 37.9491 191.449 37.874C191.346 37.7989 191.267 37.71 191.211 37.6071C191.155 37.5042 191.118 37.3874 191.1 37.2567C191.073 37.0699 191.04 36.8785 191.004 36.6823C190.967 36.4862 190.949 36.2901 190.949 36.0941C190.941 35.5808 190.919 35.1187 190.883 34.7079C190.856 34.2971 190.824 33.9237 190.787 33.5875C190.76 33.2421 190.733 32.9246 190.706 32.6352C190.679 32.3364 190.665 32.0424 190.666 31.7531L190.666 31.6271C190.667 31.4404 190.578 31.3467 190.401 31.3461L190.303 31.3457C189.976 31.3725 189.645 31.404 189.309 31.4401C188.982 31.4762 188.655 31.4937 188.329 31.4925C188.095 31.4916 187.862 31.4768 187.629 31.4479L187.559 31.4477C187.381 31.447 187.293 31.554 187.292 31.7687C187.3 32.1514 187.304 32.5341 187.303 32.9167C187.302 33.2901 187.301 33.6727 187.3 34.0647L187.251 36.9626C187.25 37.2892 187.184 37.5223 187.053 37.6618C186.931 37.8014 186.707 37.8799 186.38 37.8974C185.97 37.9239 185.564 37.9364 185.162 37.9349C185.05 37.9345 184.934 37.9294 184.812 37.9196C184.7 37.9192 184.588 37.9188 184.476 37.9184C184.122 37.9078 183.87 37.8275 183.721 37.6776C183.572 37.5371 183.493 37.2848 183.485 36.9208C183.476 36.6221 183.472 36.328 183.473 36.0387C183.474 35.7494 183.475 35.4554 183.475 35.1567L183.524 32.4969C183.525 32.0862 183.517 31.6802 183.499 31.2788C183.482 30.8774 183.459 30.4713 183.432 30.0605ZM197.892 37.9816C197.714 37.9809 197.537 37.9803 197.36 37.9796C197.192 37.979 197.014 37.969 196.828 37.9497C196.604 37.9302 196.398 37.8548 196.212 37.7234C196.026 37.6014 195.853 37.4608 195.695 37.3015C195.286 36.8427 194.97 36.3515 194.747 35.828C194.524 35.3046 194.367 34.7486 194.275 34.1603C194.257 33.9922 194.239 33.8242 194.22 33.6561C194.212 33.4881 194.207 33.3201 194.208 33.1521C194.209 32.8254 194.223 32.5034 194.252 32.1862C194.29 31.8597 194.333 31.5332 194.381 31.2067C194.456 30.8056 194.662 30.6057 194.998 30.6069L195.054 30.6071C195.231 30.6171 195.376 30.683 195.488 30.8047C195.599 30.9265 195.655 31.0853 195.654 31.2813L195.654 31.3933C195.654 31.524 195.644 31.6546 195.625 31.7852C195.616 31.9159 195.601 32.0465 195.582 32.1771C195.563 32.3357 195.544 32.4896 195.525 32.6389C195.515 32.7882 195.51 32.9422 195.51 33.1008C195.508 34.0248 195.729 34.9076 196.175 35.7493C196.333 36.0485 196.552 36.278 196.831 36.4377C197.111 36.5974 197.4 36.6778 197.699 36.6789C197.885 36.6796 198.068 36.6522 198.245 36.5969C198.422 36.5415 198.591 36.4488 198.75 36.3187C198.853 36.2351 198.937 36.1327 199.003 36.0117C199.068 35.8999 199.124 35.7834 199.171 35.6623C199.256 35.4199 199.317 35.1821 199.355 34.9489C199.393 34.7157 199.412 34.4778 199.413 34.2351C199.414 33.9365 199.387 33.6424 199.331 33.3528C199.285 33.0633 199.221 32.7691 199.137 32.4701C199.119 32.4047 199.091 32.3486 199.054 32.3018C199.017 32.2457 198.98 32.1895 198.942 32.1334C198.84 31.965 198.724 31.8806 198.593 31.8801C198.518 31.8799 198.434 31.9075 198.341 31.9632C198.303 31.9911 198.261 32.0142 198.215 32.0327C198.177 32.0419 198.135 32.0558 198.088 32.0743C197.995 32.0926 197.925 32.1017 197.878 32.1015C197.636 32.1006 197.459 32.0066 197.347 31.8196C197.273 31.698 197.236 31.5765 197.236 31.4551C197.236 31.2965 197.297 31.1427 197.419 30.9938C197.485 30.9287 197.56 30.8683 197.644 30.8126C197.943 30.6084 198.186 30.3666 198.373 30.0873C198.561 29.808 198.711 29.5005 198.824 29.165C198.908 28.9226 198.979 28.6055 199.036 28.2137C199.103 27.822 199.141 27.4348 199.151 27.0521L199.168 25.8342C199.169 25.5262 199.165 25.2182 199.157 24.9102C199.148 24.5928 199.13 24.2754 199.103 23.9579C199.085 23.6779 199.044 23.4024 198.979 23.1315C198.924 22.8606 198.854 22.5897 198.771 22.3187C198.632 21.8982 198.418 21.6874 198.129 21.6864C197.989 21.6858 197.816 21.7272 197.61 21.8105C197.19 21.9956 196.844 22.2697 196.572 22.6327C196.263 23.0515 196.024 23.494 195.855 23.96C195.686 24.4261 195.573 24.9157 195.515 25.4288L195.501 25.6668C195.5 25.7974 195.509 25.9328 195.528 26.0729C195.555 26.213 195.588 26.3484 195.625 26.4792C195.652 26.5633 195.666 26.6474 195.666 26.7314C195.665 27.0114 195.529 27.1975 195.259 27.2899C195.184 27.3176 195.109 27.3313 195.034 27.3311C194.754 27.33 194.549 27.1893 194.42 26.9088C194.271 26.5442 194.197 26.1566 194.198 25.746C194.199 25.6806 194.199 25.62 194.199 25.564C194.199 25.4986 194.204 25.4333 194.213 25.368C194.271 24.7896 194.389 24.2347 194.568 23.7033C194.746 23.172 194.995 22.6595 195.314 22.166C195.67 21.6073 196.095 21.1702 196.591 20.8547C197.086 20.5299 197.67 20.35 198.342 20.3151L199.378 20.3189L200.414 20.3367C200.862 20.357 201.226 20.4797 201.505 20.7047C201.785 20.9204 202.008 21.2199 202.175 21.6032C202.444 22.2295 202.606 22.8788 202.66 23.551C202.697 23.8871 202.724 24.2232 202.742 24.5593C202.769 24.8861 202.782 25.1894 202.781 25.4694L202.78 25.7634C202.76 26.4634 202.735 27.1026 202.706 27.6812C202.685 28.2598 202.605 28.7728 202.464 29.2203C202.388 29.4534 202.309 29.6817 202.224 29.9054C202.149 30.1292 202.046 30.3434 201.914 30.5483C201.896 30.5949 201.877 30.6368 201.858 30.6741C201.839 30.702 201.83 30.7347 201.83 30.772C201.83 30.828 201.857 30.8841 201.913 30.9403C202.155 31.1839 202.346 31.4366 202.485 31.6984C202.634 31.9603 202.745 32.236 202.819 32.5256C202.893 32.8152 202.939 33.1094 202.957 33.4081C202.975 33.7069 202.984 34.0102 202.983 34.3182L202.982 34.6542C202.98 35.3822 202.782 36.0815 202.389 36.7521C202.07 37.2922 201.598 37.6405 200.972 37.7969C200.617 37.8889 200.267 37.9436 199.922 37.961C199.586 37.9785 199.24 37.9865 198.886 37.9852L197.892 37.9816Z" fill="white"/>
</svg>
