<svg width="360" height="103" viewBox="0 0 360 103" fill="none" xmlns="http://www.w3.org/2000/svg">
<path d="M21.492 83.07C22.212 83.07 22.914 82.944 23.598 82.692C24.282 82.44 24.966 82.152 25.65 81.828C26.55 81.396 27.36 80.892 28.08 80.316C28.8 79.776 29.43 79.056 29.97 78.156C30.51 77.292 30.924 76.212 31.212 74.916C31.536 73.62 31.734 72.018 31.806 70.11L31.752 69.192C31.716 68.94 31.698 68.706 31.698 68.49C31.698 68.238 31.698 67.968 31.698 67.68C31.698 67.428 31.698 67.194 31.698 66.978C31.698 66.726 31.68 66.474 31.644 66.222C31.536 63.846 30.618 62.658 28.89 62.658C28.458 62.658 27.918 62.748 27.27 62.928C26.01 63.324 24.732 63.666 23.436 63.954C22.14 64.206 20.844 64.422 19.548 64.602C19.008 64.674 18.648 64.836 18.468 65.088C18.324 65.304 18.252 65.646 18.252 66.114L17.982 75.024H18.036C18.036 75.96 18.036 76.896 18.036 77.832C18.036 78.768 18.054 79.704 18.09 80.64C18.126 81.432 18.27 81.954 18.522 82.206C18.774 82.494 19.296 82.728 20.088 82.908C20.556 83.016 21.024 83.07 21.492 83.07ZM18.576 59.04C19.08 58.788 19.566 58.572 20.034 58.392C20.538 58.176 21.042 57.942 21.546 57.69C23.058 56.97 24.3 56.034 25.272 54.882C26.28 53.694 26.982 52.29 27.378 50.67C27.846 48.69 28.206 46.728 28.458 44.784C28.746 42.804 28.89 40.806 28.89 38.79C28.89 37.674 28.836 36.558 28.728 35.442C28.62 34.326 28.476 33.192 28.296 32.04C28.152 31.32 27.954 30.636 27.702 29.988C27.45 29.304 27.126 28.656 26.73 28.044C26.118 27.216 25.398 26.604 24.57 26.208C23.778 25.776 22.914 25.56 21.978 25.56C21.042 25.56 20.196 25.74 19.44 26.1C19.152 26.244 18.954 26.406 18.846 26.586C18.738 26.73 18.684 26.946 18.684 27.234L18.306 32.418C18.234 33.642 18.18 34.848 18.144 36.036C18.144 37.224 18.144 38.43 18.144 39.654C18.144 42.426 18.18 45.18 18.252 47.916C18.324 50.652 18.36 53.424 18.36 56.232V58.284C18.36 58.356 18.378 58.464 18.414 58.608C18.45 58.716 18.504 58.86 18.576 59.04ZM16.092 88.362C14.976 88.362 13.86 88.326 12.744 88.254C11.664 88.182 10.584 88.02 9.504 87.768C8.676 87.588 7.902 87.336 7.182 87.012C6.498 86.688 5.796 86.364 5.076 86.04C4.356 85.68 3.888 85.176 3.672 84.528C3.492 83.916 3.402 83.25 3.402 82.53C3.366 80.91 3.33 79.29 3.294 77.67C3.258 76.086 3.24 74.484 3.24 72.864L3.672 55.368C3.672 53.316 3.654 51.264 3.618 49.212C3.582 47.124 3.528 45.054 3.456 43.002L3.402 39.816C3.402 37.296 3.474 34.776 3.618 32.256C3.762 29.736 3.888 27.216 3.996 24.696C4.032 23.76 4.248 23.058 4.644 22.59C5.076 22.086 5.814 21.69 6.858 21.402C8.082 21.078 9.306 20.79 10.53 20.538C11.754 20.286 12.996 20.124 14.256 20.052L16.47 19.998C18.594 19.998 20.718 20.16 22.842 20.484C25.578 20.88 27.81 21.924 29.538 23.616C31.266 25.308 32.436 27.522 33.048 30.258C33.336 31.59 33.534 32.922 33.642 34.254C33.786 35.55 33.858 36.864 33.858 38.196C33.858 39.564 33.786 40.95 33.642 42.354C33.534 43.758 33.39 45.162 33.21 46.566C33.03 47.79 32.832 49.014 32.616 50.238C32.4 51.426 32.094 52.596 31.698 53.748C31.41 54.396 31.086 55.026 30.726 55.638C30.366 56.25 29.988 56.88 29.592 57.528C30.024 57.672 30.42 57.78 30.78 57.852C31.14 57.924 31.482 58.032 31.806 58.176C33.102 58.788 34.146 59.598 34.938 60.606C35.766 61.578 36.27 62.784 36.45 64.224C36.666 65.736 36.774 67.266 36.774 68.814C36.774 69.138 36.756 69.642 36.72 70.326C36.684 71.01 36.63 71.73 36.558 72.486C36.522 73.242 36.468 73.944 36.396 74.592C36.324 75.276 36.27 75.78 36.234 76.104C36.054 77.472 35.676 78.714 35.1 79.83C34.56 80.946 33.804 81.972 32.832 82.908C31.104 84.456 29.268 85.716 27.324 86.688C25.38 87.66 23.238 88.182 20.898 88.254C20.07 88.29 19.26 88.308 18.468 88.308C17.712 88.344 16.92 88.362 16.092 88.362ZM74.0994 88.308C72.7314 88.308 71.8854 87.588 71.5614 86.148C71.4534 85.788 71.3994 85.428 71.3994 85.068L70.2654 61.794C70.2654 59.67 70.2834 57.618 70.3194 55.638C70.3194 54.81 70.3194 53.964 70.3194 53.1C70.3554 52.236 70.3734 51.408 70.3734 50.616C70.4094 49.788 70.4274 49.032 70.4274 48.348C70.4274 47.664 70.4274 47.07 70.4274 46.566V45.162C70.3554 41.454 70.3194 37.764 70.3194 34.092C70.3194 30.42 70.3194 26.838 70.3194 23.346C70.3194 22.374 70.4994 21.654 70.8594 21.186C71.2554 20.682 71.9214 20.376 72.8574 20.268C73.6494 20.196 74.4234 20.142 75.1794 20.106C75.9354 20.07 76.7094 20.052 77.5014 20.052C78.3294 20.052 79.1754 20.07 80.0394 20.106C80.9034 20.142 81.7494 20.196 82.5774 20.268C83.5134 20.34 84.1974 20.628 84.6294 21.132C85.0614 21.6 85.3314 22.302 85.4394 23.238C85.4754 23.526 85.4934 23.85 85.4934 24.21C85.4934 24.534 85.4934 24.84 85.4934 25.128C85.4934 29.34 85.4934 33.624 85.4934 37.98C85.4934 42.3 85.5114 46.656 85.5474 51.048V52.398C85.8714 52.11 86.0694 51.84 86.1414 51.588C86.2494 51.336 86.3394 51.084 86.4114 50.832C87.8874 46.476 89.4714 41.958 91.1634 37.278C92.8554 32.562 94.6554 27.828 96.5634 23.076C96.7074 22.788 96.8334 22.5 96.9414 22.212C97.0494 21.888 97.1934 21.582 97.3734 21.294C97.8774 20.574 98.5794 20.214 99.4794 20.214C99.5874 20.214 99.6954 20.214 99.8034 20.214C99.9474 20.214 100.091 20.25 100.235 20.322C101.279 20.718 101.801 21.51 101.801 22.698C101.801 23.094 101.747 23.454 101.639 23.778C101.531 24.102 101.405 24.444 101.261 24.804C99.2454 29.844 97.3374 34.848 95.5374 39.816C93.7734 44.748 92.1174 49.536 90.5694 54.18C90.1734 55.332 89.7594 56.466 89.3274 57.582C88.9314 58.662 88.4994 59.742 88.0314 60.822C87.8514 61.29 87.7614 61.668 87.7614 61.956C87.7614 62.316 87.9054 62.748 88.1934 63.252C90.2094 66.852 92.1174 70.128 93.9174 73.08C95.7534 76.068 97.6974 78.876 99.7494 81.504C100.217 82.116 100.793 82.656 101.477 83.124C101.657 83.232 101.819 83.34 101.963 83.448C102.143 83.592 102.323 83.736 102.503 83.88C103.115 84.42 103.421 85.068 103.421 85.824C103.421 86.328 103.277 86.778 102.989 87.174C102.521 87.894 101.855 88.254 100.991 88.254C100.703 88.254 100.343 88.164 99.9114 87.984C99.0474 87.588 98.2734 87.084 97.5894 86.472C96.9054 85.86 96.2574 85.176 95.6454 84.42C94.2774 82.584 92.9274 80.676 91.5954 78.696C90.2634 76.716 88.9134 74.376 87.5454 71.676C87.3654 71.316 87.1494 70.974 86.8974 70.65C86.6454 70.29 86.3394 69.858 85.9794 69.354C85.9434 69.858 85.9254 70.326 85.9254 70.758C85.9254 71.19 85.9254 71.622 85.9254 72.054C85.9254 72.99 85.9434 73.872 85.9794 74.7C86.0514 75.564 86.1234 76.41 86.1954 77.238C86.3034 78.462 86.3934 79.686 86.4654 80.91C86.5374 82.134 86.5734 83.358 86.5734 84.582V85.446C86.5014 86.418 86.2494 87.12 85.8174 87.552C85.4214 88.02 84.7554 88.272 83.8194 88.308C83.1354 88.344 82.4514 88.362 81.7674 88.362C81.0834 88.362 80.3994 88.362 79.7154 88.362L74.0994 88.308ZM130.55 83.07C131.342 83.07 132.044 82.53 132.656 81.45C132.908 80.982 133.106 80.514 133.25 80.046C133.43 79.614 133.61 79.146 133.79 78.642C135.086 74.61 136.04 70.542 136.652 66.438C137.3 62.334 137.696 58.14 137.84 53.856V53.478C137.84 48.978 137.426 44.658 136.598 40.518C135.806 36.342 134.726 32.184 133.358 28.044C133.286 27.864 133.214 27.702 133.142 27.558C133.07 27.414 132.998 27.252 132.926 27.072C132.314 26.1 131.504 25.614 130.496 25.614C130.1 25.614 129.686 25.722 129.254 25.938C128.858 26.118 128.516 26.406 128.228 26.802C127.616 27.63 127.148 28.494 126.824 29.394C126.5 30.294 126.212 31.212 125.96 32.148C125.204 35.208 124.682 38.286 124.394 41.382C124.106 44.442 123.872 47.556 123.692 50.724C123.62 51.444 123.584 52.164 123.584 52.884C123.584 53.604 123.584 54.324 123.584 55.044C123.584 59.184 123.872 63.162 124.448 66.978C125.024 70.794 125.852 74.592 126.932 78.372C127.112 78.984 127.31 79.56 127.526 80.1C127.742 80.676 128.048 81.216 128.444 81.72C129.128 82.62 129.83 83.07 130.55 83.07ZM120.992 88.308C120.164 88.308 119.426 88.11 118.778 87.714C118.166 87.354 117.572 86.904 116.996 86.364C116.06 85.464 115.322 84.474 114.782 83.394C114.278 82.314 113.846 81.18 113.486 79.992C112.298 75.888 111.398 71.784 110.786 67.68C110.21 63.54 109.922 59.256 109.922 54.828C109.922 53.1 109.976 51.336 110.084 49.536C110.264 46.332 110.534 43.182 110.894 40.086C111.254 36.954 111.812 33.84 112.568 30.744C113.396 27.54 114.836 24.75 116.888 22.374C117.32 21.834 117.788 21.402 118.292 21.078C118.796 20.754 119.408 20.556 120.128 20.484C121.1 20.412 122.072 20.34 123.044 20.268C124.016 20.196 125.006 20.16 126.014 20.16C127.166 20.16 128.3 20.232 129.416 20.376C130.532 20.484 131.648 20.7 132.764 21.024C134.168 21.42 135.302 22.086 136.166 23.022C137.03 23.958 137.678 25.11 138.11 26.478C139.118 29.646 140 32.832 140.756 36.036C141.548 39.204 142.106 42.462 142.43 45.81C142.538 46.89 142.628 47.97 142.7 49.05C142.808 50.094 142.862 51.138 142.862 52.182V53.37C142.682 58.086 142.25 62.676 141.566 67.14C140.918 71.568 139.892 75.942 138.488 80.262C138.308 80.874 138.11 81.45 137.894 81.99C137.678 82.566 137.426 83.124 137.138 83.664C135.95 86.184 133.934 87.642 131.09 88.038C130.19 88.182 129.29 88.272 128.39 88.308C127.526 88.344 126.644 88.362 125.744 88.362L120.992 88.308ZM166.539 59.04C166.755 59.04 166.989 59.022 167.241 58.986C167.529 58.95 167.853 58.896 168.213 58.824C168.321 58.824 168.429 58.806 168.537 58.77C168.645 58.734 168.735 58.698 168.807 58.662C170.751 58.194 172.191 57.33 173.127 56.07C174.099 54.81 174.711 53.262 174.963 51.426C175.143 50.382 175.269 49.392 175.341 48.456C175.449 47.484 175.539 46.746 175.611 46.242C175.647 46.062 175.665 45.882 175.665 45.702C175.665 45.522 175.665 45.342 175.665 45.162C175.665 44.802 175.647 44.478 175.611 44.19C175.611 43.866 175.611 43.578 175.611 43.326C175.431 39.258 174.711 35.316 173.451 31.5C172.947 29.988 172.191 28.782 171.183 27.882C170.175 26.946 168.969 26.208 167.565 25.668C167.277 25.596 166.989 25.542 166.701 25.506C166.413 25.434 166.125 25.362 165.837 25.29L165.405 25.236C164.793 25.236 164.487 25.578 164.487 26.262L164.541 28.584C164.613 31.068 164.667 33.498 164.703 35.874C164.775 38.214 164.847 40.32 164.919 42.192C164.919 43.92 164.919 46.026 164.919 48.51C164.919 50.958 164.937 53.496 164.973 56.124C164.973 57.24 165.063 58.014 165.243 58.446C165.423 58.842 165.855 59.04 166.539 59.04ZM154.281 88.416C154.101 88.416 153.903 88.398 153.687 88.362C153.507 88.362 153.327 88.344 153.147 88.308C151.167 87.984 150.159 86.814 150.123 84.798C150.015 82.494 149.943 80.1 149.907 77.616C149.871 75.168 149.835 72.702 149.799 70.218C149.799 67.734 149.799 65.268 149.799 62.82C149.799 60.336 149.799 57.96 149.799 55.692V47.97C149.799 46.134 149.781 44.334 149.745 42.57C149.745 40.77 149.709 38.97 149.637 37.17C149.565 35.19 149.511 33.21 149.475 31.23C149.475 29.25 149.439 27.27 149.367 25.29V24.426C149.403 22.914 149.691 21.87 150.231 21.294C150.807 20.682 151.851 20.322 153.363 20.214L155.415 20.16L159.411 20.214H163.731L165.891 20.322C168.951 20.682 171.525 21.654 173.613 23.238C175.737 24.822 177.285 27.126 178.257 30.15C179.661 34.506 180.471 38.934 180.687 43.434V43.92C180.687 44.208 180.687 44.64 180.687 45.216C180.687 45.756 180.651 46.494 180.579 47.43C180.507 48.15 180.399 49.014 180.255 50.022C180.111 51.03 179.949 52.056 179.769 53.1C179.517 54.432 179.067 55.746 178.419 57.042C177.807 58.302 176.961 59.436 175.881 60.444C174.837 61.452 173.559 62.28 172.047 62.928C170.535 63.54 168.789 63.864 166.809 63.9C166.089 63.9 165.639 63.954 165.459 64.062C165.279 64.17 165.189 64.494 165.189 65.034V69.3C165.189 70.56 165.171 71.838 165.135 73.134C165.135 74.43 165.135 75.726 165.135 77.022C165.135 77.598 165.135 78.174 165.135 78.75C165.135 79.326 165.153 79.902 165.189 80.478L165.405 85.338C165.405 86.742 164.685 87.624 163.245 87.984C162.957 88.056 162.669 88.092 162.381 88.092C162.129 88.128 161.859 88.164 161.571 88.2C160.419 88.272 159.267 88.308 158.115 88.308C156.963 88.344 155.811 88.38 154.659 88.416H154.281ZM201.542 88.416C200.858 88.416 200.174 88.416 199.49 88.416C198.842 88.416 198.158 88.38 197.438 88.308C196.574 88.236 195.782 87.948 195.062 87.444C194.342 86.976 193.676 86.436 193.064 85.824C191.48 84.06 190.256 82.17 189.392 80.154C188.528 78.138 187.916 75.996 187.556 73.728C187.484 73.08 187.412 72.432 187.34 71.784C187.304 71.136 187.286 70.488 187.286 69.84C187.286 68.58 187.34 67.338 187.448 66.114C187.592 64.854 187.754 63.594 187.934 62.334C188.222 60.786 189.014 60.012 190.31 60.012H190.526C191.21 60.048 191.768 60.3 192.2 60.768C192.632 61.236 192.848 61.848 192.848 62.604V63.036C192.848 63.54 192.812 64.044 192.74 64.548C192.704 65.052 192.65 65.556 192.578 66.06C192.506 66.672 192.434 67.266 192.362 67.842C192.326 68.418 192.308 69.012 192.308 69.624C192.308 73.188 193.172 76.59 194.9 79.83C195.512 80.982 196.358 81.864 197.438 82.476C198.518 83.088 199.634 83.394 200.786 83.394C201.506 83.394 202.208 83.286 202.892 83.07C203.576 82.854 204.224 82.494 204.836 81.99C205.232 81.666 205.556 81.27 205.808 80.802C206.06 80.37 206.276 79.92 206.456 79.452C206.78 78.516 207.014 77.598 207.158 76.698C207.302 75.798 207.374 74.88 207.374 73.944C207.374 72.792 207.266 71.658 207.05 70.542C206.87 69.426 206.618 68.292 206.294 67.14C206.222 66.888 206.114 66.672 205.97 66.492C205.826 66.276 205.682 66.06 205.538 65.844C205.142 65.196 204.692 64.872 204.188 64.872C203.9 64.872 203.576 64.98 203.216 65.196C203.072 65.304 202.91 65.394 202.73 65.466C202.586 65.502 202.424 65.556 202.244 65.628C201.884 65.7 201.614 65.736 201.434 65.736C200.498 65.736 199.814 65.376 199.382 64.656C199.094 64.188 198.95 63.72 198.95 63.252C198.95 62.64 199.184 62.046 199.652 61.47C199.904 61.218 200.192 60.984 200.516 60.768C201.668 59.976 202.604 59.04 203.324 57.96C204.044 56.88 204.62 55.692 205.052 54.396C205.376 53.46 205.646 52.236 205.862 50.724C206.114 49.212 206.258 47.718 206.294 46.242L206.348 41.544C206.348 40.356 206.33 39.168 206.294 37.98C206.258 36.756 206.186 35.532 206.078 34.308C206.006 33.228 205.844 32.166 205.592 31.122C205.376 30.078 205.106 29.034 204.782 27.99C204.242 26.37 203.414 25.56 202.298 25.56C201.758 25.56 201.092 25.722 200.3 26.046C198.68 26.766 197.348 27.828 196.304 29.232C195.116 30.852 194.198 32.562 193.55 34.362C192.902 36.162 192.47 38.052 192.254 40.032L192.2 40.95C192.2 41.454 192.236 41.976 192.308 42.516C192.416 43.056 192.542 43.578 192.686 44.082C192.794 44.406 192.848 44.73 192.848 45.054C192.848 46.134 192.326 46.854 191.282 47.214C190.994 47.322 190.706 47.376 190.418 47.376C189.338 47.376 188.546 46.836 188.042 45.756C187.466 44.352 187.178 42.858 187.178 41.274C187.178 41.022 187.178 40.788 187.178 40.572C187.178 40.32 187.196 40.068 187.232 39.816C187.448 37.584 187.898 35.442 188.582 33.39C189.266 31.338 190.22 29.358 191.444 27.45C192.812 25.29 194.45 23.598 196.358 22.374C198.266 21.114 200.516 20.412 203.108 20.268H207.104L211.1 20.322C212.828 20.394 214.232 20.862 215.312 21.726C216.392 22.554 217.256 23.706 217.904 25.182C218.948 27.594 219.578 30.096 219.794 32.688C219.938 33.984 220.046 35.28 220.118 36.576C220.226 37.836 220.28 39.006 220.28 40.086V41.22C220.208 43.92 220.118 46.386 220.01 48.618C219.938 50.85 219.632 52.83 219.092 54.558C218.804 55.458 218.498 56.34 218.174 57.204C217.886 58.068 217.49 58.896 216.986 59.688C216.914 59.868 216.842 60.03 216.77 60.174C216.698 60.282 216.662 60.408 216.662 60.552C216.662 60.768 216.77 60.984 216.986 61.2C217.922 62.136 218.66 63.108 219.2 64.116C219.776 65.124 220.208 66.186 220.496 67.302C220.784 68.418 220.964 69.552 221.036 70.704C221.108 71.856 221.144 73.026 221.144 74.214V75.51C221.144 78.318 220.388 81.018 218.876 83.61C217.652 85.698 215.834 87.048 213.422 87.66C212.054 88.02 210.704 88.236 209.372 88.308C208.076 88.38 206.744 88.416 205.376 88.416H201.542ZM248.577 88.362C247.749 88.326 247.119 88.092 246.687 87.66C246.255 87.264 246.039 86.706 246.039 85.986L246.147 85.176C246.291 84.564 246.363 83.952 246.363 83.34C246.399 82.728 246.453 82.116 246.525 81.504C246.597 80.748 246.651 79.668 246.687 78.264C246.759 76.86 246.813 75.312 246.849 73.62C246.921 71.964 246.957 70.254 246.957 68.49C246.993 66.69 247.011 65.034 247.011 63.522C247.047 61.974 247.065 60.642 247.065 59.526C247.101 58.41 247.119 57.69 247.119 57.366C247.119 55.71 247.101 53.964 247.065 52.128C247.029 50.256 247.011 48.348 247.011 46.404V45C247.011 44.784 246.939 44.658 246.795 44.622C246.615 44.766 246.489 44.946 246.417 45.162C246.381 45.342 246.327 45.54 246.255 45.756C245.535 48.384 244.815 51.012 244.095 53.64C243.375 56.268 242.619 58.896 241.827 61.524C240.783 65.016 239.811 68.49 238.911 71.946C238.011 75.402 236.895 78.678 235.563 81.774C235.203 82.602 234.861 83.412 234.537 84.204C234.213 84.996 233.853 85.77 233.457 86.526C232.881 87.714 232.035 88.308 230.919 88.308L230.109 88.2C228.561 87.876 227.733 86.832 227.625 85.068C227.625 84.852 227.625 84.636 227.625 84.42C227.661 84.204 227.697 83.988 227.733 83.772C227.949 79.74 228.201 75.636 228.489 71.46C228.813 67.248 229.137 63 229.461 58.716C229.749 54.9 229.947 51.12 230.055 47.376C230.163 43.596 230.217 39.798 230.217 35.982C230.217 34.506 230.217 33.048 230.217 31.608C230.217 30.168 230.199 28.782 230.163 27.45L230.109 22.698C230.145 21.978 230.361 21.42 230.757 21.024C231.189 20.592 231.729 20.34 232.377 20.268H232.485C233.097 20.268 233.619 20.448 234.051 20.808C234.483 21.168 234.771 21.69 234.915 22.374C234.987 22.734 235.023 23.094 235.023 23.454C235.023 23.814 235.041 24.174 235.077 24.534C235.149 25.47 235.185 26.478 235.185 27.558C235.221 28.602 235.239 29.664 235.239 30.744L235.185 40.464C235.185 44.604 235.059 48.708 234.807 52.776C234.555 56.844 234.285 60.93 233.997 65.034C233.925 65.538 233.871 66.06 233.835 66.6C233.799 67.104 233.781 67.626 233.781 68.166C233.781 68.49 233.799 68.832 233.835 69.192C233.871 69.516 233.925 69.858 233.997 70.218C234.105 69.93 234.213 69.66 234.321 69.408C234.429 69.156 234.519 68.886 234.591 68.598C235.203 66.51 235.797 64.44 236.373 62.388C236.985 60.336 237.579 58.266 238.155 56.178C239.703 50.598 241.233 45.072 242.745 39.6C244.293 34.092 245.481 28.53 246.309 22.914C246.417 22.086 246.669 21.474 247.065 21.078C247.497 20.682 248.163 20.448 249.063 20.376C250.107 20.304 251.133 20.25 252.141 20.214C253.149 20.178 254.175 20.16 255.219 20.16C256.731 20.16 258.207 20.214 259.647 20.322C260.511 20.394 261.177 20.682 261.645 21.186C262.149 21.69 262.401 22.356 262.401 23.184V24.426C262.401 25.326 262.419 26.226 262.455 27.126C262.491 27.99 262.509 28.872 262.509 29.772V30.852C262.437 32.472 262.401 34.146 262.401 35.874C262.401 37.602 262.401 39.348 262.401 41.112C262.401 43.056 262.401 44.982 262.401 46.89C262.437 48.762 262.491 50.67 262.563 52.614L262.617 55.152V56.016C262.617 56.628 262.599 57.474 262.563 58.554C262.563 59.598 262.545 60.768 262.509 62.064C262.473 63.36 262.437 64.746 262.401 66.222C262.365 67.662 262.329 69.084 262.293 70.488C262.293 71.856 262.275 73.152 262.239 74.376C262.203 75.636 262.185 76.698 262.185 77.562C262.185 78.678 262.131 79.776 262.023 80.856C261.915 81.972 261.825 83.088 261.753 84.204C261.753 84.852 261.645 85.5 261.429 86.148C261.033 87.516 260.133 88.2 258.729 88.2C257.037 88.236 255.345 88.272 253.653 88.308C251.997 88.344 250.305 88.362 248.577 88.362ZM272.069 88.308C270.593 88.308 269.747 87.498 269.531 85.878C269.459 85.266 269.405 84.636 269.369 83.988C269.369 83.34 269.351 82.692 269.315 82.044L268.235 56.07C268.163 55.242 268.109 54.432 268.073 53.64C268.037 52.812 268.019 52.02 268.019 51.264C268.019 50.076 268.037 48.924 268.073 47.808C268.109 46.692 268.145 45.576 268.181 44.46C268.217 41.76 268.235 39.06 268.235 36.36C268.271 33.66 268.325 30.96 268.397 28.26C268.433 27.504 268.487 26.766 268.559 26.046C268.631 25.29 268.703 24.534 268.775 23.778C268.955 22.374 269.315 21.42 269.855 20.916C270.431 20.412 271.421 20.142 272.825 20.106H280.601C282.653 20.178 283.679 20.988 283.679 22.536C283.679 23.004 283.607 23.454 283.463 23.886C283.175 24.714 283.013 25.542 282.977 26.37C282.941 27.162 282.923 27.972 282.923 28.8C282.851 31.86 282.779 34.884 282.707 37.872C282.635 40.824 282.599 43.65 282.599 46.35C282.599 49.77 282.653 53.208 282.761 56.664C282.797 57.816 282.887 58.59 283.031 58.986C283.211 59.382 283.661 59.58 284.381 59.58C284.597 59.58 284.831 59.58 285.083 59.58C285.371 59.544 285.695 59.508 286.055 59.472C286.811 59.4 287.567 59.346 288.323 59.31C289.079 59.274 289.835 59.256 290.591 59.256C290.879 59.256 291.131 59.256 291.347 59.256C291.599 59.256 291.851 59.238 292.103 59.202C292.751 59.094 293.255 59.004 293.615 58.932C294.011 58.824 294.317 58.68 294.533 58.5C294.749 58.284 294.875 58.032 294.911 57.744C294.983 57.42 295.019 56.988 295.019 56.448L294.965 52.56C294.965 50.652 295.001 48.798 295.073 46.998C295.145 45.162 295.235 43.452 295.343 41.868C295.451 40.356 295.505 38.844 295.505 37.332C295.541 35.784 295.559 34.236 295.559 32.688V25.452C295.559 25.164 295.523 24.876 295.451 24.588C295.415 24.3 295.379 24.012 295.343 23.724L295.289 23.13C295.289 22.626 295.397 22.122 295.613 21.618C296.117 20.538 296.909 19.998 297.989 19.998H298.151C299.375 20.07 300.131 20.718 300.419 21.942C300.491 22.338 300.527 22.734 300.527 23.13C300.563 23.526 300.581 23.922 300.581 24.318C300.581 28.89 300.527 33.408 300.419 37.872C300.347 42.3 300.203 46.62 299.987 50.832L299.933 53.532C299.933 54.828 299.987 56.088 300.095 57.312C300.131 57.6 300.149 57.87 300.149 58.122C300.149 58.374 300.221 58.608 300.365 58.824C300.761 59.508 300.959 60.174 300.959 60.822C300.959 61.362 300.815 61.902 300.527 62.442C300.383 62.694 300.311 63 300.311 63.36C300.311 63.612 300.329 63.864 300.365 64.116C300.401 64.332 300.437 64.566 300.473 64.818L302.687 84.474C302.723 84.69 302.741 84.906 302.741 85.122C302.777 85.338 302.795 85.554 302.795 85.77C302.723 86.49 302.489 87.084 302.093 87.552C301.733 88.02 301.247 88.29 300.635 88.362H300.311C299.699 88.362 299.159 88.182 298.691 87.822C298.259 87.462 297.989 86.922 297.881 86.202C297.701 85.122 297.539 84.024 297.395 82.908C297.251 81.828 297.125 80.73 297.017 79.614C296.729 76.914 296.477 74.448 296.261 72.216C296.045 69.984 295.811 67.662 295.559 65.25C295.487 64.674 295.397 64.296 295.289 64.116C295.217 63.936 295.037 63.846 294.749 63.846L293.669 63.954C292.157 64.098 290.645 64.206 289.133 64.278C287.657 64.35 286.163 64.422 284.651 64.494C284.003 64.53 283.589 64.602 283.409 64.71C283.229 64.782 283.139 65.07 283.139 65.574L283.949 83.124V85.716C283.769 87.444 282.905 88.308 281.357 88.308C280.673 88.344 280.007 88.362 279.359 88.362C278.711 88.362 278.063 88.362 277.415 88.362L272.069 88.308ZM313.038 88.902C311.742 88.902 310.824 88.668 310.284 88.2C309.78 87.768 309.51 86.868 309.474 85.5C309.438 84.888 309.402 84.258 309.366 83.61C309.366 82.998 309.366 82.386 309.366 81.774L309.42 79.668L309.528 73.458C309.528 71.478 309.474 69.516 309.366 67.572C309.294 65.592 309.258 63.612 309.258 61.632C309.258 60.048 309.312 58.446 309.42 56.826V53.37C309.528 50.85 309.618 48.348 309.69 45.864C309.798 43.344 309.852 40.86 309.852 38.412C309.852 36.072 309.798 33.714 309.69 31.338L309.636 28.368C309.636 27.54 309.636 26.748 309.636 25.992C309.672 25.2 309.708 24.39 309.744 23.562C309.816 22.518 310.05 21.78 310.446 21.348C310.842 20.88 311.562 20.574 312.606 20.43C314.046 20.214 315.558 20.106 317.142 20.106H318.384C320.22 20.106 322.02 20.106 323.784 20.106C325.548 20.07 327.348 20.052 329.184 20.052C332.208 20.052 335.214 20.106 338.202 20.214C338.454 20.25 338.706 20.286 338.958 20.322C339.21 20.358 339.462 20.412 339.714 20.484C340.218 20.664 340.614 20.952 340.902 21.348C341.19 21.744 341.334 22.176 341.334 22.644V22.968C341.19 24.084 340.56 24.786 339.444 25.074C339.264 25.11 339.066 25.146 338.85 25.182C338.67 25.182 338.49 25.182 338.31 25.182H337.932C337.5 25.146 337.068 25.128 336.636 25.128C336.24 25.128 335.826 25.128 335.394 25.128C334.386 25.128 333.378 25.146 332.37 25.182C331.362 25.218 330.354 25.254 329.346 25.29L328.05 25.182C327.618 25.182 327.186 25.2 326.754 25.236C326.322 25.272 325.89 25.29 325.458 25.29C324.738 25.29 324.378 25.632 324.378 26.316L324.324 28.908C324.396 30.852 324.45 32.796 324.486 34.74C324.558 36.684 324.594 38.646 324.594 40.626C324.594 43.002 324.558 45.396 324.486 47.808C324.414 50.184 324.306 52.344 324.162 54.288C324.126 54.684 324.108 55.08 324.108 55.476C324.108 55.872 324.108 56.268 324.108 56.664V57.42C324.108 57.744 324.126 57.996 324.162 58.176C324.198 58.356 324.288 58.5 324.432 58.608C324.576 58.716 324.774 58.788 325.026 58.824C325.314 58.86 325.692 58.878 326.16 58.878L327.402 58.932L329.832 58.878C330.264 58.878 330.696 58.896 331.128 58.932C331.56 58.932 331.992 59.004 332.424 59.148C333 59.328 333.432 59.652 333.72 60.12C334.044 60.552 334.206 61.02 334.206 61.524C334.206 61.812 334.188 62.028 334.152 62.172C334.044 62.712 333.774 63.18 333.342 63.576C332.946 63.936 332.478 64.116 331.938 64.116L331.452 64.062C331.092 63.99 330.75 63.954 330.426 63.954C330.102 63.918 329.76 63.9 329.4 63.9L326.916 63.954H325.296C324.828 63.954 324.504 64.062 324.324 64.278C324.18 64.458 324.108 64.782 324.108 65.25V65.682C324.18 66.438 324.216 67.194 324.216 67.95C324.216 68.67 324.216 69.408 324.216 70.164C324.216 71.712 324.198 73.062 324.162 74.214C324.162 75.366 324.144 76.374 324.108 77.238C324.108 78.138 324.09 78.93 324.054 79.614C324.054 80.334 324.054 81.036 324.054 81.72C324.054 82.476 324.108 82.962 324.216 83.178C324.324 83.43 324.648 83.556 325.188 83.556L337.608 82.962C338.112 82.962 338.562 83.034 338.958 83.178C340.038 83.574 340.578 84.312 340.578 85.392V85.5C340.578 86.472 340.092 87.192 339.12 87.66C338.724 87.84 338.328 87.948 337.932 87.984C337.572 88.02 337.194 88.038 336.798 88.038C334.53 88.11 332.28 88.218 330.048 88.362C327.852 88.506 325.638 88.578 323.406 88.578C323.19 88.578 322.902 88.578 322.542 88.578C322.182 88.614 321.804 88.632 321.408 88.632H320.058C318.906 88.632 317.736 88.668 316.548 88.74C315.396 88.848 314.226 88.902 313.038 88.902Z" fill="#FDA3C4"/>
<path d="M9.125 92V76.45L9.9 77.25H3.35V74.5H18.15V77.25H11.6L12.35 76.45V92H9.125ZM28.8338 92.25C27.4671 92.25 26.2088 92.025 25.0588 91.575C23.9088 91.125 22.9088 90.5 22.0588 89.7C21.2088 88.8833 20.5505 87.9333 20.0838 86.85C19.6171 85.75 19.3838 84.55 19.3838 83.25C19.3838 81.95 19.6171 80.7583 20.0838 79.675C20.5505 78.575 21.2088 77.625 22.0588 76.825C22.9088 76.0083 23.9088 75.375 25.0588 74.925C26.2088 74.475 27.4588 74.25 28.8088 74.25C30.1755 74.25 31.4255 74.475 32.5588 74.925C33.7088 75.375 34.7088 76.0083 35.5588 76.825C36.4088 77.625 37.0671 78.575 37.5338 79.675C38.0005 80.7583 38.2338 81.95 38.2338 83.25C38.2338 84.55 38.0005 85.75 37.5338 86.85C37.0671 87.95 36.4088 88.9 35.5588 89.7C34.7088 90.5 33.7088 91.125 32.5588 91.575C31.4255 92.025 30.1838 92.25 28.8338 92.25ZM28.8088 89.4C29.6921 89.4 30.5088 89.25 31.2588 88.95C32.0088 88.65 32.6588 88.225 33.2088 87.675C33.7588 87.1083 34.1838 86.4583 34.4838 85.725C34.8005 84.975 34.9588 84.15 34.9588 83.25C34.9588 82.35 34.8005 81.5333 34.4838 80.8C34.1838 80.05 33.7588 79.4 33.2088 78.85C32.6588 78.2833 32.0088 77.85 31.2588 77.55C30.5088 77.25 29.6921 77.1 28.8088 77.1C27.9255 77.1 27.1088 77.25 26.3588 77.55C25.6255 77.85 24.9755 78.2833 24.4088 78.85C23.8588 79.4 23.4255 80.05 23.1088 80.8C22.8088 81.5333 22.6588 82.35 22.6588 83.25C22.6588 84.1333 22.8088 84.95 23.1088 85.7C23.4255 86.45 23.8588 87.1083 24.4088 87.675C24.9588 88.225 25.6088 88.65 26.3588 88.95C27.1088 89.25 27.9255 89.4 28.8088 89.4ZM41.852 92V74.5H49.677C51.6436 74.5 53.177 74.8917 54.277 75.675C55.377 76.4417 55.927 77.55 55.927 79C55.927 80.4333 55.402 81.5417 54.352 82.325C53.302 83.0917 51.9186 83.475 50.202 83.475L50.652 82.575C52.602 82.575 54.1103 82.9667 55.177 83.75C56.2436 84.5333 56.777 85.6667 56.777 87.15C56.777 88.6667 56.2186 89.8583 55.102 90.725C53.9853 91.575 52.3353 92 50.152 92H41.852ZM45.052 89.5H50.052C51.1853 89.5 52.0436 89.2917 52.627 88.875C53.2103 88.4417 53.502 87.7833 53.502 86.9C53.502 86.0167 53.2103 85.375 52.627 84.975C52.0436 84.5583 51.1853 84.35 50.052 84.35H45.052V89.5ZM45.052 81.975H49.402C50.452 81.975 51.252 81.7667 51.802 81.35C52.352 80.9167 52.627 80.3 52.627 79.5C52.627 78.6667 52.352 78.0417 51.802 77.625C51.252 77.2083 50.452 77 49.402 77H45.052V81.975ZM58.2543 92L66.1293 74.5H69.3293L77.2293 92H73.8293L67.0543 76.225H68.3543L61.6043 92H58.2543ZM61.8793 87.95L62.7543 85.4H72.2043L73.0793 87.95H61.8793ZM79.9129 92V74.5H87.1129C88.6629 74.5 89.9879 74.75 91.0879 75.25C92.2046 75.75 93.0629 76.4667 93.6629 77.4C94.2629 78.3333 94.5629 79.4417 94.5629 80.725C94.5629 82.0083 94.2629 83.1167 93.6629 84.05C93.0629 84.9833 92.2046 85.7 91.0879 86.2C89.9879 86.7 88.6629 86.95 87.1129 86.95H81.7129L83.1629 85.425V92H79.9129ZM83.1629 85.775L81.7129 84.2H86.9629C88.3962 84.2 89.4712 83.9 90.1879 83.3C90.9212 82.6833 91.2879 81.825 91.2879 80.725C91.2879 79.6083 90.9212 78.75 90.1879 78.15C89.4712 77.55 88.3962 77.25 86.9629 77.25H81.7129L83.1629 75.65V85.775ZM105.713 80.425C107.796 80.425 109.404 80.8917 110.538 81.825C111.671 82.7583 112.238 84.1583 112.238 86.025C112.238 87.9917 111.613 89.4833 110.363 90.5C109.129 91.5 107.404 92 105.188 92H97.6625V74.5H100.863V80.425H105.713ZM105.038 89.5C106.288 89.5 107.254 89.2083 107.938 88.625C108.638 88.0417 108.988 87.1917 108.988 86.075C108.988 84.975 108.646 84.175 107.963 83.675C107.279 83.1583 106.304 82.9 105.038 82.9H100.863V89.5H105.038ZM114.763 92V74.5H117.963V92H114.763ZM129.816 92V74.5H137.641C139.607 74.5 141.141 74.8917 142.241 75.675C143.341 76.4417 143.891 77.55 143.891 79C143.891 80.4333 143.366 81.5417 142.316 82.325C141.266 83.0917 139.882 83.475 138.166 83.475L138.616 82.575C140.566 82.575 142.074 82.9667 143.141 83.75C144.207 84.5333 144.741 85.6667 144.741 87.15C144.741 88.6667 144.182 89.8583 143.066 90.725C141.949 91.575 140.299 92 138.116 92H129.816ZM133.016 89.5H138.016C139.149 89.5 140.007 89.2917 140.591 88.875C141.174 88.4417 141.466 87.7833 141.466 86.9C141.466 86.0167 141.174 85.375 140.591 84.975C140.007 84.5583 139.149 84.35 138.016 84.35H133.016V89.5ZM133.016 81.975H137.366C138.416 81.975 139.216 81.7667 139.766 81.35C140.316 80.9167 140.591 80.3 140.591 79.5C140.591 78.6667 140.316 78.0417 139.766 77.625C139.216 77.2083 138.416 77 137.366 77H133.016V81.975ZM166.927 92L161.002 83.475L163.627 81.85L170.602 92H166.927ZM155.352 92V74.5H158.552V92H155.352ZM157.577 84.625V81.825H163.477V84.625H157.577ZM163.927 83.625L160.952 83.225L166.927 74.5H170.377L163.927 83.625ZM180.885 92.25C179.518 92.25 178.26 92.025 177.11 91.575C175.96 91.125 174.96 90.5 174.11 89.7C173.26 88.8833 172.601 87.9333 172.135 86.85C171.668 85.75 171.435 84.55 171.435 83.25C171.435 81.95 171.668 80.7583 172.135 79.675C172.601 78.575 173.26 77.625 174.11 76.825C174.96 76.0083 175.96 75.375 177.11 74.925C178.26 74.475 179.51 74.25 180.86 74.25C182.226 74.25 183.476 74.475 184.61 74.925C185.76 75.375 186.76 76.0083 187.61 76.825C188.46 77.625 189.118 78.575 189.585 79.675C190.051 80.7583 190.285 81.95 190.285 83.25C190.285 84.55 190.051 85.75 189.585 86.85C189.118 87.95 188.46 88.9 187.61 89.7C186.76 90.5 185.76 91.125 184.61 91.575C183.476 92.025 182.235 92.25 180.885 92.25ZM180.86 89.4C181.743 89.4 182.56 89.25 183.31 88.95C184.06 88.65 184.71 88.225 185.26 87.675C185.81 87.1083 186.235 86.4583 186.535 85.725C186.851 84.975 187.01 84.15 187.01 83.25C187.01 82.35 186.851 81.5333 186.535 80.8C186.235 80.05 185.81 79.4 185.26 78.85C184.71 78.2833 184.06 77.85 183.31 77.55C182.56 77.25 181.743 77.1 180.86 77.1C179.976 77.1 179.16 77.25 178.41 77.55C177.676 77.85 177.026 78.2833 176.46 78.85C175.91 79.4 175.476 80.05 175.16 80.8C174.86 81.5333 174.71 82.35 174.71 83.25C174.71 84.1333 174.86 84.95 175.16 85.7C175.476 86.45 175.91 87.1083 176.46 87.675C177.01 88.225 177.66 88.65 178.41 88.95C179.16 89.25 179.976 89.4 180.86 89.4ZM193.878 92V74.5H201.078C202.628 74.5 203.953 74.75 205.053 75.25C206.169 75.75 207.028 76.4667 207.628 77.4C208.228 78.3333 208.528 79.4417 208.528 80.725C208.528 82.0083 208.228 83.1167 207.628 84.05C207.028 84.9833 206.169 85.7 205.053 86.2C203.953 86.7 202.628 86.95 201.078 86.95H195.678L197.128 85.425V92H193.878ZM197.128 85.775L195.678 84.2H200.928C202.361 84.2 203.436 83.9 204.153 83.3C204.886 82.6833 205.253 81.825 205.253 80.725C205.253 79.6083 204.886 78.75 204.153 78.15C203.436 77.55 202.361 77.25 200.928 77.25H195.678L197.128 75.65V85.775ZM209.682 90.275L210.732 87.9C211.482 88.4167 212.299 88.8167 213.182 89.1C214.082 89.3667 214.974 89.5083 215.857 89.525C216.74 89.5417 217.54 89.4417 218.257 89.225C218.99 89.0083 219.574 88.6833 220.007 88.25C220.44 87.8167 220.657 87.275 220.657 86.625C220.657 85.8417 220.332 85.2583 219.682 84.875C219.049 84.475 218.182 84.275 217.082 84.275H213.007V81.725H216.832C217.815 81.725 218.574 81.525 219.107 81.125C219.657 80.725 219.932 80.1833 219.932 79.5C219.932 78.9333 219.749 78.4667 219.382 78.1C219.032 77.7333 218.549 77.4583 217.932 77.275C217.332 77.0917 216.649 77.0083 215.882 77.025C215.132 77.025 214.349 77.1417 213.532 77.375C212.715 77.5917 211.94 77.9167 211.207 78.35L210.182 75.725C211.282 75.1417 212.432 74.7333 213.632 74.5C214.849 74.2667 216.024 74.2 217.157 74.3C218.29 74.4 219.307 74.6583 220.207 75.075C221.124 75.4917 221.857 76.0417 222.407 76.725C222.957 77.3917 223.232 78.1833 223.232 79.1C223.232 79.9333 223.007 80.675 222.557 81.325C222.124 81.9583 221.524 82.45 220.757 82.8C219.99 83.15 219.099 83.325 218.082 83.325L218.207 82.525C219.357 82.525 220.357 82.725 221.207 83.125C222.074 83.5083 222.74 84.0417 223.207 84.725C223.69 85.4083 223.932 86.2 223.932 87.1C223.932 87.95 223.715 88.7083 223.282 89.375C222.849 90.025 222.257 90.575 221.507 91.025C220.757 91.4583 219.899 91.7833 218.932 92C217.965 92.2 216.949 92.275 215.882 92.225C214.815 92.175 213.749 91.9917 212.682 91.675C211.632 91.3583 210.632 90.8917 209.682 90.275ZM227.667 92V74.5H230.867V86.925L240.267 74.5H243.292V92H240.092V79.6L230.692 92H227.667ZM260.499 74.5H263.749V92H260.499V74.5ZM251.449 92H248.199V74.5H251.449V92ZM260.749 84.5H251.174V81.725H260.749V84.5ZM271.658 81.775H280.358V84.45H271.658V81.775ZM271.908 89.275H281.783V92H268.658V74.5H281.433V77.225H271.908V89.275Z" fill="black"/>
<path d="M295.012 87.5237C295.465 84.0557 296.088 80.308 298.693 77.679C300.902 75.4416 304.243 74.2669 307.302 75.4975C310.756 76.8959 312.172 80.3639 313.985 83.2726C315.061 85.0066 317.099 87.4677 319.535 86.9643C321.177 86.5728 321.857 84.8947 322.367 83.4963C323.273 81.2029 323.839 78.6299 325.765 76.8959C327.917 74.9941 330.975 75.2178 333.241 76.84C336.299 78.9655 337.148 82.6013 339.697 85.1744C341.509 86.9643 343.718 86.7965 345.474 84.9506C346.89 83.3844 347.286 81.3148 348.362 79.5249C350.118 76.6162 353.629 75.945 356.574 77.7349C360.029 79.9164 360.425 84.2794 359.689 87.8593C359.406 89.3136 356.971 88.978 357.027 87.5237C357.027 85.8456 357.197 84.0557 356.631 82.4335C355.895 80.3639 353.289 78.6858 351.477 80.5876C350.458 81.6504 350.174 83.3285 349.495 84.615C348.815 85.9575 347.796 87.188 346.606 88.139C341.453 91.9985 337.092 87.244 334.6 83.0488C333.24 80.7555 329.729 76.3365 327.294 80.0283C325.991 81.9301 325.708 84.3913 324.632 86.405C321.97 91.4951 316.25 90.768 312.795 86.7965C310.586 84.2794 309.51 79.4689 305.999 78.2943C300.562 76.5603 298.75 83.9438 298.297 87.5237C297.9 89.4255 294.785 89.4814 295.012 87.5237Z" fill="#1F1F1F"/>
</svg>
