<svg width="162" height="50" viewBox="0 0 162 50" fill="none" xmlns="http://www.w3.org/2000/svg">
<path d="M5.34793 35.1044L1.92048 30.2118L0.028912 10.6414C1.68465 7.85536 7.46439 2.12014 17.3374 1.4678C29.6787 0.652364 35.3875 -0.172465 49.5699 0.0313937C63.7524 0.235252 106.682 0.44087 111.672 0.44087C116.662 0.44087 141.379 -0.170538 147.953 2.88717C153.212 5.33334 158.04 10.0222 159.796 12.0608C159.272 12.4685 158.54 13.7323 159.805 15.5263C161.071 17.3202 161.744 20.0791 161.922 21.2343C161.223 21.9138 159.827 23.436 159.829 24.0883C159.831 24.9037 155.104 25.1076 157.471 26.1269C159.364 26.9423 159.843 29.3207 159.846 30.4079C158.01 31.4272 153.499 33.5066 150.138 33.6696C146.776 33.8327 143.837 34.553 142.787 34.8928L142.792 36.5238C144.368 36.7956 147.206 37.4206 145.947 37.7468C144.372 38.1545 142.793 37.1352 141.482 37.7468C140.17 38.3584 138.335 39.5815 139.912 39.9893C140.397 40.3649 140.871 40.5523 141.296 40.6252C141.817 40.5276 142.381 40.4473 142.802 40.397C142.533 40.5644 141.978 40.7422 141.296 40.6252C140.412 40.7911 139.651 41.0071 139.916 41.2124C140.337 41.5386 142.019 42.0278 142.807 42.2317L144.124 43.4548H139.922C137.611 43.4548 138.087 44.678 138.613 45.2896C138.001 45.4255 136.408 45.6157 134.937 45.2896C133.097 44.8818 133.887 45.4934 130.736 45.6973C128.215 45.8604 114.509 45.7652 110.219 45.6973C110.568 45.4255 110.794 44.8818 108.903 44.8818C106.54 44.8818 106.277 44.8818 103.389 45.2896C100.502 45.6973 52.318 44.8801 43.3887 44.8801C36.2452 44.8801 45.3232 43.8702 44.01 43.8702C39.8974 44.5497 25.652 45.868 19.5586 45.7049C11.9419 45.501 5.37064 43.4625 5.37008 43.2586C5.36964 43.0955 3.9659 41.9675 3.26408 41.4239C3.96534 41.7636 5.36732 42.2393 5.3651 41.4239C5.36288 40.6084 3.95574 38.2301 3.25245 37.1429L5.34793 35.1044Z" fill="#FDA3C4"/>
<path d="M10.3694 46.7242C9.52902 46.7242 9.49622 47.5396 9.58487 47.9473L7.87834 48.1512C7.04853 48.8307 5.54638 50.149 6.17625 49.9859C6.80611 49.8228 8.01298 49.3743 8.53768 49.1705C8.88711 48.8987 11.2668 48.3551 17.9901 48.3551C26.3941 48.3551 25.6051 47.9473 26.393 47.9473C27.1809 47.9473 11.4199 46.7242 10.3694 46.7242Z" fill="#FDA3C4"/>
<path d="M29.2833 31.6912C28.9007 31.6898 28.6818 31.479 28.6269 31.0588C28.6086 30.9001 28.5951 30.7367 28.5862 30.5687C28.5866 30.4007 28.5823 30.2326 28.5734 30.0646L28.3105 23.3296C28.2924 23.1149 28.2789 22.9048 28.2701 22.6995C28.2613 22.4848 28.2571 22.2794 28.2576 22.0834C28.2584 21.7754 28.2638 21.4768 28.2739 21.1875C28.284 20.8982 28.294 20.6089 28.3041 20.3196C28.3152 19.6196 28.3216 18.9196 28.3234 18.2196C28.3345 17.5197 28.3503 16.8197 28.3707 16.1198C28.3806 15.9238 28.395 15.7325 28.4142 15.5459C28.4334 15.35 28.4525 15.1541 28.4717 14.9581C28.5193 14.5943 28.6132 14.3473 28.7536 14.2172C28.9032 14.0871 29.1601 14.018 29.5241 14.01L31.5401 14.0174C32.072 14.038 32.3375 14.249 32.3365 14.6503C32.3362 14.7716 32.3172 14.8882 32.2796 15.0001C32.2044 15.2145 32.1618 15.429 32.152 15.6436C32.1421 15.8489 32.1369 16.0589 32.1364 16.2736C32.1157 17.0669 32.095 17.8508 32.0744 18.6254C32.0538 19.3906 32.0426 20.1233 32.0408 20.8233C32.0386 21.7099 32.0503 22.6013 32.0761 23.4974C32.0846 23.7961 32.1075 23.9969 32.1445 24.0997C32.1909 24.2025 32.3075 24.2543 32.4941 24.2549C32.5501 24.2552 32.6108 24.2554 32.6761 24.2556C32.7508 24.2466 32.8349 24.2375 32.9282 24.2285C33.1243 24.2106 33.3203 24.1973 33.5163 24.1887C33.7123 24.1801 33.9084 24.1761 34.1044 24.1769C34.179 24.1771 34.2444 24.1774 34.3004 24.1776C34.3657 24.1778 34.431 24.1734 34.4964 24.1643C34.6645 24.1369 34.7952 24.1141 34.8886 24.0957C34.9913 24.0681 35.0707 24.0311 35.1268 23.9846C35.183 23.9288 35.2158 23.8636 35.2253 23.789C35.2442 23.705 35.2538 23.5931 35.2542 23.4531L35.2427 22.445C35.244 21.9504 35.2545 21.4697 35.2744 21.0031C35.2943 20.5272 35.3187 20.0839 35.3478 19.6734C35.3767 19.2815 35.3917 18.8895 35.3927 18.4975C35.4031 18.0962 35.4088 17.6949 35.4098 17.2936L35.4145 15.4176C35.4147 15.3429 35.4056 15.2682 35.3871 15.1935C35.378 15.1188 35.3688 15.0441 35.3597 14.9694L35.3461 14.8153C35.3464 14.6847 35.3747 14.5541 35.431 14.4237C35.5624 14.1441 35.7681 14.0049 36.0481 14.0059L36.0901 14.0061C36.4074 14.0259 36.603 14.1946 36.6768 14.5122C36.6952 14.615 36.7043 14.7177 36.704 14.8203C36.7131 14.923 36.7175 15.0257 36.7173 15.1284C36.7143 16.3137 36.6973 17.485 36.6664 18.6422C36.6448 19.7901 36.6046 20.91 36.5459 22.0018L36.5301 22.7017C36.5292 23.0377 36.5424 23.3645 36.5696 23.6819C36.5788 23.7566 36.5832 23.8266 36.5831 23.8919C36.5829 23.9573 36.6014 24.018 36.6386 24.0741C36.7408 24.2519 36.7917 24.4247 36.7913 24.5927C36.791 24.7327 36.7533 24.8726 36.6782 25.0123C36.6407 25.0775 36.6219 25.1568 36.6216 25.2501C36.6215 25.3154 36.626 25.3808 36.6351 25.4461C36.6443 25.5022 36.6535 25.5629 36.6627 25.6282L37.2238 30.7263C37.233 30.7824 37.2375 30.8384 37.2374 30.8944C37.2465 30.9504 37.2511 31.0064 37.2509 31.0624C37.2318 31.249 37.1707 31.4028 37.0678 31.5238C36.9741 31.6448 36.8479 31.7143 36.6892 31.7324L36.6052 31.7321C36.4466 31.7315 36.3067 31.6843 36.1856 31.5905C36.0738 31.4968 36.0042 31.3565 35.9767 31.1698C35.9307 30.8896 35.8894 30.6048 35.8528 30.3153C35.8162 30.0352 35.7842 29.7504 35.757 29.4609C35.6841 28.7607 35.6204 28.1211 35.5658 27.5422C35.5113 26.9634 35.4522 26.3611 35.3884 25.7356C35.3701 25.5862 35.347 25.4881 35.3192 25.4413C35.3006 25.3946 35.254 25.3711 35.1793 25.3708L34.8993 25.3978C34.5072 25.4337 34.1151 25.4602 33.7231 25.4775C33.3403 25.4947 32.953 25.512 32.5609 25.5292C32.3929 25.5379 32.2855 25.5562 32.2388 25.584C32.1921 25.6025 32.1685 25.6771 32.1682 25.8078L32.3667 30.3585L32.365 31.0305C32.3172 31.4783 32.0926 31.7015 31.6913 31.7001C31.5139 31.7087 31.3413 31.7128 31.1733 31.7122C31.0053 31.7115 30.8373 31.7109 30.6693 31.7103L29.2833 31.6912ZM42.802 20.9467C42.8008 21.3947 42.8137 21.8381 42.8406 22.2769C42.8675 22.7156 42.8897 23.1591 42.9072 23.6071C42.9069 23.7285 42.93 23.8172 42.9765 23.8734C43.0231 23.9296 43.1163 23.9672 43.2563 23.9864C43.3682 23.9962 43.4802 24.0059 43.5922 24.0156C43.7042 24.0161 43.8162 24.0165 43.9282 24.0169C44.2642 24.0181 44.5956 24.0053 44.9223 23.9785C45.2584 23.9424 45.5945 23.911 45.9305 23.8842C46.0612 23.8754 46.1639 23.8617 46.2386 23.8433C46.3134 23.8156 46.3695 23.7785 46.4069 23.732C46.4444 23.6854 46.4679 23.6202 46.4774 23.5362C46.487 23.4523 46.4966 23.3403 46.5063 23.2003C46.5065 23.0977 46.5068 22.995 46.507 22.8923C46.5167 22.7804 46.5216 22.673 46.5219 22.5704C46.5234 21.9544 46.5016 21.343 46.4565 20.7361C46.4207 20.1293 46.3803 19.5178 46.3351 18.9017C46.3078 18.6309 46.2712 18.3648 46.2252 18.1033C46.1885 17.8418 46.1378 17.5756 46.0732 17.3047C45.9993 16.9964 45.8834 16.7113 45.7254 16.4494C45.5767 16.1875 45.4 15.9396 45.1952 15.7055C45.065 15.5463 44.9206 15.4431 44.762 15.3959C44.6035 15.3393 44.4356 15.3107 44.2582 15.31C44.1836 15.3098 44.1089 15.3141 44.0342 15.3232C43.9595 15.3229 43.8849 15.3273 43.8102 15.3364C43.5955 15.3543 43.4506 15.4377 43.3755 15.5868C43.3005 15.7265 43.2301 15.8709 43.1644 16.02C42.8639 16.7563 42.7126 17.535 42.7105 18.3564C42.7104 18.4124 42.7102 18.4684 42.7101 18.5244C42.7193 18.5804 42.7238 18.6364 42.7237 18.6924C42.7321 19.0378 42.7406 19.3832 42.749 19.7285C42.7669 20.0646 42.7847 20.41 42.8024 20.7647L42.802 20.9467ZM39.1405 23.8873C39.1055 22.9818 39.0704 22.0857 39.0353 21.1989C39.0096 20.3121 38.9885 19.4207 38.9721 18.5247C38.9722 18.4873 38.9676 18.45 38.9584 18.4126C38.9585 18.3753 38.9586 18.3379 38.9586 18.3006C38.9693 17.7687 39.0266 17.2509 39.1306 16.7472C39.2439 16.2436 39.4131 15.7496 39.6383 15.2651C39.9575 14.5383 40.4998 14.1436 41.2653 14.081C41.6108 14.045 41.9515 14.0229 42.2875 14.0148C42.6329 13.9974 42.9782 13.9893 43.3236 13.9906C43.7716 13.9922 44.2195 14.0079 44.6675 14.0375C44.9847 14.0574 45.2692 14.1424 45.5208 14.2927C45.7725 14.4336 46.0006 14.6257 46.2054 14.8692C46.5124 15.2436 46.7727 15.6413 46.9863 16.062C47.2 16.4735 47.3435 16.922 47.4169 17.4076C47.5455 18.2294 47.6415 19.0418 47.7048 19.8447C47.7774 20.6383 47.8127 21.4458 47.8106 22.2671C47.8099 22.5471 47.8045 22.8271 47.7945 23.107C47.7845 23.3777 47.7698 23.653 47.7504 23.9329C47.7311 24.1848 47.7118 24.4367 47.6925 24.6887C47.6826 24.9313 47.6773 25.1786 47.6766 25.4306C47.6759 25.7293 47.6845 26.0233 47.7024 26.3127C47.7297 26.5928 47.7663 26.8823 47.8122 27.1811C47.8392 27.5639 47.857 27.9326 47.8654 28.2873C47.8831 28.6514 47.9009 28.9968 47.9188 29.3235C47.9366 29.6596 47.9638 29.977 48.0004 30.2758C48.0369 30.5746 48.0922 30.8455 48.1663 31.0885C48.1848 31.1632 48.194 31.2146 48.1939 31.2426C48.1934 31.4292 48.095 31.5829 47.8987 31.7035C47.7772 31.7777 47.6605 31.8146 47.5485 31.8142C47.4178 31.8137 47.2872 31.7759 47.1567 31.7008C47.0543 31.6257 46.9752 31.5368 46.9194 31.4339C46.8637 31.331 46.8266 31.2142 46.8083 31.0835C46.7808 30.8967 46.7486 30.7053 46.7118 30.5091C46.6749 30.313 46.6568 30.1169 46.6572 29.9209C46.6492 29.4075 46.6271 28.9455 46.5908 28.5347C46.5638 28.1239 46.5321 27.7504 46.4956 27.4143C46.4685 27.0689 46.4413 26.7514 46.414 26.462C46.3868 26.1632 46.3735 25.8692 46.3742 25.5799L46.3746 25.4539C46.375 25.2672 46.2866 25.1735 46.1093 25.1729L46.0113 25.1725C45.6845 25.1993 45.3531 25.2308 45.017 25.2669C44.6903 25.303 44.3636 25.3205 44.0369 25.3193C43.8036 25.3184 43.5703 25.3036 43.337 25.2747L43.267 25.2745C43.0897 25.2738 43.0007 25.3808 43.0002 25.5955C43.0086 25.9782 43.0123 26.3609 43.0113 26.7435C43.0103 27.1169 43.0094 27.4995 43.0084 27.8915L42.959 30.7894C42.9582 31.116 42.8923 31.3491 42.7613 31.4886C42.6396 31.6282 42.4154 31.7067 42.0887 31.7242C41.6779 31.7507 41.2719 31.7632 40.8706 31.7617C40.7586 31.7613 40.6419 31.7562 40.5206 31.7464C40.4086 31.746 40.2966 31.7456 40.1846 31.7452C39.83 31.7346 39.5782 31.6543 39.4292 31.5044C39.2802 31.3639 39.2015 31.1116 39.1931 30.7476C39.1846 30.4489 39.1806 30.1548 39.1814 29.8655C39.1821 29.5762 39.1828 29.2822 39.1836 28.9835L39.2323 26.3237C39.2334 25.913 39.2251 25.507 39.2074 25.1056C39.1898 24.7042 39.1675 24.2981 39.1405 23.8873ZM58.0965 14.1148C58.7031 14.117 59.3004 14.1238 59.8884 14.1353C60.4857 14.1469 61.083 14.1537 61.6804 14.1559L61.8904 14.1567C62.0771 14.148 62.2684 14.1441 62.4644 14.1448C62.6604 14.1455 62.8517 14.1462 63.0384 14.1469C63.4211 14.1483 63.799 14.1543 64.1724 14.165C64.5457 14.1757 64.9236 14.1911 65.3062 14.2112C65.7168 14.2407 65.9357 14.4282 65.9628 14.7736L65.9627 14.8296C65.9623 14.9883 65.9153 15.1281 65.8216 15.2491C65.728 15.3608 65.6018 15.4396 65.443 15.4857C65.2936 15.5225 65.1302 15.5406 64.9529 15.5399C64.8129 15.5394 64.6822 15.5249 64.561 15.4965C64.3091 15.4489 64.0572 15.42 63.8052 15.4097C63.5533 15.3901 63.2966 15.3798 63.0353 15.3789L62.2093 15.3759C62.1066 15.3755 61.9993 15.3797 61.8873 15.3887C61.7846 15.3883 61.6819 15.3973 61.5792 15.4155C61.5138 15.434 61.4531 15.4477 61.3971 15.4569C61.3504 15.466 61.3037 15.4939 61.2569 15.5404C61.2101 15.5962 61.1772 15.6614 61.1584 15.736C61.1488 15.8106 61.144 15.8899 61.1438 15.9739L61.1564 16.534C61.1267 17.1872 61.0877 17.8404 61.0394 18.4936C61.0004 19.1374 60.9708 19.786 60.9505 20.4393C60.9303 21.0272 60.9149 21.5965 60.9041 22.1471C60.8934 22.6977 60.8873 23.2671 60.8858 23.8551L60.8801 26.095C60.9061 26.8885 60.9135 27.6725 60.9022 28.4471C60.9002 29.2218 60.9216 30.0059 60.9662 30.7994L60.9655 31.0794C60.937 31.294 60.8666 31.457 60.7543 31.5686C60.6513 31.6896 60.4925 31.7497 60.2778 31.7489L60.2358 31.7487C59.9372 31.7476 59.6385 31.7559 59.3398 31.7734C59.0411 31.791 58.7424 31.7992 58.4437 31.7981L57.9957 31.7825C57.7904 31.7724 57.6225 31.7485 57.4919 31.7107C57.3707 31.6822 57.2728 31.6305 57.1983 31.5556C57.1238 31.49 57.0727 31.3918 57.0451 31.261C57.0174 31.1396 56.9991 30.9808 56.9903 30.7848C56.9376 29.4499 56.9083 28.1198 56.9024 26.7945C56.9057 25.4598 56.9045 24.1251 56.8985 22.7904C56.8993 22.4731 56.9048 22.1418 56.915 21.7965C56.9346 21.4512 56.9448 21.1012 56.9457 20.7466L56.947 20.2286C56.9491 19.4073 56.9884 18.6001 57.0651 17.807C57.1511 17.0046 57.1952 16.1928 57.1973 15.3715L57.1981 15.0635C57.1997 14.4288 57.4991 14.1126 58.0965 14.1148ZM57.8697 31.81C57.599 31.7904 57.4032 31.7243 57.2822 31.6119C57.1705 31.4995 57.1056 31.3079 57.0876 31.0372C57.0516 30.5144 57.025 29.9776 57.0077 29.4269C56.9913 28.5121 56.9703 27.602 56.9446 26.6966C56.9189 25.7912 56.9072 24.8811 56.9095 23.9665L56.9247 17.9745C56.9352 17.4985 56.9411 17.0225 56.9423 16.5465C56.9435 16.0705 56.9774 15.5947 57.0439 15.1189C57.063 14.9603 57.0867 14.8297 57.1149 14.7272C57.1525 14.6246 57.1994 14.5408 57.2556 14.4757C57.3211 14.4106 57.4052 14.3642 57.5079 14.3366C57.62 14.2997 57.7554 14.2675 57.9142 14.2401C58.1569 14.213 58.3903 14.1905 58.6143 14.1727C58.8477 14.1549 59.0857 14.1464 59.3284 14.1473C59.5804 14.1575 59.795 14.1677 59.9723 14.1776C60.159 14.1783 60.3129 14.2022 60.4341 14.2493C60.5553 14.2964 60.6438 14.3761 60.6995 14.4883C60.7553 14.5912 60.7829 14.7406 60.7824 14.9366C60.7725 15.1606 60.758 15.3705 60.7388 15.5665C60.729 15.7531 60.7192 15.9444 60.7093 16.1404C60.6995 16.327 60.6897 16.523 60.6799 16.7283C60.6794 16.9243 60.6788 17.1436 60.6782 17.3862C60.6861 17.9463 60.6895 18.4456 60.6884 18.8843C60.6966 19.323 60.7002 19.757 60.6991 20.1863C60.7074 20.6064 60.7109 21.0544 60.7097 21.5304C60.7179 21.9971 60.7211 22.5431 60.7196 23.1684C60.7175 23.9711 60.7155 24.7691 60.7135 25.5624C60.7115 26.3558 60.7188 27.1538 60.7354 27.9565C60.7436 28.4046 60.7612 28.8386 60.7881 29.2587C60.815 29.6882 60.8279 30.1222 60.8268 30.5609C60.8263 30.7755 60.8212 30.9482 60.8115 31.0788C60.8018 31.2188 60.7689 31.3307 60.7127 31.4145C60.6565 31.4983 60.5723 31.5633 60.4602 31.6095C60.348 31.6651 60.1893 31.7112 59.9838 31.7478C59.7877 31.7844 59.5917 31.807 59.3957 31.8156C59.1996 31.8243 59.0036 31.8282 58.8076 31.8275L57.8697 31.81ZM71.8946 14.1514C72.1466 14.1523 72.3986 14.1672 72.6505 14.1961C72.9025 14.2157 73.1497 14.2446 73.3923 14.2828C73.8588 14.3406 74.227 14.5192 74.4969 14.8189C74.7762 15.1186 74.9806 15.4833 75.1102 15.9132C75.2213 16.2682 75.295 16.6278 75.3314 16.992C75.3772 17.3468 75.409 17.7063 75.4267 18.0703L75.6545 22.1172C75.6727 22.2946 75.6813 22.57 75.6804 22.9433C75.6794 23.3073 75.6785 23.6713 75.6776 24.0353C75.6768 24.334 75.6762 24.6 75.6756 24.8333C75.675 25.0573 75.67 25.2019 75.6605 25.2672C75.6203 26.3778 75.5664 27.3902 75.4988 28.3047C75.4405 29.2191 75.3682 30.1149 75.282 30.9919C75.2439 31.2904 75.1594 31.5001 75.0284 31.621C74.8974 31.7418 74.6779 31.811 74.3699 31.8285C74.1272 31.8463 73.8798 31.8594 73.6278 31.8678C73.3851 31.8856 73.1424 31.894 72.8997 31.8932C72.8064 31.8928 72.7177 31.8925 72.6337 31.8922C72.5497 31.8919 72.461 31.8869 72.3677 31.8772C72.0411 31.848 71.8127 31.7772 71.6823 31.6647C71.5612 31.5616 71.501 31.37 71.5017 31.09L71.5163 30.8661C71.5547 30.4275 71.5932 29.9937 71.6316 29.5645C71.67 29.1353 71.7038 28.6967 71.7329 28.2489C71.7717 27.689 71.8057 27.1338 71.8351 26.5832C71.8646 26.0233 71.894 25.4634 71.9234 24.9035L71.924 24.6515C71.9244 24.5022 71.9202 24.3155 71.9114 24.0915C71.912 23.8581 71.908 23.6248 71.8992 23.3914C71.8998 23.1488 71.8957 22.9201 71.887 22.7054C71.8875 22.4814 71.8833 22.304 71.8743 22.1733C71.8294 21.4638 71.7892 20.759 71.7537 20.0589C71.7181 19.3494 71.6779 18.6306 71.6331 17.9024C71.6149 17.7064 71.5921 17.5103 71.5646 17.3142C71.5464 17.1181 71.5236 16.922 71.4961 16.7259C71.487 16.6512 71.4731 16.5812 71.4546 16.5158C71.4361 16.441 71.4177 16.3663 71.3992 16.2916C71.3436 16.1327 71.2646 15.9924 71.1623 15.8707C71.0693 15.7397 70.9388 15.6599 70.7709 15.6312L70.6729 15.6169C70.5236 15.6163 70.3974 15.6672 70.2945 15.7695C70.2009 15.8718 70.112 15.9882 70.0276 16.1185C69.8027 16.4724 69.6291 16.8451 69.5068 17.2366C69.3845 17.6282 69.2715 18.0244 69.1678 18.4254C68.9791 19.2274 68.8464 20.0249 68.7697 20.8179C68.6931 21.611 68.6444 22.4135 68.6236 23.2254C68.6233 23.3468 68.623 23.4681 68.6227 23.5894C68.6224 23.7014 68.6128 23.818 68.5938 23.9393C68.5271 24.4804 68.4791 25.0262 68.4497 25.5768C68.4203 26.1274 68.4002 26.6826 68.3895 27.2426C68.3787 27.7932 68.3726 28.3532 68.3712 28.9225C68.3698 29.4919 68.3636 30.0705 68.3528 30.6585C68.3526 30.7611 68.3476 30.8591 68.3381 30.9524C68.3378 31.0551 68.3282 31.1577 68.3093 31.2603C68.2621 31.4468 68.1825 31.5865 68.0702 31.6794C67.9673 31.7817 67.8365 31.8326 67.6778 31.832L67.5938 31.8317C67.2206 31.7837 67.0346 31.545 67.0357 31.1156C67.0464 30.5463 67.0571 30.0097 67.0677 29.5058C67.0783 29.0111 67.0842 28.5211 67.0854 28.0358C67.0966 27.3265 67.117 26.6219 67.1468 25.922C67.1766 25.2128 67.2297 24.5036 67.3062 23.7946C67.3541 23.3094 67.3786 22.8289 67.3798 22.3529C67.3904 21.8676 67.4196 21.3777 67.4676 20.8832C67.544 20.1834 67.6438 19.4885 67.7668 18.7983C67.8993 18.1081 68.0783 17.4274 68.304 16.7562C68.3887 16.4952 68.492 16.2482 68.6139 16.0153C68.7358 15.7731 68.8671 15.5356 69.0077 15.3028C69.1764 15.0141 69.387 14.7955 69.6394 14.6471C69.9011 14.4894 70.186 14.3738 70.4942 14.3002C70.7277 14.2451 70.9565 14.2086 71.1805 14.1907C71.4139 14.1636 71.6519 14.1505 71.8946 14.1514ZM81.2197 21.0876C81.2185 21.5356 81.2314 21.979 81.2583 22.4177C81.2852 22.8565 81.3074 23.2999 81.3249 23.748C81.3246 23.8693 81.3477 23.9581 81.3943 24.0143C81.4408 24.0704 81.534 24.1081 81.674 24.1273C81.786 24.137 81.8979 24.1468 82.0099 24.1565C82.1219 24.1569 82.2339 24.1573 82.3459 24.1577C82.6819 24.159 83.0133 24.1462 83.34 24.1194C83.6761 24.0833 84.0122 24.0518 84.3482 24.0251C84.4789 24.0162 84.5816 24.0026 84.6563 23.9842C84.7311 23.9565 84.7872 23.9194 84.8246 23.8728C84.8621 23.8263 84.8856 23.7611 84.8951 23.6771C84.9047 23.5931 84.9143 23.4812 84.924 23.3412C84.9242 23.2385 84.9245 23.1359 84.9248 23.0332C84.9344 22.9212 84.9393 22.8139 84.9396 22.7112C84.9411 22.0952 84.9193 21.4838 84.8742 20.877C84.8384 20.2702 84.798 19.6587 84.7529 19.0425C84.7255 18.7718 84.6889 18.5056 84.6429 18.2441C84.6062 17.9827 84.5555 17.7165 84.4909 17.4456C84.417 17.1373 84.3011 16.8522 84.1431 16.5903C83.9944 16.3284 83.8177 16.0804 83.6129 15.8463C83.4827 15.6872 83.3383 15.584 83.1797 15.5367C83.0212 15.4802 82.8533 15.4515 82.6759 15.4509C82.6013 15.4506 82.5266 15.455 82.4519 15.4641C82.3772 15.4638 82.3026 15.4682 82.2279 15.4773C82.0132 15.4951 81.8683 15.5786 81.7932 15.7277C81.7182 15.8674 81.6479 16.0118 81.5821 16.1609C81.2816 16.8971 81.1303 17.6759 81.1282 18.4972C81.1281 18.5532 81.1279 18.6092 81.1278 18.6652C81.137 18.7213 81.1415 18.7773 81.1414 18.8333C81.1498 19.1787 81.1583 19.524 81.1668 19.8694C81.1846 20.2055 81.2024 20.5509 81.2201 20.9056L81.2197 21.0876ZM77.5582 24.0282C77.5232 23.1227 77.4881 22.2266 77.453 21.3398C77.4273 20.453 77.4062 19.5616 77.3898 18.6655C77.3899 18.6282 77.3853 18.5909 77.3761 18.5535C77.3762 18.5161 77.3763 18.4788 77.3764 18.4415C77.387 17.9095 77.4444 17.3917 77.5483 16.8881C77.6616 16.3845 77.8308 15.8905 78.056 15.406C78.3752 14.6791 78.9176 14.2844 79.683 14.2219C80.0285 14.1858 80.3692 14.1638 80.7052 14.1557C81.0506 14.1383 81.396 14.1302 81.7413 14.1315C82.1893 14.1331 82.6372 14.1487 83.0852 14.1784C83.4025 14.1982 83.6869 14.2833 83.9385 14.4335C84.1902 14.5744 84.4183 14.7666 84.6231 15.01C84.9301 15.3845 85.1904 15.7821 85.404 16.2029C85.6177 16.6144 85.7612 17.0629 85.8346 17.5485C85.9632 18.3703 86.0592 19.1827 86.1225 19.9856C86.1951 20.7792 86.2304 21.5866 86.2283 22.408C86.2276 22.688 86.2223 22.9679 86.2122 23.2479C86.2022 23.5185 86.1875 23.7938 86.1681 24.0738C86.1488 24.3257 86.1295 24.5776 86.1102 24.8295C86.1003 25.0722 86.095 25.3195 86.0943 25.5715C86.0936 25.8702 86.1022 26.1642 86.1201 26.4536C86.1474 26.7337 86.184 27.0232 86.2299 27.322C86.2569 27.7048 86.2747 28.0735 86.2831 28.4282C86.3008 28.7923 86.3186 29.1377 86.3365 29.4644C86.3543 29.8005 86.3815 30.1179 86.4181 30.4167C86.4546 30.7155 86.51 30.9864 86.584 31.2293C86.6025 31.3041 86.6117 31.3554 86.6116 31.3834C86.6111 31.5701 86.5128 31.7237 86.3165 31.8443C86.1949 31.9186 86.0782 31.9555 85.9662 31.9551C85.8355 31.9546 85.7049 31.9168 85.5745 31.8416C85.472 31.7666 85.3929 31.6776 85.3371 31.5748C85.2814 31.4719 85.2444 31.3551 85.226 31.2243C85.1985 31.0376 85.1663 30.8461 85.1295 30.65C85.0926 30.4539 85.0745 30.2578 85.075 30.0618C85.0669 29.5484 85.0448 29.0863 85.0085 28.6755C84.9815 28.2648 84.9498 27.8913 84.9133 27.5552C84.8862 27.2097 84.859 26.8923 84.8317 26.6029C84.8045 26.3041 84.7912 26.0101 84.792 25.7207L84.7923 25.5947C84.7927 25.4081 84.7043 25.3144 84.527 25.3137L84.429 25.3134C84.1022 25.3402 83.7708 25.3716 83.4347 25.4077C83.108 25.4439 82.7813 25.4613 82.4546 25.4601C82.2213 25.4593 81.988 25.4444 81.7547 25.4156L81.6847 25.4153C81.5074 25.4147 81.4184 25.5217 81.4179 25.7363C81.4263 26.119 81.43 26.5017 81.429 26.8844C81.4281 27.2577 81.4271 27.6404 81.4261 28.0324L81.3768 30.9302C81.3759 31.2569 81.31 31.49 81.179 31.6295C81.0573 31.7691 80.8331 31.8476 80.5064 31.865C80.0956 31.8915 79.6896 31.904 79.2883 31.9026C79.1763 31.9022 79.0596 31.8971 78.9383 31.8873C78.8263 31.8869 78.7143 31.8865 78.6023 31.8861C78.2477 31.8754 77.9959 31.7952 77.8469 31.6453C77.698 31.5047 77.6193 31.2525 77.6108 30.8884C77.6023 30.5897 77.5983 30.2957 77.5991 30.0064C77.5998 29.717 77.6006 29.423 77.6013 29.1244L77.65 26.4645C77.6511 26.0539 77.6428 25.6478 77.6251 25.2464C77.6075 24.845 77.5852 24.439 77.5582 24.0282ZM93.0289 30.567C93.2155 30.5676 93.3976 30.5356 93.5751 30.471C93.7526 30.4063 93.9301 30.3323 94.1077 30.2489C94.3413 30.1378 94.5516 30.0079 94.7387 29.8592C94.9257 29.7199 95.0895 29.5338 95.2301 29.301C95.3707 29.0775 95.4787 28.7979 95.5542 28.4622C95.6391 28.1265 95.6914 27.7114 95.7114 27.2168L95.698 26.9787C95.6888 26.9133 95.6843 26.8527 95.6844 26.7967C95.6846 26.7313 95.6848 26.6613 95.685 26.5867C95.6851 26.5213 95.6853 26.4607 95.6854 26.4047C95.6856 26.3393 95.6811 26.274 95.6719 26.2086C95.6455 25.5925 95.4083 25.2836 94.9603 25.282C94.8483 25.2816 94.7082 25.3044 94.5401 25.3505C94.2132 25.4519 93.8816 25.5394 93.5454 25.6128C93.2093 25.6769 92.8731 25.7317 92.537 25.7771C92.397 25.7953 92.3035 25.8369 92.2567 25.9021C92.2192 25.958 92.2003 26.0466 92.2 26.1679L92.1242 28.4776L92.1382 28.4777C92.1376 28.7203 92.1369 28.963 92.1363 29.2057C92.1357 29.4483 92.1398 29.691 92.1485 29.9337C92.1573 30.1391 92.1943 30.2746 92.2595 30.3401C92.3246 30.415 92.4598 30.4762 92.665 30.5236C92.7862 30.5521 92.9075 30.5665 93.0289 30.567ZM92.2887 24.3342C92.4195 24.2693 92.5456 24.2138 92.6671 24.1676C92.7979 24.1121 92.9287 24.0519 93.0595 23.987C93.452 23.8018 93.7746 23.5603 94.0274 23.2626C94.2895 22.9555 94.4724 22.5922 94.5761 22.1726C94.6988 21.6597 94.7934 21.1514 94.86 20.6476C94.936 20.1345 94.9746 19.6167 94.9759 19.094C94.9767 18.8047 94.9634 18.5153 94.9361 18.2259C94.9089 17.9364 94.8723 17.6423 94.8264 17.3435C94.7895 17.1567 94.7386 16.9791 94.6737 16.8109C94.6088 16.6333 94.5253 16.465 94.423 16.306C94.2649 16.0907 94.0786 15.9314 93.8642 15.8279C93.6591 15.7152 93.4353 15.6584 93.1926 15.6575C92.95 15.6566 92.7305 15.7024 92.5343 15.795C92.4595 15.8321 92.4081 15.8739 92.38 15.9205C92.3519 15.9577 92.3377 16.0137 92.3375 16.0883L92.2361 17.432C92.2167 17.7492 92.2019 18.0618 92.1918 18.3698C92.191 18.6778 92.1902 18.9905 92.1894 19.3078C92.1876 20.0265 92.1951 20.7405 92.212 21.4499C92.2288 22.1593 92.2363 22.878 92.2345 23.606L92.2332 24.138C92.2331 24.1567 92.2377 24.1847 92.2469 24.222C92.2562 24.2501 92.2701 24.2875 92.2887 24.3342ZM91.6254 31.9338C91.3361 31.9328 91.0468 31.9224 90.7575 31.9026C90.4775 31.8829 90.1976 31.8399 89.9178 31.7736C89.7033 31.7261 89.5028 31.66 89.3163 31.5753C89.1392 31.4907 88.9574 31.406 88.771 31.3213C88.5845 31.2273 88.4635 31.0962 88.408 30.928C88.3617 30.7692 88.3388 30.5964 88.3393 30.4098C88.331 29.9897 88.3227 29.5697 88.3145 29.1497C88.3062 28.739 88.3025 28.3236 88.3036 27.9036L88.4271 23.368C88.4284 22.836 88.4251 22.304 88.4171 21.772C88.4092 21.2306 88.3965 20.6939 88.3792 20.1618L88.3673 19.3358C88.369 18.6825 88.3893 18.0292 88.4283 17.376C88.4672 16.7228 88.5016 16.0696 88.5312 15.4164C88.5412 15.1737 88.5976 14.9919 88.7006 14.871C88.8129 14.7407 89.0045 14.6388 89.2754 14.5651C89.5929 14.4823 89.9104 14.4088 90.2279 14.3446C90.5454 14.2804 90.8675 14.2396 91.1943 14.2221L91.7683 14.2102C92.3189 14.2122 92.8695 14.2563 93.42 14.3423C94.129 14.4476 94.707 14.7203 95.1539 15.1606C95.6008 15.601 95.9027 16.1761 96.0595 16.886C96.1333 17.2316 96.1838 17.5771 96.2109 17.9225C96.2474 18.2587 96.2652 18.5994 96.2643 18.9447C96.2634 19.2994 96.2438 19.6587 96.2056 20.0225C96.1767 20.3864 96.1384 20.7503 96.0908 21.1141C96.0433 21.4313 95.9912 21.7484 95.9344 22.0656C95.8776 22.3733 95.7975 22.6764 95.6941 22.9747C95.619 23.1424 95.5346 23.3054 95.4409 23.4638C95.3471 23.6221 95.2487 23.785 95.1456 23.9527C95.2575 23.9904 95.3601 24.0188 95.4534 24.0378C95.5467 24.0568 95.6353 24.0851 95.7192 24.1228C96.0548 24.2827 96.3249 24.4937 96.5296 24.7558C96.7436 25.0085 96.8735 25.3217 96.9192 25.6952C96.9742 26.0874 97.0012 26.4842 97.0002 26.8855C97 26.9695 96.995 27.1001 96.9852 27.2774C96.9754 27.4547 96.961 27.6414 96.9418 27.8373C96.932 28.0332 96.9175 28.2152 96.8984 28.3831C96.8793 28.5604 96.865 28.691 96.8554 28.775C96.8079 29.1295 96.709 29.4511 96.559 29.7399C96.4182 30.0287 96.2216 30.294 95.969 30.5357C95.52 30.9354 95.0431 31.2603 94.5385 31.5105C94.0339 31.7606 93.4782 31.8939 92.8715 31.9104C92.6568 31.9189 92.4468 31.9228 92.2414 31.9221C92.0454 31.9307 91.8401 31.9346 91.6254 31.9338ZM99.7203 31.9495C99.3377 31.9481 99.1189 31.7373 99.0639 31.3171C99.0457 31.1584 99.0321 30.995 99.0232 30.8269C99.0236 30.6589 99.0194 30.4909 99.0105 30.3229L98.7475 23.5879C98.7294 23.3731 98.7159 23.1631 98.7071 22.9577C98.6983 22.743 98.6942 22.5377 98.6947 22.3417C98.6955 22.0337 98.7009 21.735 98.7109 21.4457C98.721 21.1564 98.7311 20.8671 98.7411 20.5778C98.7522 19.8779 98.7587 19.1779 98.7605 18.4779C98.7716 17.7779 98.7873 17.078 98.8078 16.3781C98.8176 16.1821 98.8321 15.9908 98.8512 15.8042C98.8704 15.6083 98.8895 15.4123 98.9087 15.2164C98.9563 14.8526 99.0503 14.6056 99.1906 14.4754C99.3403 14.3453 99.5971 14.2763 99.9611 14.2683L101.977 14.2757C102.509 14.2963 102.775 14.5073 102.774 14.9086C102.773 15.0299 102.754 15.1465 102.717 15.2584C102.641 15.4728 102.599 15.6873 102.589 15.9019C102.579 16.1072 102.574 16.3172 102.573 16.5319C102.553 17.3251 102.532 18.1091 102.511 18.8836C102.491 19.6489 102.48 20.3815 102.478 21.0815C102.476 21.9682 102.487 22.8596 102.513 23.7557C102.522 24.0544 102.545 24.2551 102.582 24.3579C102.628 24.4608 102.745 24.5125 102.931 24.5132C102.987 24.5134 103.048 24.5137 103.113 24.5139C103.188 24.5048 103.272 24.4958 103.365 24.4868C103.561 24.4689 103.757 24.4556 103.953 24.447C104.149 24.4384 104.345 24.4344 104.541 24.4351C104.616 24.4354 104.681 24.4356 104.737 24.4358C104.803 24.4361 104.868 24.4317 104.933 24.4226C105.101 24.3952 105.232 24.3723 105.326 24.354C105.428 24.3264 105.508 24.2893 105.564 24.2429C105.62 24.1871 105.653 24.1219 105.662 24.0472C105.681 23.9633 105.691 23.8513 105.691 23.7113L105.68 22.7033C105.681 22.2086 105.692 21.728 105.711 21.2614C105.731 20.7855 105.756 20.3422 105.785 19.9317C105.814 19.5398 105.829 19.1478 105.83 18.7558C105.84 18.3545 105.846 17.9532 105.847 17.5519L105.852 15.6759C105.852 15.6012 105.843 15.5265 105.824 15.4518C105.815 15.3771 105.806 15.3024 105.797 15.2277L105.783 15.0736C105.783 14.943 105.812 14.8124 105.868 14.6819C105.999 14.4024 106.205 14.2632 106.485 14.2642L106.527 14.2643C106.844 14.2842 107.04 14.4529 107.114 14.7705C107.132 14.8732 107.141 14.9759 107.141 15.0786C107.15 15.1813 107.155 15.284 107.154 15.3867C107.151 16.572 107.134 17.7433 107.103 18.9005C107.082 20.0484 107.042 21.1683 106.983 22.2601L106.967 22.96C106.966 23.296 106.979 23.6227 107.007 23.9402C107.016 24.0149 107.02 24.0849 107.02 24.1502C107.02 24.2155 107.038 24.2763 107.076 24.3324C107.178 24.5101 107.229 24.683 107.228 24.851C107.228 24.991 107.19 25.1308 107.115 25.2706C107.078 25.3358 107.059 25.415 107.059 25.5084C107.059 25.5737 107.063 25.639 107.072 25.7044C107.081 25.7604 107.091 25.8211 107.1 25.8865L107.661 30.9846C107.67 31.0406 107.675 31.0967 107.674 31.1527C107.684 31.2087 107.688 31.2647 107.688 31.3207C107.669 31.5073 107.608 31.6611 107.505 31.782C107.411 31.903 107.285 31.9726 107.126 31.9907L107.042 31.9903C106.884 31.9898 106.744 31.9426 106.623 31.8488C106.511 31.7551 106.441 31.6148 106.414 31.428C106.368 31.1479 106.326 30.863 106.29 30.5736C106.253 30.2934 106.221 30.0087 106.194 29.7192C106.121 29.0189 106.057 28.3794 106.003 27.8005C105.948 27.2216 105.889 26.6194 105.825 25.9938C105.807 25.8444 105.784 25.7464 105.756 25.6996C105.738 25.6529 105.691 25.6293 105.616 25.6291L105.336 25.656C104.944 25.6919 104.552 25.7185 104.16 25.7357C103.777 25.753 103.39 25.7702 102.998 25.7875C102.83 25.7962 102.723 25.8145 102.676 25.8423C102.629 25.8608 102.606 25.9354 102.605 26.066L102.804 30.6168L102.802 31.2888C102.754 31.7366 102.53 31.9598 102.128 31.9583C101.951 31.967 101.778 31.971 101.61 31.9704C101.442 31.9698 101.274 31.9692 101.106 31.9686L99.7203 31.9495ZM117.176 14.6114C117.213 14.6302 117.241 14.6536 117.26 14.6817C117.39 14.8315 117.455 15.0698 117.454 15.3964L117.438 15.9844C117.437 16.311 117.441 16.633 117.45 16.9504C117.468 17.2678 117.485 17.5899 117.503 17.9166C117.503 17.9819 117.508 18.094 117.516 18.2527C117.516 18.3833 117.516 18.57 117.515 18.8127C117.524 19.046 117.528 19.3494 117.527 19.7227C117.526 20.096 117.52 20.5534 117.509 21.0947C117.508 21.6267 117.502 22.2566 117.49 22.9846C117.479 23.7126 117.463 24.5525 117.442 25.5044C117.43 26.4471 117.414 27.5157 117.392 28.7103C117.382 29.0182 117.358 29.3215 117.32 29.62C117.282 29.9279 117.225 30.231 117.149 30.5294C117.102 30.7066 117.032 30.8603 116.938 30.9906C116.854 31.121 116.746 31.2419 116.615 31.3534C116.353 31.5671 116.078 31.7341 115.788 31.8544C115.498 31.984 115.186 32.0482 114.85 32.047L114.71 32.0465C114.43 32.0361 114.15 32.0257 113.87 32.0154C113.599 32.0144 113.324 32.004 113.044 31.9843C112.764 31.9647 112.484 31.931 112.204 31.8833C111.933 31.8356 111.663 31.76 111.393 31.6563C110.805 31.4301 110.321 31.1204 109.939 30.727C109.567 30.3429 109.33 29.8287 109.229 29.1843C109.183 28.9135 109.146 28.6474 109.119 28.3859C109.101 28.1245 109.092 27.8632 109.093 27.6018C109.093 27.4432 109.098 27.2892 109.108 27.1399C109.118 26.9906 109.137 26.8367 109.165 26.6781C109.203 26.4636 109.227 26.2537 109.237 26.0484C109.256 25.8338 109.275 25.6192 109.294 25.4046C109.304 25.3486 109.309 25.2926 109.309 25.2366C109.309 25.1713 109.318 25.1153 109.337 25.0687C109.384 24.8916 109.464 24.7518 109.576 24.6496C109.689 24.5473 109.824 24.4965 109.983 24.4971L110.053 24.4973C110.211 24.5166 110.342 24.5871 110.444 24.7088C110.556 24.8212 110.611 24.9707 110.611 25.1574L110.611 25.2134C110.592 25.4467 110.572 25.6799 110.553 25.9132C110.534 26.1371 110.505 26.3657 110.467 26.5989C110.448 26.7761 110.429 26.9534 110.41 27.1307C110.4 27.2986 110.395 27.4713 110.395 27.6486C110.394 27.8819 110.403 28.1153 110.421 28.3487C110.448 28.5821 110.485 28.8156 110.531 29.0491C110.642 29.5909 110.925 29.9839 111.382 30.2282C111.522 30.3034 111.662 30.3646 111.802 30.4118C111.951 30.4683 112.105 30.5156 112.263 30.5535C112.375 30.5819 112.483 30.5963 112.585 30.5967C112.837 30.5976 113.043 30.519 113.202 30.3609C113.37 30.2122 113.478 30.0026 113.525 29.7321C113.554 29.5642 113.578 29.3963 113.597 29.2284C113.616 29.0604 113.63 28.8925 113.64 28.7245C113.643 27.6232 113.65 26.5079 113.662 25.3786C113.664 24.9026 113.665 24.3986 113.666 23.8666C113.668 23.3346 113.674 22.7979 113.684 22.2566L113.685 22.0186C113.48 22.0366 113.279 22.0498 113.083 22.0584C112.849 22.0669 112.611 22.0707 112.369 22.0698C112.117 22.0689 111.865 22.0633 111.613 22.053C111.361 22.0428 111.114 22.0279 110.871 22.0083C110.404 21.9786 110.031 21.8979 109.752 21.7662C109.481 21.6346 109.281 21.4798 109.151 21.302C109.039 21.1429 108.96 20.9886 108.914 20.8391C108.877 20.6803 108.849 20.5216 108.831 20.3628L108.598 18.598C108.579 18.5232 108.57 18.4065 108.57 18.2479C108.571 18.0892 108.571 17.9305 108.572 17.7719C108.572 17.6412 108.572 17.5292 108.573 17.4359C108.573 17.3332 108.578 17.2679 108.587 17.2399C108.626 16.7547 108.673 16.3162 108.73 15.9244C108.797 15.5233 108.872 15.1316 108.957 14.7493C108.995 14.6187 109.079 14.5304 109.21 14.4842C109.341 14.4287 109.56 14.3968 109.868 14.3886C110.111 14.3802 110.354 14.3764 110.596 14.3773C110.848 14.3689 111.096 14.3651 111.338 14.366L111.87 14.3679C112.197 14.3878 112.421 14.4213 112.542 14.4684C112.673 14.5155 112.738 14.5998 112.737 14.7211L112.723 14.8191C112.685 15.0056 112.648 15.1921 112.61 15.3787C112.572 15.5652 112.539 15.7564 112.51 15.9523C112.472 16.1948 112.439 16.4374 112.41 16.6799C112.382 16.9132 112.353 17.1557 112.325 17.4076L112.324 17.5056C112.324 17.571 112.324 17.655 112.324 17.7576C112.333 17.8603 112.337 17.963 112.337 18.0657C112.346 18.1684 112.35 18.2664 112.35 18.3597C112.359 18.4531 112.368 18.5278 112.378 18.5838C112.424 18.892 112.465 19.2001 112.501 19.5083C112.538 19.8164 112.579 20.1246 112.625 20.4327C112.643 20.5261 112.662 20.6149 112.68 20.6989C112.708 20.783 112.736 20.8672 112.764 20.9513C112.773 20.9793 112.787 21.012 112.805 21.0494C112.824 21.0775 112.843 21.1055 112.861 21.1336C112.917 21.2085 112.991 21.2741 113.085 21.3304C113.187 21.3775 113.322 21.4106 113.49 21.4299L113.686 21.4306L113.692 19.1346C113.694 18.4067 113.696 17.7673 113.697 17.2167C113.699 16.6567 113.695 16.246 113.686 15.9846L113.687 15.5926C113.687 15.5179 113.688 15.4526 113.688 15.3966C113.688 15.3313 113.693 15.266 113.702 15.2007C113.76 14.6502 114.05 14.3713 114.572 14.3638L115.272 14.3524C115.692 14.354 116.112 14.3695 116.532 14.399L116.644 14.3994C116.943 14.4192 117.12 14.4899 117.176 14.6114ZM125.566 30.6863C125.659 30.6866 125.743 30.5469 125.819 30.2672C125.847 30.146 125.871 30.0247 125.89 29.9034C125.909 29.7915 125.928 29.6702 125.947 29.5396C126.099 28.4949 126.209 27.4406 126.277 26.3768C126.354 25.3131 126.403 24.226 126.425 23.1154L126.425 23.0174C126.428 21.8507 126.384 20.7305 126.294 19.6569C126.203 18.5739 126.08 17.4954 125.924 16.4215C125.915 16.3748 125.905 16.3327 125.896 16.2954C125.896 16.258 125.892 16.216 125.883 16.1693C125.808 15.9171 125.715 15.7907 125.603 15.7903C125.557 15.7901 125.51 15.818 125.463 15.8738C125.416 15.9203 125.374 15.9948 125.337 16.0973C125.271 16.3118 125.219 16.5356 125.181 16.7688C125.143 17.002 125.11 17.2398 125.081 17.4824C124.995 18.2754 124.932 19.0732 124.893 19.8757C124.854 20.6689 124.824 21.4761 124.803 22.2974C124.793 22.484 124.788 22.6707 124.788 22.8574C124.787 23.044 124.787 23.2307 124.786 23.4174C124.783 24.4907 124.813 25.5221 124.876 26.5117C124.948 27.5013 125.044 28.4863 125.163 29.4668C125.181 29.6255 125.199 29.7749 125.218 29.915C125.245 30.0644 125.282 30.2045 125.329 30.3354C125.412 30.569 125.491 30.686 125.566 30.6863ZM121.669 21.5439C121.699 20.872 121.742 20.2095 121.8 19.5564C121.867 18.754 121.972 17.9517 122.114 17.1495C122.265 16.3194 122.533 15.597 122.918 14.9824C123.002 14.8428 123.091 14.7311 123.184 14.6474C123.278 14.5638 123.39 14.5128 123.521 14.4947C123.707 14.4767 123.89 14.4587 124.067 14.4407C124.244 14.4226 124.426 14.414 124.613 14.4147C124.828 14.4154 125.038 14.4349 125.243 14.473C125.457 14.5018 125.667 14.5585 125.872 14.6433C126.133 14.7469 126.343 14.9203 126.501 15.1636C126.659 15.4068 126.78 15.7059 126.863 16.0609C127.047 16.8829 127.209 17.7095 127.347 18.5407C127.494 19.3626 127.594 20.2076 127.648 21.0758C127.666 21.3559 127.684 21.636 127.702 21.916C127.72 22.1868 127.729 22.4575 127.728 22.7281L127.727 23.0361C127.687 24.2587 127.604 25.4484 127.48 26.6052C127.356 27.7528 127.162 28.8861 126.897 30.0051C126.86 30.1637 126.822 30.3129 126.784 30.4527C126.747 30.6019 126.7 30.7464 126.643 30.8862C126.418 31.5387 126.043 31.9153 125.52 32.0161C125.352 32.0528 125.184 32.0755 125.016 32.0842C124.858 32.093 124.694 32.0971 124.526 32.0965L123.644 32.0792C123.486 32.0786 123.346 32.0268 123.225 31.9237C123.113 31.8299 123.006 31.7129 122.904 31.5725C122.727 31.3385 122.587 31.0813 122.485 30.801C122.393 30.5206 122.314 30.2263 122.25 29.9181C122.038 28.8533 121.877 27.784 121.768 26.7103C121.704 26.0941 121.659 25.4639 121.633 24.8198C121.577 24.8289 121.521 24.8334 121.465 24.8332L121.297 24.8326C121.147 24.832 120.998 24.8175 120.849 24.7889L120.846 25.7829C120.844 26.5763 120.851 27.3743 120.868 28.177C120.867 28.625 120.875 29.059 120.893 29.4791C120.91 29.9085 120.919 30.3425 120.918 30.7812C120.917 30.9959 120.912 31.1685 120.902 31.2992C120.893 31.4391 120.874 31.5511 120.845 31.635C120.817 31.7189 120.77 31.784 120.705 31.8304C120.639 31.8862 120.551 31.9325 120.438 31.9695C120.326 32.0064 120.214 32.0293 120.102 32.0382C119.99 32.0472 119.878 32.0514 119.766 32.051L119.234 32.035C119.085 32.0158 118.978 31.9501 118.913 31.8379C118.848 31.7256 118.811 31.5342 118.802 31.2635C118.785 30.7407 118.772 30.204 118.764 29.6533C118.748 28.7386 118.732 27.8285 118.715 26.9231C118.708 26.0177 118.706 25.1077 118.708 24.1931L118.723 18.2011C118.734 17.7251 118.74 17.2491 118.741 16.7731C118.742 16.2971 118.762 15.8212 118.801 15.3454C118.81 15.1867 118.825 15.0561 118.844 14.9535C118.862 14.8509 118.886 14.767 118.914 14.7018C118.952 14.6366 118.998 14.5901 119.055 14.5623C119.12 14.5252 119.195 14.4928 119.279 14.4651C119.419 14.4376 119.554 14.4148 119.685 14.3966C119.816 14.3784 119.946 14.3696 120.077 14.37C120.226 14.3799 120.352 14.3897 120.455 14.3994C120.558 14.3998 120.642 14.4234 120.707 14.4703C120.772 14.5172 120.818 14.5968 120.846 14.7089C120.883 14.8117 120.902 14.9611 120.901 15.1571C120.9 15.3811 120.895 15.591 120.885 15.787C120.876 15.9736 120.866 16.1649 120.856 16.3609C120.856 16.5476 120.85 16.7435 120.841 16.9488C120.84 17.1448 120.839 17.3642 120.839 17.6068C120.847 18.1669 120.85 18.6662 120.849 19.1049C120.848 19.5436 120.852 19.9729 120.86 20.3929L120.857 21.6109C121.081 21.5651 121.319 21.5426 121.571 21.5436L121.669 21.5439Z" fill="white"/>
</svg>
