<svg width="588" height="183" viewBox="0 0 588 183" fill="none" xmlns="http://www.w3.org/2000/svg">
<path d="M48.3547 124.618C55.454 146.426 49.7351 162.15 45.9883 167.286C69.1798 179.139 88.7812 172.224 95.6829 167.286C100.416 128.767 83.2591 103.876 63.1444 89.061C43.0297 74.2457 2.20916 72.4679 1.02594 84.3201C-0.157275 96.1723 39.4806 97.3575 48.3547 124.618Z" fill="white"/>
<path d="M269.025 49.355C189.039 44.14 167.465 128.567 166.676 171.433C175.55 175.58 226.429 192.175 225.837 173.804C225.245 155.433 230.57 109.209 269.025 109.209C299.788 109.209 313.001 150.692 315.762 171.433C346.999 186.603 364.668 174.989 369.598 167.286C369.401 130.148 349.01 54.57 269.025 49.355Z" fill="white"/>
<path d="M505.668 32.1699C482.004 41.1776 454.79 126 444.141 167.286C456.446 187.197 492.259 178.347 508.626 171.433C509.021 167.68 512.768 154.485 524.6 131.729C539.39 103.284 557.138 119.284 576.07 109.209C595.001 99.1344 585.536 49.355 576.07 42.2443C566.604 35.1336 535.249 20.9103 505.668 32.1699Z" fill="white"/>
<path d="M48.3547 124.618C55.454 146.426 49.7351 162.15 45.9883 167.286C69.1798 179.139 88.7812 172.224 95.6829 167.286C100.416 128.767 83.2591 103.876 63.1444 89.061C43.0297 74.2457 2.20916 72.4679 1.02594 84.3201C-0.157275 96.1723 39.4806 97.3575 48.3547 124.618Z" stroke="black"/>
<path d="M269.025 49.355C189.039 44.14 167.465 128.567 166.676 171.433C175.55 175.58 226.429 192.175 225.837 173.804C225.245 155.433 230.57 109.209 269.025 109.209C299.788 109.209 313.001 150.692 315.762 171.433C346.999 186.603 364.668 174.989 369.598 167.286C369.401 130.148 349.01 54.57 269.025 49.355Z" stroke="black"/>
<path d="M505.668 32.1699C482.004 41.1776 454.79 126 444.141 167.286C456.446 187.197 492.259 178.347 508.626 171.433C509.021 167.68 512.768 154.485 524.6 131.729C539.39 103.284 557.138 119.284 576.07 109.209C595.001 99.1344 585.536 49.355 576.07 42.2443C566.604 35.1336 535.249 20.9103 505.668 32.1699Z" stroke="black"/>
<path d="M43.5688 57.8868C39.3028 56.4694 29.1512 71.8635 24.6086 79.7376C26.3862 82.6897 35.8663 82.6912 48.3089 86.2346C60.7515 89.778 72.0091 102.18 73.7867 102.18C75.5642 102.18 81.4892 62.612 75.5642 60.8403C69.6391 59.0686 66.6766 64.9743 58.3815 73.2422C50.0864 81.5101 50.0864 78.5573 48.3089 77.3761C46.5314 76.195 48.9014 59.6584 43.5688 57.8868Z" fill="#FDA3C4"/>
<path d="M209.471 45.4856C204.257 46.4305 206.113 66.746 207.693 76.7856C213.026 74.4225 242.058 57.8883 271.091 56.1158C294.317 54.6978 316.714 68.1242 325.009 75.0147C324.812 62.6128 323.232 37.2185 318.492 34.8563C312.567 31.9035 300.717 49.6204 295.384 47.8487C290.051 46.077 287.681 17.1393 280.571 17.1393C273.461 17.1393 268.721 43.713 261.019 45.4856C253.316 47.2583 247.391 25.9961 242.058 26.5866C236.726 27.1772 232.578 55.5252 227.246 56.1158C221.913 56.7064 215.988 44.3045 209.471 45.4856Z" fill="#FDA3C4"/>
<path d="M495.651 20.0922C492.807 20.5646 492.491 39.1871 492.689 48.4393C499.404 44.8958 517.218 37.3363 534.756 35.4465C556.679 33.0843 570.307 44.305 571.492 44.8956C572.677 45.4861 570.899 3.55526 562.604 1.193C554.309 -1.16926 550.162 18.911 541.274 20.0922C532.386 21.2733 527.646 4.14692 522.906 4.73748C518.166 5.32805 516.981 25.9978 511.649 27.1789C506.316 28.3601 499.206 19.5016 495.651 20.0922Z" fill="#FDA3C4"/>
<path d="M43.5688 57.8868C39.3028 56.4694 29.1512 71.8635 24.6086 79.7376C26.3862 82.6897 35.8663 82.6912 48.3089 86.2346C60.7515 89.778 72.0091 102.18 73.7867 102.18C75.5642 102.18 81.4892 62.612 75.5642 60.8403C69.6391 59.0686 66.6766 64.9743 58.3815 73.2422C50.0864 81.5101 50.0864 78.5573 48.3089 77.3761C46.5314 76.195 48.9014 59.6584 43.5688 57.8868Z" stroke="black"/>
<path d="M209.471 45.4856C204.257 46.4305 206.113 66.746 207.693 76.7856C213.026 74.4225 242.058 57.8883 271.091 56.1158C294.317 54.6978 316.714 68.1242 325.009 75.0147C324.812 62.6128 323.232 37.2185 318.492 34.8563C312.567 31.9035 300.717 49.6204 295.384 47.8487C290.051 46.077 287.681 17.1393 280.571 17.1393C273.461 17.1393 268.721 43.713 261.019 45.4856C253.316 47.2583 247.391 25.9961 242.058 26.5866C236.726 27.1772 232.578 55.5252 227.246 56.1158C221.913 56.7064 215.988 44.3045 209.471 45.4856Z" stroke="black"/>
<path d="M495.651 20.0922C492.807 20.5646 492.491 39.1871 492.689 48.4393C499.404 44.8958 517.218 37.3363 534.756 35.4465C556.679 33.0843 570.307 44.305 571.492 44.8956C572.677 45.4861 570.899 3.55526 562.604 1.193C554.309 -1.16926 550.162 18.911 541.274 20.0922C532.386 21.2733 527.646 4.14692 522.906 4.73748C518.166 5.32805 516.981 25.9978 511.649 27.1789C506.316 28.3601 499.206 19.5016 495.651 20.0922Z" stroke="black"/>
<circle cx="43.1582" cy="97.1201" r="3.71583" fill="#F40000" stroke="black"/>
<path d="M250.077 73.0913C250.077 76.3407 247.626 78.9151 244.675 78.9151C241.723 78.9151 239.272 76.3407 239.272 73.0913C239.272 69.8419 241.723 67.2676 244.675 67.2676C247.626 67.2676 250.077 69.8419 250.077 73.0913Z" fill="#F40000" stroke="black"/>
<circle cx="322.668" cy="98.386" r="3.29424" fill="#F40000" stroke="black"/>
<circle cx="475.281" cy="127.054" r="3.29424" fill="#F40000" stroke="black"/>
<circle cx="562.97" cy="66.3458" r="4.98058" fill="#1F1F1F" stroke="black"/>
<circle cx="59.6001" cy="108.503" r="5.82374" fill="#F40000" stroke="black"/>
<path d="M228.155 95.435C228.155 100.26 224.058 104.21 218.958 104.21C213.858 104.21 209.762 100.26 209.762 95.435C209.762 90.6095 213.858 86.6602 218.958 86.6602C224.058 86.6602 228.155 90.6095 228.155 95.435Z" fill="#F40000" stroke="black"/>
<path d="M293.078 68.0323C293.078 73.1326 289.129 77.2287 284.304 77.2287C279.478 77.2287 275.529 73.1326 275.529 68.0323C275.529 62.9321 279.478 58.8359 284.304 58.8359C289.129 58.8359 293.078 62.9321 293.078 68.0323Z" fill="#F40000" stroke="black"/>
<path d="M492.909 108.503C492.909 113.603 488.959 117.699 484.134 117.699C479.308 117.699 475.359 113.603 475.359 108.503C475.359 103.403 479.308 99.3066 484.134 99.3066C488.959 99.3066 492.909 103.403 492.909 108.503Z" fill="#F40000" stroke="black"/>
<path d="M557.194 59.2171C547.513 58.7092 545.497 63.2379 545.698 65.5657C546.715 77.3058 570.98 72.6684 569.294 66.8358C568.412 63.7863 569.294 59.852 557.194 59.2171Z" stroke="black"/>
<path d="M552.43 84.4727C553.041 88.7742 557.437 97.1427 570.137 96.2042" stroke="black" stroke-linecap="round"/>
<path d="M580.22 82.9368C577.847 82.2137 572.628 80.1174 573.103 81.8528C573.696 84.0222 580.812 87.8178 580.22 82.9368Z" fill="#1F1F1F"/>
<path d="M580.22 82.9368C577.847 82.2137 572.628 80.1174 573.103 81.8528C573.696 84.0222 580.812 87.8178 580.22 82.9368ZM580.22 82.9368C579.745 79.0321 573.3 78.4174 570.137 78.5982" stroke="black" stroke-linejoin="round"/>
</svg>
