<svg width="75" height="19" viewBox="0 0 75 19" fill="none" xmlns="http://www.w3.org/2000/svg">
<path d="M7.29527 18.1435C5.83927 18.1435 4.56727 17.9355 3.47927 17.5195C2.39127 17.0875 1.54327 16.4875 0.935266 15.7195C0.327266 14.9355 0.0232658 14.0235 0.0232658 12.9835C0.0232658 11.9435 0.319266 11.0635 0.911266 10.3435C1.51927 9.60747 2.36727 9.05547 3.45527 8.68747C4.54327 8.30347 5.82327 8.11147 7.29527 8.11147C8.78327 8.11147 10.0713 8.30347 11.1593 8.68747C12.2633 9.05547 13.1113 9.60747 13.7033 10.3435C14.3113 11.0635 14.6153 11.9435 14.6153 12.9835C14.6153 14.0235 14.3113 14.9355 13.7033 15.7195C13.0953 16.4875 12.2393 17.0875 11.1353 17.5195C10.0473 17.9355 8.76727 18.1435 7.29527 18.1435ZM7.29527 15.2875C8.33527 15.2875 9.15927 15.0715 9.76727 14.6395C10.3913 14.2075 10.7033 13.6155 10.7033 12.8635C10.7033 12.1115 10.3913 11.5275 9.76727 11.1115C9.15927 10.6795 8.33527 10.4635 7.29527 10.4635C6.25527 10.4635 5.43127 10.6795 4.82327 11.1115C4.23127 11.5275 3.93527 12.1115 3.93527 12.8635C3.93527 13.6155 4.23127 14.2075 4.82327 14.6395C5.43127 15.0715 6.25527 15.2875 7.29527 15.2875ZM7.29527 10.0795C5.95127 10.0795 4.77527 9.90347 3.76727 9.55147C2.77527 9.19947 1.99927 8.68747 1.43927 8.01547C0.895266 7.32747 0.623266 6.51147 0.623266 5.56747C0.623266 4.57547 0.903266 3.72747 1.46327 3.02347C2.02327 2.30347 2.80727 1.75147 3.81527 1.36747C4.82327 0.967468 5.98327 0.767468 7.29527 0.767468C8.63927 0.767468 9.80727 0.967468 10.7993 1.36747C11.8073 1.75147 12.5913 2.30347 13.1513 3.02347C13.7273 3.72747 14.0153 4.57547 14.0153 5.56747C14.0153 6.51147 13.7353 7.32747 13.1753 8.01547C12.6313 8.68747 11.8553 9.19947 10.8473 9.55147C9.83927 9.90347 8.65527 10.0795 7.29527 10.0795ZM7.29527 7.79947C8.17527 7.79947 8.87127 7.61547 9.38327 7.24747C9.89527 6.87947 10.1513 6.37547 10.1513 5.73547C10.1513 5.06347 9.88727 4.54347 9.35927 4.17547C8.84727 3.80747 8.15927 3.62347 7.29527 3.62347C6.46327 3.62347 5.78327 3.80747 5.25527 4.17547C4.74327 4.54347 4.48727 5.06347 4.48727 5.73547C4.48727 6.37547 4.73527 6.87947 5.23127 7.24747C5.74327 7.61547 6.43127 7.79947 7.29527 7.79947ZM23.524 0.767468C25.124 0.767468 26.5 1.09547 27.652 1.75147C28.804 2.39147 29.692 3.32747 30.316 4.55947C30.94 5.79147 31.252 7.29547 31.252 9.07147C31.252 10.3835 31.044 11.5915 30.628 12.6955C30.212 13.7995 29.604 14.7595 28.804 15.5755C28.02 16.3915 27.068 17.0235 25.948 17.4715C24.828 17.9195 23.556 18.1435 22.132 18.1435C21.236 18.1435 20.372 18.0475 19.54 17.8555C18.708 17.6475 18.004 17.3595 17.428 16.9915L18.868 14.0635C19.3 14.3835 19.804 14.6155 20.38 14.7595C20.956 14.9035 21.54 14.9755 22.132 14.9755C23.188 14.9755 24.108 14.7755 24.892 14.3755C25.676 13.9595 26.284 13.3595 26.716 12.5755C27.164 11.7915 27.388 10.8475 27.388 9.74347C27.388 9.40747 27.372 9.05547 27.34 8.68747C27.324 8.31947 27.284 7.96747 27.22 7.63147L28.18 8.75947C27.94 9.33547 27.564 9.83947 27.052 10.2715C26.54 10.6875 25.932 11.0155 25.228 11.2555C24.524 11.4795 23.732 11.5915 22.852 11.5915C21.7 11.5915 20.668 11.3755 19.756 10.9435C18.844 10.4955 18.124 9.87947 17.596 9.09547C17.068 8.31147 16.804 7.39947 16.804 6.35947C16.804 5.23947 17.092 4.26347 17.668 3.43147C18.244 2.58347 19.036 1.92747 20.044 1.46347C21.068 0.999468 22.228 0.767468 23.524 0.767468ZM23.668 3.64747C23.092 3.64747 22.58 3.75147 22.132 3.95947C21.684 4.16747 21.332 4.46347 21.076 4.84747C20.82 5.21547 20.692 5.65547 20.692 6.16747C20.692 6.67947 20.82 7.12747 21.076 7.51147C21.332 7.87947 21.684 8.17547 22.132 8.39947C22.596 8.60747 23.124 8.71147 23.716 8.71147C24.292 8.71147 24.812 8.60747 25.276 8.39947C25.756 8.17547 26.132 7.87947 26.404 7.51147C26.692 7.12747 26.836 6.67947 26.836 6.16747C26.836 5.71947 26.708 5.30347 26.452 4.91947C26.196 4.53547 25.828 4.23147 25.348 4.00747C24.884 3.76747 24.324 3.64747 23.668 3.64747ZM40.3286 0.767468C41.9286 0.767468 43.3046 1.09547 44.4566 1.75147C45.6086 2.39147 46.4966 3.32747 47.1206 4.55947C47.7446 5.79147 48.0566 7.29547 48.0566 9.07147C48.0566 10.3835 47.8486 11.5915 47.4326 12.6955C47.0166 13.7995 46.4086 14.7595 45.6086 15.5755C44.8246 16.3915 43.8726 17.0235 42.7526 17.4715C41.6326 17.9195 40.3606 18.1435 38.9366 18.1435C38.0406 18.1435 37.1766 18.0475 36.3446 17.8555C35.5126 17.6475 34.8086 17.3595 34.2326 16.9915L35.6726 14.0635C36.1046 14.3835 36.6086 14.6155 37.1846 14.7595C37.7606 14.9035 38.3446 14.9755 38.9366 14.9755C39.9926 14.9755 40.9126 14.7755 41.6966 14.3755C42.4806 13.9595 43.0886 13.3595 43.5206 12.5755C43.9686 11.7915 44.1926 10.8475 44.1926 9.74347C44.1926 9.40747 44.1766 9.05547 44.1446 8.68747C44.1286 8.31947 44.0886 7.96747 44.0246 7.63147L44.9846 8.75947C44.7446 9.33547 44.3686 9.83947 43.8566 10.2715C43.3446 10.6875 42.7366 11.0155 42.0326 11.2555C41.3286 11.4795 40.5366 11.5915 39.6566 11.5915C38.5046 11.5915 37.4726 11.3755 36.5606 10.9435C35.6486 10.4955 34.9286 9.87947 34.4006 9.09547C33.8726 8.31147 33.6086 7.39947 33.6086 6.35947C33.6086 5.23947 33.8966 4.26347 34.4726 3.43147C35.0486 2.58347 35.8406 1.92747 36.8486 1.46347C37.8726 0.999468 39.0326 0.767468 40.3286 0.767468ZM40.4726 3.64747C39.8966 3.64747 39.3846 3.75147 38.9366 3.95947C38.4886 4.16747 38.1366 4.46347 37.8806 4.84747C37.6246 5.21547 37.4966 5.65547 37.4966 6.16747C37.4966 6.67947 37.6246 7.12747 37.8806 7.51147C38.1366 7.87947 38.4886 8.17547 38.9366 8.39947C39.4006 8.60747 39.9286 8.71147 40.5206 8.71147C41.0966 8.71147 41.6166 8.60747 42.0806 8.39947C42.5606 8.17547 42.9366 7.87947 43.2086 7.51147C43.4966 7.12747 43.6406 6.67947 43.6406 6.16747C43.6406 5.71947 43.5126 5.30347 43.2566 4.91947C43.0006 4.53547 42.6326 4.23147 42.1526 4.00747C41.6886 3.76747 41.1286 3.64747 40.4726 3.64747ZM66.4022 18.1675C64.9142 18.1675 63.6262 17.9515 62.5382 17.5195C61.4662 17.0875 60.6422 16.4795 60.0662 15.6955C59.4902 14.9115 59.2022 13.9915 59.2022 12.9355C59.2022 12.5995 59.2422 12.3035 59.3222 12.0475C59.4022 11.7755 59.5062 11.5355 59.6342 11.3275H66.0662C65.5222 11.4875 65.0182 11.6475 64.5542 11.8075C64.1062 11.9675 63.7462 12.1595 63.4742 12.3835C63.2022 12.5915 63.0662 12.8715 63.0662 13.2235C63.0662 13.5755 63.1782 13.8875 63.4022 14.1595C63.6262 14.4315 63.9702 14.6475 64.4342 14.8075C64.9142 14.9515 65.5382 15.0235 66.3062 15.0235C67.3302 15.0235 68.3542 14.8955 69.3782 14.6395C70.4022 14.3675 71.2822 14.0235 72.0182 13.6075L73.0022 16.5355C71.9942 17.0635 70.9142 17.4715 69.7622 17.7595C68.6262 18.0315 67.5062 18.1675 66.4022 18.1675ZM57.7622 12.0235V10.0315H74.2502V12.0235H57.7622ZM57.7622 8.71147V6.71947H74.2502V8.71147H57.7622ZM65.3462 7.79947C65.9542 7.59147 66.5302 7.40747 67.0742 7.24747C67.6342 7.07147 68.0902 6.87947 68.4422 6.67147C68.7942 6.44747 68.9702 6.15947 68.9702 5.80747C68.9702 5.43947 68.8582 5.11947 68.6342 4.84747C68.4262 4.55947 68.0902 4.32747 67.6262 4.15147C67.1622 3.97547 66.5462 3.88747 65.7782 3.88747C65.0102 3.88747 64.2182 3.96747 63.4022 4.12747C62.5862 4.28747 61.7702 4.53547 60.9542 4.87147L60.0662 1.91947C60.9782 1.51947 61.9062 1.22347 62.8502 1.03147C63.8102 0.839468 64.7462 0.743467 65.6582 0.743467C67.1302 0.743467 68.3942 0.959467 69.4502 1.39147C70.5222 1.82347 71.3462 2.43947 71.9222 3.23947C72.5142 4.02347 72.8102 4.94347 72.8102 5.99947C72.8102 6.36747 72.7702 6.69547 72.6902 6.98347C72.6102 7.27147 72.5062 7.54347 72.3782 7.79947H65.3462Z" fill="#FDA3C4"/>
</svg>
