<svg width="214" height="156" viewBox="0 0 214 156" fill="none" xmlns="http://www.w3.org/2000/svg">
<path d="M79.913 68.7638C80.4925 63.4672 81.2893 57.7435 84.6215 53.7283C87.4465 50.3111 91.7204 48.5171 95.6321 50.3965C100.051 52.5323 101.862 57.8289 104.18 62.2712C105.556 64.9195 108.164 68.6784 111.279 67.9095C113.379 67.3115 114.249 64.7486 114.901 62.6129C116.06 59.1103 116.784 55.1806 119.247 52.5323C122 49.6277 125.911 49.9694 128.809 52.4468C132.72 55.6932 133.807 61.246 137.067 65.1758C139.385 67.9095 142.21 67.6532 144.455 64.8341C146.266 62.4421 146.773 59.2812 148.15 56.5474C150.395 52.1051 154.886 51.08 158.653 53.8137C163.072 57.1454 163.579 63.8089 162.637 69.2763C162.275 71.4975 159.16 70.9849 159.233 68.7638C159.233 66.2009 159.45 63.4672 158.726 60.9898C157.784 57.8289 154.452 55.266 152.134 58.1706C150.83 59.7937 150.468 62.3566 149.598 64.3215C148.729 66.3718 147.425 68.2512 145.904 69.7035C139.312 75.5981 133.734 68.3366 130.547 61.9295C128.809 58.4269 124.318 51.6779 121.203 57.3163C119.537 60.2209 119.174 63.9798 117.798 67.0552C114.394 74.8293 107.077 73.7187 102.659 67.6532C99.8334 63.8089 98.4571 56.462 93.966 54.668C87.0119 52.0197 84.6939 63.2963 84.1144 68.7638C83.6073 71.6684 79.6232 71.7538 79.913 68.7638Z" fill="#FDA3C4"/>
<path d="M38.1153 88.416C37.8273 88.416 37.5213 88.398 37.1973 88.362C36.9093 88.326 36.6213 88.236 36.3333 88.092C35.1453 87.588 34.5513 86.814 34.5513 85.77V85.446C34.6233 84.87 34.8573 84.384 35.2533 83.988C35.6853 83.628 36.2433 83.412 36.9273 83.34C37.4313 83.268 37.9353 83.232 38.4393 83.232C38.9433 83.232 39.4473 83.232 39.9513 83.232C40.7073 83.196 41.1033 82.8 41.1393 82.044C41.2113 79.992 41.3553 77.796 41.5713 75.456C41.8233 73.152 41.9493 70.776 41.9493 68.328V65.736C41.9493 63.252 42.0033 60.768 42.1113 58.284C42.2553 55.764 42.3273 53.262 42.3273 50.778L42.2733 48.51C42.2013 46.242 42.1293 43.974 42.0573 41.706C41.9853 39.438 41.8053 37.08 41.5173 34.632C41.1213 34.92 40.7793 35.172 40.4913 35.388C40.2393 35.604 39.9693 35.802 39.6813 35.982C39.1053 36.342 38.5293 36.522 37.9533 36.522C37.1253 36.522 36.4773 36.198 36.0093 35.55C35.6493 35.082 35.4693 34.56 35.4693 33.984C35.4693 33.552 35.5593 33.138 35.7393 32.742C35.9553 32.346 36.2613 32.022 36.6573 31.77C37.7733 31.086 38.7453 30.294 39.5733 29.394C40.4373 28.458 41.3193 27.54 42.2193 26.64C43.4073 25.416 44.7033 24.354 46.1073 23.454C47.5113 22.518 48.9333 21.6 50.3733 20.7C50.9133 20.376 51.5073 20.214 52.1553 20.214C53.0913 20.214 53.9373 20.538 54.6933 21.186C55.4493 21.834 55.8273 22.68 55.8273 23.724C55.8273 24.228 55.8453 24.714 55.8813 25.182C55.9173 25.65 55.9353 26.136 55.9353 26.64L55.8813 27.612C55.7733 29.016 55.7193 30.42 55.7193 31.824C55.7193 33.732 55.7733 35.622 55.8813 37.494C56.0253 39.366 56.1333 41.256 56.2053 43.164C56.2773 44.64 56.3313 46.116 56.3673 47.592C56.4033 49.032 56.4213 50.49 56.4213 51.966C56.4213 55.134 56.3133 58.302 56.0973 61.47C56.0613 61.974 56.0253 62.478 55.9893 62.982C55.9893 63.486 55.9893 63.99 55.9893 64.494L56.0433 68.058C56.0433 70.218 55.9713 72.36 55.8273 74.484C55.6833 76.608 55.5033 78.75 55.2873 80.91L55.1793 82.422C55.1793 82.998 55.4493 83.286 55.9893 83.286H57.0153C57.4113 83.286 57.6993 83.304 57.8793 83.34C58.4913 83.484 58.9593 83.754 59.2833 84.15C59.6433 84.582 59.8233 85.068 59.8233 85.608V85.77C59.8233 86.814 59.3013 87.534 58.2573 87.93C57.9693 88.038 57.6813 88.11 57.3933 88.146C57.1413 88.218 56.8713 88.272 56.5833 88.308C55.3233 88.38 53.6673 88.416 51.6153 88.416C49.5633 88.416 47.5293 88.416 45.5133 88.416H38.1153Z" fill="#FDA3C4"/>
<path d="M14.025 102.908L8.1 94.3832L10.725 92.7582L17.7 102.908H14.025ZM2.45 102.908V85.4082H5.65V102.908H2.45ZM4.675 95.5332V92.7332H10.575V95.5332H4.675ZM11.025 94.5332L8.05 94.1332L14.025 85.4082H17.475L11.025 94.5332ZM27.9822 103.158C26.6156 103.158 25.3572 102.933 24.2072 102.483C23.0572 102.033 22.0572 101.408 21.2072 100.608C20.3572 99.7915 19.6989 98.8415 19.2322 97.7582C18.7656 96.6582 18.5322 95.4582 18.5322 94.1582C18.5322 92.8582 18.7656 91.6665 19.2322 90.5832C19.6989 89.4832 20.3572 88.5332 21.2072 87.7332C22.0572 86.9165 23.0572 86.2832 24.2072 85.8332C25.3572 85.3832 26.6072 85.1582 27.9572 85.1582C29.3239 85.1582 30.5739 85.3832 31.7072 85.8332C32.8572 86.2832 33.8572 86.9165 34.7072 87.7332C35.5572 88.5332 36.2156 89.4832 36.6822 90.5832C37.1489 91.6665 37.3822 92.8582 37.3822 94.1582C37.3822 95.4582 37.1489 96.6582 36.6822 97.7582C36.2156 98.8582 35.5572 99.8082 34.7072 100.608C33.8572 101.408 32.8572 102.033 31.7072 102.483C30.5739 102.933 29.3322 103.158 27.9822 103.158ZM27.9572 100.308C28.8406 100.308 29.6572 100.158 30.4072 99.8582C31.1572 99.5582 31.8072 99.1332 32.3572 98.5832C32.9072 98.0165 33.3322 97.3665 33.6322 96.6332C33.9489 95.8832 34.1072 95.0582 34.1072 94.1582C34.1072 93.2582 33.9489 92.4415 33.6322 91.7082C33.3322 90.9582 32.9072 90.3082 32.3572 89.7582C31.8072 89.1915 31.1572 88.7582 30.4072 88.4582C29.6572 88.1582 28.8406 88.0082 27.9572 88.0082C27.0739 88.0082 26.2572 88.1582 25.5072 88.4582C24.7739 88.7582 24.1239 89.1915 23.5572 89.7582C23.0072 90.3082 22.5739 90.9582 22.2572 91.7082C21.9572 92.4415 21.8072 93.2582 21.8072 94.1582C21.8072 95.0415 21.9572 95.8582 22.2572 96.6082C22.5739 97.3582 23.0072 98.0165 23.5572 98.5832C24.1072 99.1332 24.7572 99.5582 25.5072 99.8582C26.2572 100.158 27.0739 100.308 27.9572 100.308ZM53.2754 85.4082H56.5254V102.908H53.2754V85.4082ZM44.2254 102.908H40.9754V85.4082H44.2254V102.908ZM53.5254 95.4082H43.9504V92.6332H53.5254V95.4082ZM65.1094 102.908V87.3582L65.8844 88.1582H59.3344V85.4082H74.1344V88.1582H67.5844L68.3344 87.3582V102.908H65.1094ZM73.8334 102.908L81.7084 85.4082H84.9084L92.8084 102.908H89.4084L82.6334 87.1332H83.9334L77.1834 102.908H73.8334ZM77.4584 98.8582L78.3334 96.3082H87.7834L88.6584 98.8582H77.4584ZM107.067 102.908L101.142 94.3832L103.767 92.7582L110.742 102.908H107.067ZM95.492 102.908V85.4082H98.692V102.908H95.492ZM97.717 95.5332V92.7332H103.617V95.5332H97.717ZM104.067 94.5332L101.092 94.1332L107.067 85.4082H110.517L104.067 94.5332ZM116.452 102.908V87.3582L117.227 88.1582H110.677V85.4082H125.477V88.1582H118.927L119.677 87.3582V102.908H116.452ZM140.58 85.4082H143.83V102.908H140.58V85.4082ZM131.53 102.908H128.28V85.4082H131.53V102.908ZM140.83 95.4082H131.255V92.6332H140.83V95.4082ZM156.814 91.3332C158.897 91.3332 160.506 91.7999 161.639 92.7332C162.772 93.6665 163.339 95.0665 163.339 96.9332C163.339 98.8999 162.714 100.392 161.464 101.408C160.231 102.408 158.506 102.908 156.289 102.908H148.764V85.4082H151.964V91.3332H156.814ZM156.139 100.408C157.389 100.408 158.356 100.117 159.039 99.5332C159.739 98.9499 160.089 98.0999 160.089 96.9832C160.089 95.8832 159.747 95.0832 159.064 94.5832C158.381 94.0665 157.406 93.8082 156.139 93.8082H151.964V100.408H156.139ZM165.864 102.908V85.4082H169.064V102.908H165.864ZM176.983 92.6832H185.683V95.3582H176.983V92.6832ZM177.233 100.183H187.108V102.908H173.983V85.4082H186.758V88.1332H177.233V100.183ZM14.075 131.408V118.158H7.225L7.1 121.258C7.05 122.425 6.975 123.533 6.875 124.583C6.79167 125.617 6.65 126.558 6.45 127.408C6.26667 128.258 6.00833 128.967 5.675 129.533C5.34167 130.1 4.93333 130.475 4.45 130.658L0.95 130.158C1.58333 130.192 2.1 129.975 2.5 129.508C2.91667 129.042 3.24167 128.392 3.475 127.558C3.70833 126.725 3.88333 125.75 4 124.633C4.11667 123.5 4.2 122.275 4.25 120.958L4.45 115.408H17.275V131.408H14.075ZM0.35 136.633L0.375 130.158H19.8V136.633H16.8V132.908H3.375V136.633H0.35ZM20.6596 132.908L28.5346 115.408H31.7346L39.6346 132.908H36.2346L29.4596 117.133H30.7596L24.0096 132.908H20.6596ZM24.2846 128.858L25.1596 126.308H34.6096L35.4846 128.858H24.2846ZM54.6182 115.408H57.8682V132.908H54.6182V115.408ZM45.5682 132.908H42.3182V115.408H45.5682V132.908ZM54.8682 125.408H45.2932V122.633H54.8682V125.408ZM75.0771 115.408H78.3271V132.908H75.0771V115.408ZM66.0271 132.908H62.7771V115.408H66.0271V132.908ZM75.3271 125.408H65.7521V122.633H75.3271V125.408ZM91.3111 121.333C93.3945 121.333 95.0028 121.8 96.1361 122.733C97.2695 123.667 97.8361 125.067 97.8361 126.933C97.8361 128.9 97.2111 130.392 95.9611 131.408C94.7278 132.408 93.0028 132.908 90.7861 132.908H83.2611V115.408H86.4611V121.333H91.3111ZM90.6361 130.408C91.8861 130.408 92.8528 130.117 93.5361 129.533C94.2361 128.95 94.5861 128.1 94.5861 126.983C94.5861 125.883 94.2445 125.083 93.5611 124.583C92.8778 124.067 91.9028 123.808 90.6361 123.808H86.4611V130.408H90.6361ZM100.361 132.908V115.408H103.561V132.908H100.361ZM111.48 122.683H120.18V125.358H111.48V122.683ZM111.73 130.183H121.605V132.908H108.48V115.408H121.255V118.133H111.73V130.183Z" fill="#1F1F1F"/>
</svg>
