<svg width="251" height="134" viewBox="0 0 251 134" fill="none" xmlns="http://www.w3.org/2000/svg">
<path d="M93.5357 59.0178C94.214 54.4719 95.1467 49.5594 99.0468 46.1132C102.354 43.1804 107.356 41.6406 111.934 43.2537C117.106 45.0867 119.226 49.6327 121.939 53.4454C123.55 55.7184 126.602 58.9445 130.248 58.2846C132.707 57.7714 133.725 55.5717 134.488 53.7387C135.844 50.7325 136.692 47.3597 139.575 45.0867C142.797 42.5938 147.375 42.8871 150.767 45.0134C155.345 47.7996 156.617 52.5655 160.432 55.9383C163.145 58.2846 166.452 58.0647 169.081 55.6451C171.2 53.592 171.794 50.8791 173.405 48.5328C176.033 44.7201 181.29 43.8403 185.699 46.1865C190.871 49.0461 191.464 54.7652 190.362 59.4577C189.938 61.3641 186.292 60.9242 186.377 59.0178C186.377 56.8182 186.631 54.4719 185.784 52.3456C184.681 49.6327 180.781 47.433 178.068 49.9259C176.542 51.319 176.118 53.5187 175.1 55.2051C174.083 56.9648 172.557 58.5779 170.776 59.8243C163.061 64.8835 156.532 58.6512 152.802 53.1521C150.767 50.1459 145.51 44.3535 141.864 49.1927C139.914 51.6856 139.49 54.9118 137.879 57.5514C133.894 64.2237 125.331 63.2705 120.159 58.0647C116.852 54.7652 115.241 48.4595 109.984 46.9198C101.845 44.6468 99.1316 54.3252 98.4533 59.0178C97.8598 61.5108 93.1966 61.5841 93.5357 59.0178Z" fill="#FDA3C4"/>
<path d="M50.2569 88.632C48.2049 88.632 46.1529 88.524 44.1009 88.308C43.0569 88.2 42.2649 87.876 41.7249 87.336C41.1849 86.832 40.9149 86.22 40.9149 85.5C40.9149 84.816 41.1849 84.06 41.7249 83.232C42.9849 81.612 44.0469 79.812 44.9109 77.832C45.7749 75.852 46.5489 73.782 47.2329 71.622L52.7949 54.072C53.5509 51.696 54.1989 49.302 54.7389 46.89C55.2789 44.478 55.7469 42.03 56.1429 39.546C56.2509 38.79 56.3049 38.052 56.3049 37.332C56.3049 35.208 55.8729 33.246 55.0089 31.446C54.1449 29.646 53.1009 27.882 51.8769 26.154C51.4809 25.614 50.9589 25.344 50.3109 25.344C49.6989 25.344 49.1409 25.578 48.6369 26.046C48.0249 26.622 47.5029 27.252 47.0709 27.936C46.6749 28.62 46.3329 29.376 46.0449 30.204C45.6129 31.356 45.3069 32.544 45.1269 33.768C44.9829 34.956 44.9109 36.162 44.9109 37.386V44.298C44.8389 45.306 44.5869 46.08 44.1549 46.62C43.7589 47.16 43.2009 47.43 42.4809 47.43H42.3729C41.6889 47.394 41.1129 47.142 40.6449 46.674C40.2129 46.17 39.9969 45.468 39.9969 44.568V44.406C39.9969 43.398 39.9789 42.408 39.9429 41.436C39.9069 40.428 39.8889 39.42 39.8889 38.412C39.8889 36.936 39.9609 35.496 40.1049 34.092C40.2489 32.652 40.5189 31.23 40.9149 29.826C41.3109 28.458 41.8329 27.162 42.4809 25.938C43.1289 24.714 43.9749 23.598 45.0189 22.59C46.5669 21.042 48.3669 20.268 50.4189 20.268H51.5529C52.2729 20.268 52.9929 20.268 53.7129 20.268C54.4689 20.232 55.2069 20.214 55.9269 20.214C57.1869 20.214 58.4469 20.268 59.7069 20.376C62.2989 20.592 64.2609 21.762 65.5929 23.886C66.7809 25.758 67.8609 27.666 68.8329 29.61C69.8049 31.518 70.3809 33.624 70.5609 35.928L70.6149 37.17C70.6149 38.538 70.5069 39.888 70.2909 41.22C70.0749 42.516 69.8409 43.83 69.5889 45.162C69.0489 48.114 68.3289 51.012 67.4289 53.856C66.5649 56.664 65.7009 59.508 64.8369 62.388C64.4769 63.468 64.1169 64.584 63.7569 65.736C63.3969 66.888 63.0369 68.022 62.6769 69.138C62.3169 70.254 61.9569 71.334 61.5969 72.378C61.2729 73.422 60.9849 74.376 60.7329 75.24C60.4809 75.96 60.2109 76.662 59.9229 77.346C59.6349 78.066 59.3289 78.768 59.0049 79.452L57.3309 83.394C57.6189 83.466 57.8709 83.502 58.0869 83.502C58.3389 83.538 58.5909 83.556 58.8429 83.556C59.4909 83.556 60.0849 83.502 60.6249 83.394C61.1289 83.322 61.6149 83.268 62.0829 83.232C62.5869 83.196 63.0909 83.178 63.5949 83.178L67.4289 83.286L69.1029 83.232C69.8229 83.232 70.3989 83.43 70.8309 83.826C71.2989 84.222 71.5869 84.726 71.6949 85.338V85.662C71.6949 86.238 71.4969 86.742 71.1009 87.174C70.7049 87.642 70.1109 87.966 69.3189 88.146C68.7429 88.29 68.0949 88.362 67.3749 88.362L64.1889 88.254C63.0009 88.254 61.8129 88.29 60.6249 88.362C59.4729 88.434 58.3029 88.47 57.1149 88.47C56.9349 88.47 56.5569 88.47 55.9809 88.47C55.4049 88.506 54.7569 88.524 54.0369 88.524C53.3169 88.56 52.5969 88.578 51.8769 88.578C51.1929 88.614 50.6529 88.632 50.2569 88.632Z" fill="#FDA3C4"/>
<path d="M10.5 91.9766C9.16667 91.9766 7.925 91.7599 6.775 91.3266C5.64167 90.8766 4.65 90.2516 3.8 89.4516C2.96667 88.6349 2.31667 87.6766 1.85 86.5766C1.38333 85.4766 1.15 84.2766 1.15 82.9766C1.15 81.6766 1.38333 80.4766 1.85 79.3766C2.31667 78.2766 2.975 77.3266 3.825 76.5266C4.675 75.7099 5.66667 75.0849 6.8 74.6516C7.93333 74.2016 9.175 73.9766 10.525 73.9766C11.9583 73.9766 13.2667 74.2266 14.45 74.7266C15.6333 75.2099 16.6333 75.9349 17.45 76.9016L15.35 78.8766C14.7167 78.1932 14.0083 77.6849 13.225 77.3516C12.4417 77.0016 11.5917 76.8266 10.675 76.8266C9.75833 76.8266 8.91667 76.9766 8.15 77.2766C7.4 77.5766 6.74167 78.0016 6.175 78.5516C5.625 79.1016 5.19167 79.7516 4.875 80.5016C4.575 81.2516 4.425 82.0766 4.425 82.9766C4.425 83.8766 4.575 84.7016 4.875 85.4516C5.19167 86.2016 5.625 86.8516 6.175 87.4016C6.74167 87.9516 7.4 88.3766 8.15 88.6766C8.91667 88.9766 9.75833 89.1266 10.675 89.1266C11.5917 89.1266 12.4417 88.9599 13.225 88.6266C14.0083 88.2766 14.7167 87.7516 15.35 87.0516L17.45 89.0516C16.6333 90.0016 15.6333 90.7266 14.45 91.2266C13.2667 91.7266 11.95 91.9766 10.5 91.9766ZM20.4926 91.7266V74.2266H35.9676V91.7266H32.7676V76.1766L33.5176 76.9766H22.9426L23.6926 76.1766V91.7266H20.4926ZM49.0271 91.9766C47.6605 91.9766 46.4021 91.7516 45.2521 91.3016C44.1021 90.8516 43.1021 90.2266 42.2521 89.4266C41.4021 88.6099 40.7438 87.6599 40.2771 86.5766C39.8105 85.4766 39.5771 84.2766 39.5771 82.9766C39.5771 81.6766 39.8105 80.4849 40.2771 79.4016C40.7438 78.3016 41.4021 77.3516 42.2521 76.5516C43.1021 75.7349 44.1021 75.1016 45.2521 74.6516C46.4021 74.2016 47.6521 73.9766 49.0021 73.9766C50.3688 73.9766 51.6188 74.2016 52.7521 74.6516C53.9021 75.1016 54.9021 75.7349 55.7521 76.5516C56.6021 77.3516 57.2605 78.3016 57.7271 79.4016C58.1938 80.4849 58.4271 81.6766 58.4271 82.9766C58.4271 84.2766 58.1938 85.4766 57.7271 86.5766C57.2605 87.6766 56.6021 88.6266 55.7521 89.4266C54.9021 90.2266 53.9021 90.8516 52.7521 91.3016C51.6188 91.7516 50.3771 91.9766 49.0271 91.9766ZM49.0021 89.1266C49.8855 89.1266 50.7021 88.9766 51.4521 88.6766C52.2021 88.3766 52.8521 87.9516 53.4021 87.4016C53.9521 86.8349 54.3771 86.1849 54.6771 85.4516C54.9938 84.7016 55.1521 83.8766 55.1521 82.9766C55.1521 82.0766 54.9938 81.2599 54.6771 80.5266C54.3771 79.7766 53.9521 79.1266 53.4021 78.5766C52.8521 78.0099 52.2021 77.5766 51.4521 77.2766C50.7021 76.9766 49.8855 76.8266 49.0021 76.8266C48.1188 76.8266 47.3021 76.9766 46.5521 77.2766C45.8188 77.5766 45.1688 78.0099 44.6021 78.5766C44.0521 79.1266 43.6188 79.7766 43.3021 80.5266C43.0021 81.2599 42.8521 82.0766 42.8521 82.9766C42.8521 83.8599 43.0021 84.6766 43.3021 85.4266C43.6188 86.1766 44.0521 86.8349 44.6021 87.4016C45.1521 87.9516 45.8021 88.3766 46.5521 88.6766C47.3021 88.9766 48.1188 89.1266 49.0021 89.1266ZM70.0703 91.9766C68.737 91.9766 67.4953 91.7599 66.3453 91.3266C65.212 90.8766 64.2203 90.2516 63.3703 89.4516C62.537 88.6349 61.887 87.6766 61.4203 86.5766C60.9536 85.4766 60.7203 84.2766 60.7203 82.9766C60.7203 81.6766 60.9536 80.4766 61.4203 79.3766C61.887 78.2766 62.5453 77.3266 63.3953 76.5266C64.2453 75.7099 65.237 75.0849 66.3703 74.6516C67.5036 74.2016 68.7453 73.9766 70.0953 73.9766C71.5286 73.9766 72.837 74.2266 74.0203 74.7266C75.2036 75.2099 76.2036 75.9349 77.0203 76.9016L74.9203 78.8766C74.287 78.1932 73.5786 77.6849 72.7953 77.3516C72.012 77.0016 71.162 76.8266 70.2453 76.8266C69.3286 76.8266 68.487 76.9766 67.7203 77.2766C66.9703 77.5766 66.312 78.0016 65.7453 78.5516C65.1953 79.1016 64.762 79.7516 64.4453 80.5016C64.1453 81.2516 63.9953 82.0766 63.9953 82.9766C63.9953 83.8766 64.1453 84.7016 64.4453 85.4516C64.762 86.2016 65.1953 86.8516 65.7453 87.4016C66.312 87.9516 66.9703 88.3766 67.7203 88.6766C68.487 88.9766 69.3286 89.1266 70.2453 89.1266C71.162 89.1266 72.012 88.9599 72.7953 88.6266C73.5786 88.2766 74.287 87.7516 74.9203 87.0516L77.0203 89.0516C76.2036 90.0016 75.2036 90.7266 74.0203 91.2266C72.837 91.7266 71.5203 91.9766 70.0703 91.9766ZM87.7967 91.9766C86.43 91.9766 85.1717 91.7516 84.0217 91.3016C82.8717 90.8516 81.8717 90.2266 81.0217 89.4266C80.1717 88.6099 79.5133 87.6599 79.0467 86.5766C78.58 85.4766 78.3467 84.2766 78.3467 82.9766C78.3467 81.6766 78.58 80.4849 79.0467 79.4016C79.5133 78.3016 80.1717 77.3516 81.0217 76.5516C81.8717 75.7349 82.8717 75.1016 84.0217 74.6516C85.1717 74.2016 86.4217 73.9766 87.7717 73.9766C89.1383 73.9766 90.3883 74.2016 91.5217 74.6516C92.6717 75.1016 93.6717 75.7349 94.5217 76.5516C95.3717 77.3516 96.03 78.3016 96.4967 79.4016C96.9633 80.4849 97.1967 81.6766 97.1967 82.9766C97.1967 84.2766 96.9633 85.4766 96.4967 86.5766C96.03 87.6766 95.3717 88.6266 94.5217 89.4266C93.6717 90.2266 92.6717 90.8516 91.5217 91.3016C90.3883 91.7516 89.1467 91.9766 87.7967 91.9766ZM87.7717 89.1266C88.655 89.1266 89.4717 88.9766 90.2217 88.6766C90.9717 88.3766 91.6217 87.9516 92.1717 87.4016C92.7217 86.8349 93.1467 86.1849 93.4467 85.4516C93.7633 84.7016 93.9217 83.8766 93.9217 82.9766C93.9217 82.0766 93.7633 81.2599 93.4467 80.5266C93.1467 79.7766 92.7217 79.1266 92.1717 78.5766C91.6217 78.0099 90.9717 77.5766 90.2217 77.2766C89.4717 76.9766 88.655 76.8266 87.7717 76.8266C86.8883 76.8266 86.0717 76.9766 85.3217 77.2766C84.5883 77.5766 83.9383 78.0099 83.3717 78.5766C82.8217 79.1266 82.3883 79.7766 82.0717 80.5266C81.7717 81.2599 81.6217 82.0766 81.6217 82.9766C81.6217 83.8599 81.7717 84.6766 82.0717 85.4266C82.3883 86.1766 82.8217 86.8349 83.3717 87.4016C83.9217 87.9516 84.5717 88.3766 85.3217 88.6766C86.0717 88.9766 86.8883 89.1266 87.7717 89.1266ZM100.815 91.7266V74.2266H114.44V76.9016H104.015V81.2016H109.19C111.29 81.2016 112.882 81.6432 113.965 82.5266C115.065 83.3932 115.615 84.6599 115.615 86.3266C115.615 88.0432 115.007 89.3766 113.79 90.3266C112.59 91.2599 110.89 91.7266 108.69 91.7266H100.815ZM104.015 89.2266H108.515C109.765 89.2266 110.715 88.9849 111.365 88.5016C112.015 88.0182 112.34 87.3182 112.34 86.4016C112.34 84.6016 111.065 83.7016 108.515 83.7016H104.015V89.2266ZM14.075 120.227V106.977H7.225L7.1 110.077C7.05 111.243 6.975 112.352 6.875 113.402C6.79167 114.435 6.65 115.377 6.45 116.227C6.26667 117.077 6.00833 117.785 5.675 118.352C5.34167 118.918 4.93333 119.293 4.45 119.477L0.95 118.977C1.58333 119.01 2.1 118.793 2.5 118.327C2.91667 117.86 3.24167 117.21 3.475 116.377C3.70833 115.543 3.88333 114.568 4 113.452C4.11667 112.318 4.2 111.093 4.25 109.777L4.45 104.227H17.275V120.227H14.075ZM0.35 125.452L0.375 118.977H19.8V125.452H16.8V121.727H3.375V125.452H0.35ZM30.9852 121.977C29.6185 121.977 28.3602 121.752 27.2102 121.302C26.0602 120.852 25.0602 120.227 24.2102 119.427C23.3602 118.61 22.7018 117.66 22.2352 116.577C21.7685 115.477 21.5352 114.277 21.5352 112.977C21.5352 111.677 21.7685 110.485 22.2352 109.402C22.7018 108.302 23.3602 107.352 24.2102 106.552C25.0602 105.735 26.0602 105.102 27.2102 104.652C28.3602 104.202 29.6102 103.977 30.9602 103.977C32.3268 103.977 33.5768 104.202 34.7102 104.652C35.8602 105.102 36.8602 105.735 37.7102 106.552C38.5602 107.352 39.2185 108.302 39.6852 109.402C40.1518 110.485 40.3852 111.677 40.3852 112.977C40.3852 114.277 40.1518 115.477 39.6852 116.577C39.2185 117.677 38.5602 118.627 37.7102 119.427C36.8602 120.227 35.8602 120.852 34.7102 121.302C33.5768 121.752 32.3352 121.977 30.9852 121.977ZM30.9602 119.127C31.8435 119.127 32.6602 118.977 33.4102 118.677C34.1602 118.377 34.8102 117.952 35.3602 117.402C35.9102 116.835 36.3352 116.185 36.6352 115.452C36.9518 114.702 37.1102 113.877 37.1102 112.977C37.1102 112.077 36.9518 111.26 36.6352 110.527C36.3352 109.777 35.9102 109.127 35.3602 108.577C34.8102 108.01 34.1602 107.577 33.4102 107.277C32.6602 106.977 31.8435 106.827 30.9602 106.827C30.0768 106.827 29.2602 106.977 28.5102 107.277C27.7768 107.577 27.1268 108.01 26.5602 108.577C26.0102 109.127 25.5768 109.777 25.2602 110.527C24.9602 111.26 24.8102 112.077 24.8102 112.977C24.8102 113.86 24.9602 114.677 25.2602 115.427C25.5768 116.177 26.0102 116.835 26.5602 117.402C27.1102 117.952 27.7602 118.377 28.5102 118.677C29.2602 118.977 30.0768 119.127 30.9602 119.127ZM52.0283 121.977C50.695 121.977 49.4533 121.76 48.3033 121.327C47.17 120.877 46.1783 120.252 45.3283 119.452C44.495 118.635 43.845 117.677 43.3783 116.577C42.9117 115.477 42.6783 114.277 42.6783 112.977C42.6783 111.677 42.9117 110.477 43.3783 109.377C43.845 108.277 44.5033 107.327 45.3533 106.527C46.2033 105.71 47.195 105.085 48.3283 104.652C49.4617 104.202 50.7033 103.977 52.0533 103.977C53.4867 103.977 54.795 104.227 55.9783 104.727C57.1617 105.21 58.1617 105.935 58.9783 106.902L56.8783 108.877C56.245 108.193 55.5367 107.685 54.7533 107.352C53.97 107.002 53.12 106.827 52.2033 106.827C51.2867 106.827 50.445 106.977 49.6783 107.277C48.9283 107.577 48.27 108.002 47.7033 108.552C47.1533 109.102 46.72 109.752 46.4033 110.502C46.1033 111.252 45.9533 112.077 45.9533 112.977C45.9533 113.877 46.1033 114.702 46.4033 115.452C46.72 116.202 47.1533 116.852 47.7033 117.402C48.27 117.952 48.9283 118.377 49.6783 118.677C50.445 118.977 51.2867 119.127 52.2033 119.127C53.12 119.127 53.97 118.96 54.7533 118.627C55.5367 118.277 56.245 117.752 56.8783 117.052L58.9783 119.052C58.1617 120.002 57.1617 120.727 55.9783 121.227C54.795 121.727 53.4783 121.977 52.0283 121.977ZM65.4756 121.727V106.177L66.2506 106.977H59.7006V104.227H74.5006V106.977H67.9506L68.7006 106.177V121.727H65.4756ZM74.1996 121.727L82.0746 104.227H85.2746L93.1746 121.727H89.7746L82.9996 105.952H84.2996L77.5496 121.727H74.1996ZM77.8246 117.677L78.6996 115.127H88.1496L89.0246 117.677H77.8246ZM95.8832 121.727V104.227H103.708C105.675 104.227 107.208 104.618 108.308 105.402C109.408 106.168 109.958 107.277 109.958 108.727C109.958 110.16 109.433 111.268 108.383 112.052C107.333 112.818 105.95 113.202 104.233 113.202L104.683 112.302C106.633 112.302 108.142 112.693 109.208 113.477C110.275 114.26 110.808 115.393 110.808 116.877C110.808 118.393 110.25 119.585 109.133 120.452C108.017 121.302 106.367 121.727 104.183 121.727H95.8832ZM99.0832 119.227H104.083C105.217 119.227 106.075 119.018 106.658 118.602C107.242 118.168 107.533 117.51 107.533 116.627C107.533 115.743 107.242 115.102 106.658 114.702C106.075 114.285 105.217 114.077 104.083 114.077H99.0832V119.227ZM99.0832 111.702H103.433C104.483 111.702 105.283 111.493 105.833 111.077C106.383 110.643 106.658 110.027 106.658 109.227C106.658 108.393 106.383 107.768 105.833 107.352C105.283 106.935 104.483 106.727 103.433 106.727H99.0832V111.702ZM126.086 121.727L120.161 113.202L122.786 111.577L129.761 121.727H126.086ZM114.511 121.727V104.227H117.711V121.727H114.511ZM116.736 114.352V111.552H122.636V114.352H116.736ZM123.086 113.352L120.111 112.952L126.086 104.227H129.536L123.086 113.352ZM131.992 121.727V104.227H135.192V116.652L144.592 104.227H147.617V121.727H144.417V109.327L135.017 121.727H131.992Z" fill="#1F1F1F"/>
</svg>
