<svg width="236" height="50" viewBox="0 0 236 50" fill="none" xmlns="http://www.w3.org/2000/svg">
<path d="M5.62996 35.1044L2.01919 30.2118L0.028912 10.6414C1.77396 7.85536 7.86488 2.12014 18.2681 1.4678C31.2722 0.652364 37.2876 -0.172465 52.2316 0.0313937C67.1755 0.235252 177.376 0.44087 182.634 0.44087C187.892 0.44087 213.937 -0.170538 220.863 2.88717C226.404 5.33334 231.491 10.0222 233.341 12.0608C232.789 12.4685 232.017 13.7323 233.35 15.5263C234.684 17.3202 235.392 20.0791 235.58 21.2343C234.844 21.9138 233.372 23.436 233.374 24.0883C233.376 24.9037 228.395 25.1076 230.889 26.1269C232.883 26.9423 233.388 29.3207 233.391 30.4079C231.456 31.4272 226.702 33.5066 223.161 33.6696C219.619 33.8327 216.522 34.553 215.416 34.8928L215.42 36.5238C217.081 36.7956 220.072 37.4206 218.744 37.7468C217.085 38.1545 215.422 37.1352 214.04 37.7468C212.658 38.3584 210.724 39.5815 212.385 39.9893C212.896 40.3649 213.396 40.5523 213.844 40.6252C214.393 40.5276 214.986 40.4473 215.431 40.397C215.147 40.5644 214.562 40.7422 213.844 40.6252C212.912 40.7911 212.11 41.0071 212.389 41.2124C212.832 41.5386 214.605 42.0278 215.436 42.2317L216.823 43.4548H212.395C209.96 43.4548 210.461 44.678 211.016 45.2896C210.371 45.4255 208.693 45.6157 207.142 45.2896C205.204 44.8818 206.036 45.4934 202.715 45.6973C200.059 45.8604 185.617 45.7652 181.097 45.6973C181.465 45.4255 181.703 44.8818 179.711 44.8818C177.22 44.8818 176.944 44.8818 173.901 45.2896C170.858 45.6973 55.1207 44.8801 45.7119 44.8801C38.1849 44.8801 47.7504 43.8702 46.3667 43.8702C42.0332 44.5497 27.0227 45.868 20.6022 45.7049C12.5764 45.501 5.65267 43.4625 5.65212 43.2586C5.65168 43.0955 4.17272 41.9675 3.4333 41.4239C4.17217 41.7636 5.64935 42.2393 5.64713 41.4239C5.64492 40.6084 4.16257 38.2301 3.42167 37.1429L5.62996 35.1044Z" fill="#FDA3C4"/>
<path d="M10.9194 46.7242C10.0339 46.7242 9.99918 47.5396 10.0925 47.9473L8.29434 48.1512C7.41988 48.8307 5.83688 50.149 6.50059 49.9859C7.16429 49.8228 8.43603 49.3743 8.98894 49.1705C9.35717 48.8987 11.8647 48.3551 18.949 48.3551C27.8043 48.3551 26.973 47.9473 27.8032 47.9473C28.6334 47.9473 12.0263 46.7242 10.9194 46.7242Z" fill="#FDA3C4"/>
<path d="M38.2386 30.7511C38.0986 30.7506 37.9587 30.7454 37.8187 30.7356C37.688 30.7351 37.5527 30.73 37.4127 30.7201C37.1608 30.7005 36.979 30.6252 36.8673 30.4941C36.7556 30.3724 36.6954 30.1761 36.6868 29.9054C36.6426 28.9253 36.603 27.9871 36.5679 27.091C36.5422 26.2042 36.5305 25.2662 36.533 24.2768L36.566 22.3029L36.5819 21.575C36.5835 20.9497 36.571 20.329 36.5446 19.7129C36.5182 19.0874 36.5058 18.462 36.5073 17.8367L36.5088 17.2627C36.5285 16.8334 36.5343 16.4041 36.5261 15.9748C36.5178 15.5454 36.5376 15.1161 36.5853 14.687L36.5855 14.603C36.586 14.4256 36.4742 14.3319 36.2502 14.3217L35.9842 14.3208C35.5736 14.3193 35.1629 14.3364 34.7521 14.3722C34.3507 14.3988 33.9447 14.4113 33.534 14.4098L32.33 14.4194C32.106 14.4185 31.989 14.5255 31.9792 14.7401C31.979 14.8148 31.9741 14.8847 31.9646 14.95C31.9552 15.006 31.9503 15.0666 31.9502 15.132L31.9294 17.7919C31.9285 18.1653 31.9276 18.5339 31.9266 18.8979C31.9257 19.2619 31.9341 19.6306 31.9518 20.004C31.9605 20.256 31.9692 20.5081 31.9779 20.7601C31.9866 21.0121 31.9907 21.2642 31.99 21.5162L31.9745 22.1321C31.9551 22.384 31.9452 22.636 31.9445 22.888C31.9439 23.1307 31.9433 23.378 31.9427 23.63C31.9418 23.966 31.941 24.2927 31.9402 24.61C31.9487 24.918 31.9573 25.2214 31.9659 25.5201C31.9745 25.8188 31.9783 26.1268 31.9775 26.4441C31.9861 26.7522 31.9899 27.0742 31.9891 27.4102L31.9883 27.7322C31.9875 28.0309 32.0008 28.3342 32.028 28.6423C32.0645 28.9505 32.0824 29.2632 32.0816 29.5806L32.0813 29.6925C32.0712 30.0005 32.01 30.2196 31.8976 30.3499C31.7947 30.4802 31.5891 30.5728 31.2809 30.6276C31.0475 30.6641 30.8141 30.6866 30.5808 30.6951C30.3474 30.7129 30.1094 30.7213 29.8667 30.7204L29.1667 30.7039C28.8681 30.6841 28.6583 30.6133 28.5373 30.4916C28.4256 30.3698 28.3608 30.1596 28.3429 29.8608C28.2899 28.666 28.2461 27.5178 28.2116 26.4163C28.1771 25.3149 28.1613 24.1668 28.1643 22.9721L28.181 16.3642C28.182 15.9908 28.1876 15.6222 28.1978 15.2582C28.2081 14.8849 28.2371 14.5117 28.2847 14.1385C28.3038 13.9706 28.3321 13.8307 28.3697 13.7188C28.4074 13.607 28.4589 13.5185 28.5244 13.4534C28.5993 13.379 28.6927 13.3234 28.8048 13.2864C28.9263 13.2495 29.071 13.2221 29.2391 13.204C29.5472 13.1585 29.8552 13.1316 30.1633 13.1234C30.4713 13.1152 30.784 13.1117 31.1013 13.1129L32.5012 13.132C32.6879 13.1327 32.8699 13.1333 33.0472 13.134C33.2339 13.1347 33.4206 13.126 33.6073 13.108C33.962 13.0907 34.3167 13.0733 34.6714 13.0559C35.0355 13.0386 35.3948 13.0306 35.7495 13.0319L36.0015 13.0328C36.6081 13.0444 37.2054 13.0652 37.7933 13.0954C38.3906 13.1162 38.9879 13.1464 39.5851 13.186C39.8744 13.2057 40.0796 13.2764 40.2006 13.3982C40.331 13.5107 40.3958 13.6976 40.3952 13.9589L40.3807 14.1409C40.3328 14.6354 40.2989 15.1253 40.279 15.6105C40.2684 16.0958 40.2625 16.5858 40.2613 17.0805C40.26 17.5751 40.2634 18.0651 40.2715 18.5505C40.2796 19.0359 40.2924 19.5259 40.3098 20.0207L40.3216 20.9027C40.3203 21.4254 40.3096 21.9433 40.2897 22.4566C40.279 22.9699 40.2731 23.4832 40.2718 23.9965L40.2964 25.3266C40.3048 25.6813 40.3133 26.022 40.3218 26.3487C40.3303 26.6754 40.3342 26.9975 40.3334 27.3148C40.3419 27.6415 40.3504 27.9635 40.3589 28.2809C40.3767 28.6076 40.3992 28.9484 40.4263 29.3031L40.4249 29.8631C40.415 30.0964 40.3585 30.2689 40.2556 30.3805C40.1526 30.5015 39.9891 30.5849 39.765 30.6307C39.2607 30.7129 38.752 30.753 38.2386 30.7511ZM47.4551 29.3849C47.6604 29.3857 47.8428 29.2463 48.0022 28.9669C48.0678 28.8458 48.1195 28.7247 48.1571 28.6035C48.204 28.4917 48.251 28.3705 48.298 28.24C48.6367 27.1959 48.8867 26.1421 49.048 25.0787C49.2187 24.0154 49.3241 22.9284 49.3643 21.8179L49.3645 21.7199C49.3675 20.5532 49.263 19.4328 49.051 18.3587C48.8484 17.2753 48.5712 16.1963 48.2192 15.1216C48.2007 15.0749 48.1821 15.0328 48.1635 14.9954C48.145 14.958 48.1264 14.916 48.1079 14.8692C47.9498 14.6166 47.7402 14.4899 47.4788 14.4889C47.3762 14.4885 47.2688 14.5161 47.1566 14.5717C47.0538 14.618 46.965 14.6924 46.8901 14.7948C46.7308 15.0088 46.6089 15.2324 46.5244 15.4654C46.4398 15.6984 46.3645 15.9362 46.2985 16.1786C46.1005 16.9712 45.9632 17.7687 45.8865 18.5711C45.8098 19.3642 45.7471 20.1713 45.6984 20.9924C45.6792 21.179 45.6694 21.3657 45.6689 21.5523C45.6685 21.739 45.668 21.9257 45.6675 22.1123C45.6648 23.1857 45.7369 24.2173 45.8837 25.2071C46.0305 26.197 46.2427 27.1825 46.5202 28.1635C46.5665 28.3223 46.6174 28.4718 46.6731 28.612C46.7287 28.7616 46.8077 28.9019 46.91 29.0329C47.0867 29.2669 47.2684 29.3842 47.4551 29.3849ZM44.9737 30.7338C44.759 30.733 44.5678 30.681 44.4001 30.5777C44.2417 30.4838 44.088 30.3666 43.939 30.226C43.6969 29.9918 43.5062 29.7344 43.3669 29.4539C43.237 29.1735 43.1257 28.879 43.0332 28.5707C42.7279 27.5056 42.4972 26.4407 42.3413 25.3761C42.1946 24.3023 42.1228 23.1913 42.1257 22.0433C42.1268 21.5953 42.142 21.1381 42.1712 20.6715C42.2199 19.841 42.292 19.0246 42.3874 18.2223C42.4828 17.4106 42.6295 16.6038 42.8275 15.8019C43.0443 14.972 43.4194 14.25 43.953 13.636C44.0653 13.4964 44.1869 13.3848 44.3178 13.3013C44.4487 13.2178 44.6075 13.167 44.7942 13.1491C45.0463 13.1313 45.2983 13.1136 45.5504 13.0958C45.8024 13.0781 46.0591 13.0697 46.3204 13.0707C46.6191 13.0718 46.913 13.0915 47.2023 13.1299C47.4915 13.159 47.7807 13.216 48.0698 13.3011C48.4336 13.4051 48.7271 13.5788 48.9505 13.8223C49.1739 14.0658 49.3411 14.3651 49.4522 14.7202C49.7115 15.5424 49.9381 16.3693 50.132 17.2007C50.3352 18.0227 50.4778 18.8679 50.5596 19.7362C50.5868 20.0163 50.6095 20.2964 50.6274 20.5765C50.6547 20.8473 50.6681 21.118 50.6674 21.3886L50.6666 21.6966C50.6168 22.9191 50.5018 24.1087 50.3216 25.2654C50.1506 26.4128 49.8818 27.5458 49.5149 28.6645C49.4679 28.823 49.4162 28.9721 49.3598 29.1119C49.3034 29.261 49.2377 29.4055 49.1627 29.5452C48.8531 30.1974 48.3294 30.5735 47.5919 30.6734C47.3584 30.7099 47.125 30.7324 46.8917 30.7409C46.6677 30.7494 46.439 30.7532 46.2056 30.7523L44.9737 30.7338ZM56.5064 29.0961L57.3324 29.0991C57.6783 28.8857 57.9823 28.6395 58.2443 28.3605C58.6935 27.8955 58.989 27.2992 59.1308 26.5717C59.197 26.2453 59.2398 25.9141 59.2593 25.5782C59.2882 25.2423 59.303 24.911 59.3039 24.5843L59.2921 23.7023C59.2474 22.9181 59.2167 22.1433 59.2 21.3779C59.1926 20.6126 59.1712 19.8378 59.1359 19.0537C59.0831 17.7842 58.7641 16.5883 58.1789 15.4662C58.0303 15.1763 57.8302 14.9702 57.5785 14.848C57.3362 14.7164 57.0751 14.6128 56.7953 14.5371C56.758 14.5276 56.7113 14.5228 56.6553 14.5226C56.4967 14.522 56.4077 14.629 56.3885 14.8436L56.3302 15.7394C56.3011 16.1966 56.2719 16.6492 56.2428 17.0971C56.2137 17.545 56.1985 17.9976 56.1974 18.4549C56.1968 18.6696 56.201 18.8843 56.2097 19.099C56.2185 19.3137 56.232 19.5284 56.2501 19.7431C56.249 20.1818 56.2619 20.6158 56.2888 21.0453C56.2955 22.0906 56.3021 23.1547 56.3087 24.2374C56.3153 25.3107 56.3453 26.3655 56.3987 27.4017L56.4522 28.4099C56.4609 28.6339 56.479 28.8627 56.5064 29.0961ZM52.7122 29.1942C52.6666 28.774 52.6396 28.3539 52.6314 27.9339C52.6048 27.3738 52.5782 26.809 52.5517 26.2396C52.5072 25.3621 52.4815 24.4707 52.4744 23.5653C52.4674 22.6506 52.465 21.7592 52.4672 20.8912C52.4491 20.6765 52.4356 20.4618 52.4268 20.2471C52.4181 20.0231 52.4139 19.8037 52.4145 19.589C52.3963 19.393 52.3828 19.1969 52.374 19.0009C52.3652 18.7955 52.361 18.5948 52.3615 18.3988C52.3628 17.8762 52.3828 17.3582 52.4214 16.8451C52.4694 16.3319 52.508 15.814 52.5374 15.2915C52.5665 14.8436 52.6096 14.4004 52.6667 13.9619C52.7049 13.6541 52.7894 13.435 52.9204 13.3049C53.0607 13.1747 53.2942 13.1056 53.6209 13.0974C54.0969 13.0992 54.5682 13.1102 55.0349 13.1306C55.5108 13.151 55.9867 13.1714 56.4627 13.1918C56.7706 13.2116 57.0645 13.2687 57.3443 13.3631C57.6241 13.4481 57.8991 13.5565 58.1694 13.6881C58.5983 13.895 58.9381 14.2043 59.1891 14.6159C59.5423 15.2145 59.8113 15.8408 59.9963 16.4948C60.1814 17.1395 60.315 17.8027 60.3973 18.4843C60.4705 19.0632 60.5064 19.642 60.5049 20.2207C60.5128 20.7901 60.5487 21.3642 60.6126 21.9431L60.5948 23.4411L60.6065 24.3371L60.6195 24.7292C60.6185 25.1212 60.5942 25.5084 60.5466 25.8909C60.5084 26.2361 60.4561 26.5812 60.3899 26.9263L60.4039 26.9264C60.4412 26.9359 60.4644 26.9966 60.4735 27.1086C60.4825 27.23 60.4866 27.4447 60.4858 27.7527L60.4823 29.1667C60.8649 29.1681 61.2569 29.1742 61.6582 29.185C61.9289 29.1953 62.1108 29.238 62.2039 29.313C62.3064 29.388 62.3574 29.5236 62.3569 29.7196L62.3126 30.6154C62.2936 30.7647 62.2466 30.8672 62.1718 30.9229C62.097 30.9786 61.9616 31.0061 61.7656 31.0054L61.5276 31.0045C61.2756 31.0036 61.0283 31.0027 60.7856 31.0018C60.5429 31.0103 60.3003 31.014 60.0576 31.0131C59.9923 31.0129 59.8849 31.0078 59.7356 30.998C59.5863 30.9974 59.4136 30.9921 59.2177 30.9821C59.0217 30.9813 58.8117 30.9759 58.5877 30.9657C58.3731 30.9556 58.1631 30.9455 57.9578 30.9354C57.7524 30.9347 57.5611 30.9293 57.3838 30.9193C57.2158 30.9187 57.0805 30.9182 56.9778 30.9178C56.7352 30.917 56.4925 30.9161 56.2498 30.9152C56.0165 30.9237 55.7831 30.9368 55.5497 30.9546L54.2897 30.95C53.9817 30.9489 53.669 30.957 53.3517 30.9745C53.0436 31.0014 52.7309 31.0236 52.4135 31.0411C52.2548 31.0592 52.0961 31.0679 51.9374 31.0674L51.6715 31.0524C51.3448 31.0325 51.1725 30.8966 51.1545 30.6445C51.1455 30.5045 51.1365 30.3644 51.1276 30.2244C51.1186 30.0844 51.1143 29.9443 51.1146 29.8043C51.1147 29.7577 51.1242 29.7064 51.143 29.6504C51.1525 29.6038 51.1666 29.5572 51.1854 29.5106C51.2512 29.3335 51.4101 29.2408 51.6621 29.2323C52.0075 29.2149 52.3575 29.2022 52.7122 29.1942ZM66.0351 30.8811C65.8391 30.8803 65.6431 30.8703 65.4471 30.8509C65.2605 30.8409 65.0692 30.8168 64.8733 30.7788C64.6588 30.7313 64.505 30.6514 64.4119 30.5391C64.3282 30.4361 64.2773 30.2679 64.2592 30.0345C64.178 28.9422 64.1107 27.8546 64.0575 26.7718C64.0135 25.6983 63.9929 24.6109 63.9957 23.5095L64.0125 22.4316C64.0336 21.4703 64.0453 20.5137 64.0477 19.5617C64.0595 18.6004 64.0899 17.6298 64.1391 16.65C64.1586 16.3328 64.178 16.0248 64.1974 15.7262C64.2262 15.4183 64.2596 15.1384 64.2976 14.8866L64.2977 14.8306C64.298 14.7093 64.2702 14.6205 64.2144 14.5643C64.1678 14.5081 64.0793 14.4705 63.9487 14.4513C63.7061 14.4224 63.4681 14.4075 63.2348 14.4067C63.1508 14.4064 63.0621 14.4061 62.9688 14.4057C62.8848 14.4054 62.8008 14.4098 62.7167 14.4188C62.6328 14.4091 62.5488 14.4042 62.4648 14.4039C62.3808 14.4036 62.3015 14.3939 62.2268 14.375C62.0869 14.3371 61.9751 14.2667 61.8914 14.1638C61.8076 14.0608 61.7659 13.9393 61.7663 13.7993L61.7664 13.7573C61.767 13.5053 61.8982 13.3144 62.1599 13.1847C62.2813 13.1385 62.4074 13.1156 62.538 13.1161L62.706 13.1307C63.6673 13.1436 64.6146 13.1564 65.5479 13.1692C66.4906 13.1726 67.4426 13.1761 68.4039 13.1796L69.3559 13.1831C69.5239 13.1837 69.7105 13.2078 69.9157 13.2552C70.0742 13.3024 70.1954 13.3822 70.2791 13.4945C70.3722 13.5975 70.4185 13.719 70.4182 13.859L70.4039 13.957C70.3849 14.1062 70.3192 14.232 70.207 14.3343C70.0947 14.4272 69.9499 14.478 69.7726 14.4867L68.5406 14.4821C68.4286 14.4817 68.3399 14.4861 68.2746 14.4952C68.2186 14.495 68.1765 14.5088 68.1484 14.5367C68.1204 14.5646 68.0969 14.6112 68.0781 14.6764C68.0686 14.7324 68.0591 14.8164 68.0495 14.9283C67.9446 15.7773 67.8771 16.6311 67.847 17.4896C67.8262 18.3389 67.8147 19.1882 67.8125 20.0375L67.8067 22.3335C67.7965 22.6601 67.7864 22.9914 67.7762 23.3274C67.7754 23.6541 67.7745 23.9807 67.7737 24.3074C67.7726 24.7461 67.7762 25.1847 67.7844 25.6234C67.7926 26.0528 67.8149 26.4869 67.8511 26.9257C67.8873 27.3832 67.9048 27.8359 67.9036 28.2839C67.9025 28.7412 67.9387 29.1987 68.0122 29.6563C68.0214 29.6843 68.026 29.7123 68.026 29.7403C68.0259 29.7777 68.0258 29.8103 68.0257 29.8383L68.011 30.1043C67.9825 30.3002 67.9168 30.454 67.8139 30.5656C67.7203 30.6772 67.5754 30.7467 67.3793 30.774C67.1552 30.8105 66.9312 30.8377 66.7071 30.8555C66.4831 30.8734 66.2591 30.8819 66.0351 30.8811ZM76.794 29.4925C76.9807 29.4932 77.1627 29.4612 77.3402 29.3965C77.5177 29.3318 77.6953 29.2578 77.8728 29.1745C78.1064 29.0633 78.3168 28.9334 78.5038 28.7848C78.6908 28.6454 78.8546 28.4594 78.9952 28.2266C79.1358 28.0031 79.2438 27.7235 79.3193 27.3877C79.4042 27.0521 79.4566 26.6369 79.4765 26.1423L79.4631 25.9043C79.4539 25.8389 79.4494 25.7782 79.4495 25.7222C79.4497 25.6569 79.4499 25.5869 79.4501 25.5122C79.4502 25.4469 79.4504 25.3862 79.4505 25.3302C79.4507 25.2649 79.4462 25.1995 79.437 25.1342C79.4106 24.5181 79.1734 24.2092 78.7254 24.2075C78.6134 24.2071 78.4733 24.23 78.3052 24.276C77.9783 24.3775 77.6467 24.4649 77.3105 24.5384C76.9744 24.6025 76.6382 24.6572 76.3021 24.7027C76.1621 24.7208 76.0686 24.7625 76.0218 24.8276C75.9843 24.8835 75.9654 24.9721 75.9651 25.0934L75.8893 27.4032L75.9033 27.4032C75.9027 27.6459 75.9021 27.8886 75.9014 28.1312C75.9008 28.3739 75.9049 28.6166 75.9136 28.8593C75.9224 29.0646 75.9594 29.2001 76.0246 29.2657C76.0897 29.3406 76.2249 29.4017 76.4301 29.4492C76.5514 29.4776 76.6727 29.4921 76.794 29.4925ZM76.0538 23.2597C76.1846 23.1949 76.3107 23.1394 76.4322 23.0931C76.563 23.0376 76.6938 22.9774 76.8247 22.9126C77.2171 22.7273 77.5397 22.4859 77.7925 22.1881C78.0546 21.8811 78.2375 21.5177 78.3413 21.0981C78.4639 20.5852 78.5585 20.0769 78.6251 19.5732C78.7011 19.0601 78.7397 18.5422 78.741 18.0196C78.7418 17.7302 78.7285 17.4409 78.7012 17.1514C78.674 16.862 78.6374 16.5678 78.5915 16.269C78.5546 16.0822 78.5037 15.9047 78.4388 15.7364C78.3739 15.5589 78.2904 15.3906 78.1881 15.2315C78.03 15.0163 77.8437 14.8569 77.6293 14.7535C77.4243 14.6407 77.2004 14.5839 76.9577 14.583C76.7151 14.5821 76.4956 14.628 76.2994 14.7206C76.2246 14.7577 76.1732 14.7995 76.1451 14.846C76.117 14.8833 76.1028 14.9392 76.1027 15.0139L76.0013 16.3575C75.9818 16.6748 75.967 16.9874 75.9569 17.2954C75.9561 17.6034 75.9553 17.916 75.9545 18.2334C75.9527 18.952 75.9602 19.666 75.9771 20.3754C75.9939 21.0848 76.0015 21.8035 75.9996 22.5315L75.9983 23.0635C75.9982 23.0822 76.0028 23.1102 76.0121 23.1476C76.0213 23.1756 76.0352 23.213 76.0538 23.2597ZM75.3905 30.8594C75.1012 30.8583 74.8119 30.8479 74.5226 30.8282C74.2427 30.8085 73.9628 30.7655 73.6829 30.6991C73.4684 30.6516 73.2679 30.5856 73.0814 30.5009C72.9043 30.4162 72.7225 30.3316 72.5361 30.2469C72.3496 30.1529 72.2286 30.0218 72.1731 29.8536C72.1268 29.6947 72.1039 29.522 72.1044 29.3353C72.0961 28.9153 72.0878 28.4952 72.0796 28.0752C72.0713 27.6645 72.0677 27.2492 72.0687 26.8292L72.1922 22.2936C72.1936 21.7616 72.1902 21.2296 72.1823 20.6975C72.1743 20.1562 72.1616 19.6195 72.1443 19.0874L72.1324 18.2613C72.1341 17.608 72.1544 16.9547 72.1934 16.3015C72.2324 15.6484 72.2667 14.9951 72.2963 14.3419C72.3063 14.0993 72.3628 13.9175 72.4657 13.7965C72.5781 13.6663 72.7696 13.5643 73.0405 13.4906C73.358 13.4078 73.6756 13.3343 73.9931 13.2701C74.3106 13.206 74.6327 13.1651 74.9594 13.1477L75.5334 13.1358C76.0841 13.1378 76.6346 13.1818 77.1851 13.2678C77.8941 13.3731 78.4721 13.6459 78.919 14.0862C79.3659 14.5265 79.6678 15.1016 79.8246 15.8115C79.8984 16.1571 79.9489 16.5027 79.976 16.8481C80.0125 17.1842 80.0303 17.525 80.0294 17.8703C80.0285 18.225 80.009 18.5842 79.9707 18.9481C79.9418 19.312 79.9035 19.6758 79.8559 20.0397C79.8085 20.3568 79.7563 20.674 79.6995 20.9911C79.6427 21.2989 79.5626 21.6019 79.4592 21.9002C79.3841 22.0679 79.2997 22.231 79.206 22.3893C79.1123 22.5476 79.0138 22.7106 78.9107 22.8782C79.0227 22.916 79.1252 22.9443 79.2185 22.9633C79.3118 22.9824 79.4004 23.0107 79.4843 23.0483C79.8199 23.2082 80.09 23.4192 80.2947 23.6813C80.5087 23.9341 80.6386 24.2472 80.6843 24.6207C80.7393 25.0129 80.7663 25.4097 80.7653 25.811C80.7651 25.895 80.7601 26.0257 80.7503 26.203C80.7406 26.3803 80.7261 26.5669 80.7069 26.7628C80.6971 26.9588 80.6826 27.1407 80.6635 27.3087C80.6444 27.4859 80.6301 27.6166 80.6205 27.7005C80.573 28.055 80.4742 28.3767 80.3241 28.6654C80.1834 28.9543 79.9867 29.2195 79.7341 29.4613C79.2851 29.861 78.8082 30.1859 78.3036 30.436C77.799 30.6862 77.2433 30.8195 76.6366 30.8359C76.4219 30.8445 76.2119 30.8484 76.0066 30.8476C75.8105 30.8562 75.6052 30.8601 75.3905 30.8594ZM83.4151 31.0288C83.0791 31.0276 82.8412 30.966 82.7015 30.8442C82.5712 30.7317 82.5018 30.4981 82.4933 30.1434C82.4844 29.9847 82.4755 29.8213 82.4666 29.6533C82.467 29.4946 82.4674 29.336 82.4678 29.1773L82.4831 28.6314L82.5152 27.0215C82.5165 26.5081 82.5038 25.9994 82.4771 25.4953C82.4597 24.9819 82.4517 24.4685 82.453 23.9552C82.454 23.5445 82.4691 23.1293 82.4981 22.7094L82.5004 21.8134C82.5301 21.1601 82.555 20.5116 82.5753 19.8676C82.605 19.2144 82.6206 18.5705 82.6222 17.9358C82.6238 17.3291 82.6113 16.7177 82.5849 16.1016L82.5728 15.3316C82.5734 15.1169 82.5739 14.9116 82.5744 14.7156C82.5842 14.5103 82.5941 14.3003 82.604 14.0857C82.6233 13.8151 82.6845 13.624 82.7874 13.5124C82.8904 13.3914 83.0773 13.3128 83.348 13.2764C83.7215 13.2218 84.1136 13.1952 84.5242 13.1967L84.8462 13.1979C85.3222 13.1997 85.7889 13.2014 86.2462 13.2031C86.7036 13.1954 87.1702 13.1924 87.6462 13.1942C88.4302 13.1971 89.2095 13.2139 89.9841 13.2448C90.0494 13.2543 90.1147 13.2639 90.18 13.2735C90.2454 13.2831 90.3107 13.2973 90.3759 13.3162C90.5065 13.3633 90.609 13.4384 90.6834 13.5413C90.7578 13.6443 90.7948 13.7564 90.7945 13.8777L90.7943 13.9617C90.7562 14.2509 90.5924 14.4323 90.3029 14.5059C90.2562 14.5151 90.2049 14.5242 90.1489 14.5334C90.1022 14.5332 90.0555 14.533 90.0089 14.5329L89.9109 14.5325C89.7989 14.5228 89.6869 14.5177 89.5749 14.5173C89.4722 14.5169 89.3649 14.5165 89.2529 14.5161C88.9916 14.5151 88.7302 14.5188 88.4689 14.5272C88.2075 14.5356 87.9462 14.544 87.6848 14.5523L87.3489 14.5231C87.2369 14.5227 87.1249 14.527 87.0128 14.5359C86.9008 14.5448 86.7888 14.5491 86.6768 14.5486C86.4901 14.548 86.3966 14.6363 86.3961 14.8136L86.3804 15.4856C86.3978 15.9896 86.4106 16.4937 86.4186 16.9977C86.436 17.5018 86.444 18.0105 86.4427 18.5238C86.4412 19.1398 86.4303 19.7604 86.41 20.3857C86.3898 21.0016 86.3604 21.5615 86.3218 22.0654C86.3122 22.168 86.3073 22.2707 86.307 22.3733C86.3067 22.476 86.3065 22.5787 86.3062 22.6813L86.3057 22.8773C86.3055 22.9613 86.31 23.0267 86.3192 23.0734C86.3284 23.1201 86.3517 23.1575 86.3889 23.1856C86.4262 23.2138 86.4775 23.2326 86.5428 23.2422C86.6174 23.2518 86.7154 23.2568 86.8368 23.2573L87.1587 23.2725L87.7888 23.2608C87.9008 23.2612 88.0127 23.2663 88.1247 23.276C88.2367 23.2764 88.3487 23.2955 88.4606 23.3332C88.6098 23.3805 88.7216 23.4649 88.7959 23.5865C88.8797 23.6988 88.9213 23.8203 88.921 23.9509C88.9208 24.0256 88.916 24.0816 88.9066 24.1189C88.8782 24.2588 88.8079 24.3799 88.6957 24.4821C88.5928 24.5751 88.4713 24.6213 88.3313 24.6208L88.2054 24.6063C88.1121 24.5873 88.0234 24.5776 87.9394 24.5773C87.8554 24.5677 87.7668 24.5627 87.6735 24.5624L87.0294 24.574L86.6094 24.5725C86.4881 24.572 86.404 24.5997 86.3572 24.6555C86.3198 24.7021 86.3009 24.786 86.3006 24.9073L86.3003 25.0193C86.3185 25.2154 86.3273 25.4114 86.3268 25.6074C86.3263 25.7941 86.3259 25.9854 86.3254 26.1814C86.3243 26.5828 86.3188 26.9327 86.3087 27.2314C86.3079 27.53 86.3026 27.7914 86.2927 28.0153C86.2921 28.2487 86.2869 28.454 86.2772 28.6313C86.2767 28.8179 86.2762 28.9999 86.2758 29.1773C86.2753 29.3733 86.289 29.4993 86.3168 29.5554C86.3447 29.6209 86.4286 29.6538 86.5686 29.6543L89.7889 29.5121C89.9196 29.5126 90.0362 29.5317 90.1388 29.5694C90.4185 29.6731 90.558 29.865 90.5573 30.145L90.5573 30.173C90.5566 30.425 90.4302 30.6112 90.1778 30.7316C90.0751 30.7779 89.9723 30.8055 89.8696 30.8145C89.7763 30.8234 89.6783 30.8277 89.5756 30.8274C88.9876 30.8439 88.4042 30.8697 87.8254 30.905C87.256 30.9402 86.6819 30.9568 86.1033 30.9546C86.0473 30.9544 85.9726 30.9542 85.8793 30.9538C85.7859 30.9628 85.6879 30.9671 85.5852 30.9667L85.2352 30.9655C84.9366 30.9644 84.6332 30.9726 84.3252 30.9901C84.0264 31.017 83.7231 31.0299 83.4151 31.0288ZM96.6273 23.3352C96.6833 23.3354 96.744 23.3309 96.8093 23.3219C96.884 23.3128 96.9681 23.2991 97.0614 23.2808C97.0894 23.2809 97.1174 23.2763 97.1455 23.2671C97.1735 23.2579 97.1968 23.2486 97.2155 23.2393C97.7198 23.1199 98.0937 22.8972 98.3372 22.5714C98.5901 22.2457 98.7497 21.845 98.8163 21.3692C98.8636 21.0987 98.8969 20.8422 98.9162 20.5996C98.9449 20.3477 98.9687 20.1564 98.9877 20.0258C98.9971 19.9792 99.0019 19.9325 99.002 19.8859C99.0022 19.8392 99.0023 19.7925 99.0024 19.7459C99.0026 19.6525 98.9982 19.5685 98.989 19.4938C98.9892 19.4098 98.9894 19.3352 98.9896 19.2698C98.9456 18.215 98.7615 17.1923 98.4374 16.2018C98.3077 15.8093 98.1125 15.4959 97.8517 15.2616C97.591 15.018 97.2788 14.8255 96.9152 14.6842C96.8406 14.6652 96.7659 14.651 96.6913 14.6414C96.6167 14.6224 96.5421 14.6035 96.4674 14.5845L96.3555 14.5701C96.1968 14.5696 96.1173 14.6579 96.1168 14.8353L96.1293 15.4373C96.1463 16.0814 96.1587 16.7114 96.1665 17.3275C96.1836 17.9342 96.2009 18.4803 96.2184 18.9657C96.2172 19.4137 96.2158 19.9597 96.2142 20.6037C96.2126 21.2383 96.2156 21.8963 96.2232 22.5777C96.2225 22.867 96.2453 23.0678 96.2917 23.18C96.3381 23.2828 96.45 23.3345 96.6273 23.3352ZM93.43 30.9395C93.3834 30.9393 93.332 30.9345 93.2761 30.9249C93.2294 30.9248 93.1827 30.9199 93.1361 30.9104C92.623 30.8245 92.3624 30.5203 92.3544 29.9976C92.3279 29.4001 92.3108 28.7794 92.3031 28.1354C92.2954 27.5007 92.2877 26.8613 92.28 26.2173C92.2816 25.5733 92.2832 24.9339 92.2848 24.2993C92.2865 23.6553 92.288 23.0393 92.2895 22.4513L92.2946 20.4493C92.2958 19.9733 92.2923 19.5066 92.2841 19.0492C92.2853 18.5826 92.2772 18.1159 92.2597 17.6491C92.2423 17.1357 92.2296 16.6223 92.2216 16.109C92.2229 15.5957 92.2148 15.0823 92.1975 14.5689L92.198 14.3449C92.2084 13.9529 92.2837 13.6825 92.4241 13.5337C92.5738 13.3756 92.8447 13.2833 93.2368 13.2567L93.7688 13.2446L94.8048 13.2624L95.9248 13.2665L96.4847 13.2966C97.2778 13.3928 97.9445 13.6473 98.4848 14.0599C99.0344 14.4726 99.4342 15.0714 99.6842 15.8563C100.045 16.987 100.252 18.1358 100.306 19.3026L100.305 19.4286C100.305 19.5033 100.305 19.6153 100.304 19.7646C100.304 19.9046 100.294 20.0959 100.275 20.3385C100.256 20.5251 100.227 20.749 100.189 21.0102C100.151 21.2714 100.109 21.5373 100.061 21.8078C99.995 22.1529 99.8774 22.4931 99.7086 22.8285C99.5491 23.1546 99.329 23.4478 99.0484 23.7081C98.777 23.9684 98.4452 24.1819 98.0527 24.3484C97.6603 24.5056 97.2075 24.588 96.6941 24.5954C96.5074 24.5948 96.3907 24.6083 96.344 24.6362C96.2973 24.664 96.2737 24.7479 96.2734 24.8879L96.2706 25.9939C96.2697 26.3206 96.2642 26.6519 96.254 26.9878C96.2532 27.3238 96.2523 27.6598 96.2515 27.9958C96.2511 28.1452 96.2507 28.2945 96.2504 28.4438C96.25 28.5932 96.2543 28.7425 96.2632 28.8919L96.316 30.1521C96.3151 30.5161 96.1279 30.7441 95.7543 30.836C95.6796 30.8544 95.6049 30.8635 95.5302 30.8632C95.4649 30.8723 95.3949 30.8814 95.3202 30.8904C95.0215 30.908 94.7228 30.9162 94.4241 30.9152C94.1254 30.9234 93.8267 30.9316 93.528 30.9399L93.43 30.9395ZM106.135 29.2781L106.961 29.2811C107.307 29.0677 107.611 28.8215 107.873 28.5424C108.322 28.0774 108.618 27.4812 108.759 26.7537C108.826 26.4273 108.868 26.0961 108.888 25.7602C108.917 25.4243 108.932 25.093 108.932 24.7663L108.921 23.8843C108.876 23.1001 108.845 22.3253 108.829 21.5599C108.821 20.7945 108.8 20.0198 108.764 19.2357C108.712 17.9661 108.393 16.7703 107.808 15.6481C107.659 15.3583 107.459 15.1522 107.207 15.0299C106.965 14.8984 106.704 14.7947 106.424 14.7191C106.387 14.7096 106.34 14.7047 106.284 14.7045C106.125 14.704 106.036 14.811 106.017 15.0256L105.959 15.9214C105.93 16.3786 105.901 16.8311 105.871 17.279C105.842 17.7269 105.827 18.1796 105.826 18.6369C105.825 18.8515 105.83 19.0662 105.838 19.2809C105.847 19.4956 105.861 19.7104 105.879 19.9251C105.878 20.3637 105.89 20.7978 105.917 21.2272C105.924 22.2726 105.931 23.3366 105.937 24.4193C105.944 25.4927 105.974 26.5475 106.027 27.5837L106.081 28.5919C106.09 28.8159 106.108 29.0446 106.135 29.2781ZM102.341 29.3762C102.295 28.956 102.268 28.5359 102.26 28.1159C102.233 27.5558 102.207 26.991 102.18 26.4216C102.136 25.5441 102.11 24.6526 102.103 23.7473C102.096 22.8326 102.094 21.9412 102.096 21.0732C102.078 20.8585 102.064 20.6438 102.055 20.4291C102.047 20.205 102.043 19.9857 102.043 19.771C102.025 19.575 102.011 19.3789 102.003 19.1829C101.994 18.9775 101.99 18.7768 101.99 18.5808C101.991 18.0582 102.011 17.5402 102.05 17.027C102.098 16.5139 102.137 15.996 102.166 15.4734C102.195 15.0255 102.238 14.5824 102.295 14.1439C102.333 13.836 102.418 13.617 102.549 13.4868C102.689 13.3567 102.923 13.2875 103.25 13.2794C103.726 13.2811 104.197 13.2922 104.663 13.3126C105.139 13.333 105.615 13.3534 106.091 13.3738C106.399 13.3936 106.693 13.4507 106.973 13.5451C107.253 13.6301 107.528 13.7384 107.798 13.8701C108.227 14.077 108.567 14.3862 108.818 14.7978C109.171 15.3965 109.44 16.0228 109.625 16.6768C109.81 17.3215 109.944 17.9846 110.026 18.6663C110.099 19.2452 110.135 19.824 110.133 20.4027C110.141 20.9721 110.177 21.5462 110.241 22.1251L110.223 23.623L110.235 24.5191L110.248 24.9111C110.247 25.3031 110.223 25.6904 110.175 26.0729C110.137 26.4181 110.085 26.7632 110.019 27.1083L110.033 27.1084C110.07 27.1178 110.093 27.1786 110.102 27.2906C110.111 27.412 110.115 27.6267 110.114 27.9347L110.111 29.3487C110.494 29.3501 110.885 29.3562 111.287 29.367C111.557 29.3773 111.739 29.42 111.832 29.495C111.935 29.57 111.986 29.7055 111.985 29.9015L111.941 30.7974C111.922 30.9466 111.875 31.0491 111.8 31.1049C111.726 31.1606 111.59 31.1881 111.394 31.1874L111.156 31.1865C110.904 31.1856 110.657 31.1847 110.414 31.1838C110.172 31.1922 109.929 31.196 109.686 31.1951C109.621 31.1949 109.514 31.1898 109.364 31.1799C109.215 31.1794 109.042 31.1741 108.846 31.164C108.65 31.1633 108.44 31.1579 108.216 31.1477C108.002 31.1376 107.792 31.1275 107.586 31.1174C107.381 31.1167 107.19 31.1113 107.012 31.1013C106.844 31.1007 106.709 31.1002 106.606 31.0998C106.364 31.0989 106.121 31.098 105.878 31.0972C105.645 31.1056 105.412 31.1188 105.178 31.1366L103.918 31.132C103.61 31.1308 103.298 31.139 102.98 31.1565C102.672 31.1834 102.359 31.2056 102.042 31.2231C101.883 31.2412 101.725 31.2499 101.566 31.2493L101.3 31.2344C100.973 31.2145 100.801 31.0785 100.783 30.8265C100.774 30.6864 100.765 30.5464 100.756 30.4064C100.747 30.2663 100.743 30.1263 100.743 29.9863C100.743 29.9396 100.753 29.8883 100.772 29.8324C100.781 29.7858 100.795 29.7392 100.814 29.6926C100.88 29.5155 101.039 29.4227 101.291 29.4143C101.636 29.3969 101.986 29.3842 102.341 29.3762ZM117.344 31.0132C117.129 31.0031 116.966 30.9418 116.854 30.8294C116.742 30.7263 116.687 30.5814 116.687 30.3948L116.716 30.1849C116.754 30.0264 116.773 29.8678 116.773 29.7091C116.783 29.5505 116.797 29.3918 116.816 29.2332C116.835 29.0373 116.85 28.7574 116.86 28.3934C116.88 28.0295 116.895 27.6282 116.905 27.1896C116.925 26.7603 116.936 26.317 116.937 25.8597C116.947 25.393 116.953 24.9637 116.954 24.5717C116.964 24.1704 116.97 23.8251 116.971 23.5358C116.981 23.2465 116.986 23.0598 116.986 22.9758C116.987 22.5465 116.984 22.0938 116.976 21.6178C116.967 21.1324 116.964 20.6377 116.965 20.1337L116.966 19.7697C116.966 19.7137 116.948 19.681 116.91 19.6715C116.864 19.7087 116.831 19.7552 116.812 19.8112C116.803 19.8578 116.789 19.9091 116.77 19.965C116.581 20.6457 116.393 21.3263 116.205 22.007C116.016 22.6876 115.818 23.3682 115.611 24.0488C115.338 24.9531 115.084 25.8529 114.849 26.748C114.613 27.6432 114.321 28.4914 113.974 29.2928C113.88 29.5071 113.791 29.7168 113.707 29.9218C113.622 30.1269 113.528 30.3272 113.425 30.5228C113.275 30.8303 113.055 30.9835 112.766 30.9824L112.556 30.9536C112.155 30.8682 111.941 30.5967 111.914 30.1393C111.914 30.0833 111.914 30.0273 111.914 29.9713C111.924 29.9153 111.933 29.8593 111.943 29.8034C112.001 28.7583 112.069 27.6945 112.147 26.6121C112.234 25.5204 112.32 24.4194 112.407 23.309C112.484 22.32 112.538 21.3402 112.569 20.3696C112.599 19.3897 112.616 18.4051 112.618 17.4158C112.619 17.0331 112.62 16.6551 112.621 16.2818C112.622 15.9085 112.618 15.5491 112.61 15.2037L112.599 13.9717C112.609 13.7851 112.665 13.6406 112.768 13.5383C112.88 13.4267 113.02 13.3619 113.188 13.3438L113.216 13.3439C113.375 13.3445 113.51 13.3917 113.622 13.4854C113.734 13.5792 113.808 13.7148 113.845 13.8923C113.864 13.9857 113.873 14.079 113.872 14.1724C113.872 14.2657 113.877 14.359 113.886 14.4524C113.904 14.6951 113.912 14.9565 113.912 15.2365C113.92 15.5072 113.924 15.7826 113.924 16.0626L113.903 18.5825C113.901 19.6558 113.865 20.7197 113.797 21.7741C113.729 22.8286 113.656 23.8876 113.579 24.9514C113.56 25.0819 113.546 25.2172 113.536 25.3572C113.526 25.4878 113.521 25.6231 113.521 25.7631C113.521 25.8471 113.525 25.9358 113.534 26.0292C113.543 26.1132 113.557 26.2019 113.576 26.2953C113.604 26.2208 113.632 26.1509 113.66 26.0857C113.688 26.0204 113.712 25.9505 113.731 25.8759C113.891 25.3352 114.046 24.7991 114.197 24.2676C114.357 23.7362 114.512 23.2001 114.663 22.6593C115.068 21.2141 115.468 19.7829 115.864 18.3657C116.269 16.9392 116.58 15.4983 116.799 14.0431C116.827 13.8285 116.893 13.6701 116.996 13.5678C117.108 13.4656 117.281 13.4055 117.514 13.3877C117.785 13.37 118.051 13.357 118.312 13.3486C118.574 13.3403 118.84 13.3366 119.111 13.3376C119.503 13.339 119.885 13.3544 120.258 13.3838C120.482 13.4033 120.655 13.4786 120.776 13.6097C120.906 13.7408 120.971 13.9137 120.971 14.1284L120.97 14.4504C120.969 14.6837 120.973 14.9171 120.982 15.1504C120.991 15.3745 120.995 15.6032 120.994 15.8365L120.993 16.1165C120.974 16.5364 120.963 16.9704 120.962 17.4184C120.961 17.8664 120.96 18.319 120.959 18.7764C120.957 19.2804 120.956 19.7797 120.955 20.2744C120.963 20.7597 120.976 21.2544 120.993 21.7585L121.006 22.4166L121.005 22.6406C121.005 22.7992 120.999 23.0185 120.989 23.2985C120.989 23.5692 120.983 23.8725 120.973 24.2085C120.963 24.5444 120.953 24.9037 120.942 25.2864C120.932 25.6596 120.922 26.0283 120.911 26.3922C120.911 26.7469 120.905 27.0829 120.895 27.4002C120.885 27.7268 120.879 28.0021 120.879 28.2261C120.878 28.5155 120.863 28.8001 120.835 29.08C120.806 29.3692 120.782 29.6585 120.762 29.9477C120.762 30.1157 120.734 30.2836 120.677 30.4514C120.574 30.8057 120.34 30.9822 119.976 30.9808C119.537 30.9886 119.098 30.9963 118.66 31.004C118.23 31.0118 117.792 31.0148 117.344 31.0132ZM126.136 31.1014C125.94 31.1007 125.744 31.0907 125.548 31.0713C125.362 31.0613 125.17 31.0372 124.974 30.9992C124.76 30.9517 124.606 30.8718 124.513 30.7595C124.429 30.6565 124.378 30.4883 124.36 30.2549C124.279 29.1626 124.212 28.075 124.159 26.9922C124.115 25.9187 124.094 24.8312 124.097 23.7299L124.114 22.652C124.135 21.6907 124.146 20.7341 124.149 19.7821C124.161 18.8208 124.191 17.8502 124.24 16.8704C124.26 16.5531 124.279 16.2452 124.299 15.9466C124.327 15.6387 124.361 15.3588 124.399 15.107L124.399 15.051C124.399 14.9296 124.371 14.8409 124.316 14.7847C124.269 14.7285 124.18 14.6908 124.05 14.6717C123.807 14.6428 123.569 14.6279 123.336 14.6271C123.252 14.6268 123.163 14.6264 123.07 14.6261C122.986 14.6258 122.902 14.6301 122.818 14.6392C122.734 14.6295 122.65 14.6245 122.566 14.6242C122.482 14.6239 122.403 14.6143 122.328 14.5954C122.188 14.5575 122.076 14.4871 121.993 14.3841C121.909 14.2812 121.867 14.1597 121.867 14.0197L121.868 13.9777C121.868 13.7257 121.999 13.5348 122.261 13.4051C122.382 13.3589 122.509 13.336 122.639 13.3365L122.807 13.3511C123.768 13.364 124.716 13.3768 125.649 13.3895C126.592 13.393 127.544 13.3965 128.505 13.4L129.457 13.4035C129.625 13.4041 129.812 13.4281 130.017 13.4756C130.175 13.5228 130.297 13.6026 130.38 13.7149C130.473 13.8179 130.52 13.9394 130.519 14.0794L130.505 14.1773C130.486 14.3266 130.42 14.4524 130.308 14.5546C130.196 14.6475 130.051 14.6984 129.874 14.707L128.642 14.7025C128.53 14.7021 128.441 14.7064 128.376 14.7155C128.32 14.7153 128.278 14.7292 128.25 14.7571C128.222 14.785 128.198 14.8316 128.179 14.8968C128.17 14.9528 128.16 15.0368 128.151 15.1487C128.046 15.9977 127.978 16.8514 127.948 17.71C127.927 18.5593 127.916 19.4086 127.914 20.2579L127.908 22.5539C127.898 22.8805 127.888 23.2118 127.877 23.5478C127.877 23.8744 127.876 24.2011 127.875 24.5278C127.874 24.9664 127.877 25.4051 127.886 25.8438C127.894 26.2732 127.916 26.7073 127.952 27.1461C127.988 27.6035 128.006 28.0563 128.005 28.5043C128.004 28.9616 128.04 29.4191 128.113 29.8767C128.123 29.9047 128.127 29.9327 128.127 29.9607C128.127 29.9981 128.127 30.0307 128.127 30.0587L128.112 30.3247C128.084 30.5206 128.018 30.6743 127.915 30.786C127.821 30.8976 127.677 30.9671 127.48 30.9944C127.256 31.0309 127.032 31.058 126.808 31.0759C126.584 31.0937 126.36 31.1023 126.136 31.1014ZM136.637 21.0179C136.46 21.0172 136.348 21.0728 136.301 21.1846C136.254 21.2871 136.23 21.4831 136.229 21.7724C136.218 22.4537 136.212 23.1163 136.21 23.7603C136.209 24.395 136.207 24.9363 136.206 25.3843C136.186 25.8696 136.166 26.4155 136.146 27.0221C136.135 27.6381 136.119 28.268 136.099 28.9119L136.084 29.5139C136.083 29.6912 136.162 29.7802 136.321 29.7808L136.433 29.7672C136.508 29.7488 136.582 29.7304 136.657 29.712C136.732 29.7029 136.807 29.6892 136.881 29.6708C137.246 29.5322 137.559 29.342 137.821 29.1003C138.083 28.8679 138.279 28.5559 138.411 28.1644C138.74 27.1763 138.93 26.155 138.979 25.1005C138.979 25.0352 138.979 24.9652 138.979 24.8905C138.989 24.8065 138.994 24.7179 138.994 24.6245C138.994 24.5779 138.994 24.5312 138.994 24.4845C138.995 24.4379 138.99 24.3912 138.981 24.3445C138.962 24.2138 138.94 24.027 138.912 23.7842C138.894 23.5322 138.862 23.2707 138.816 22.9999C138.752 22.5236 138.594 22.1217 138.343 21.7941C138.101 21.4666 137.729 21.2412 137.225 21.118C137.206 21.1086 137.183 21.0992 137.155 21.0898C137.127 21.0803 137.099 21.0756 137.071 21.0755C136.978 21.0565 136.894 21.0421 136.819 21.0325C136.754 21.023 136.693 21.0181 136.637 21.0179ZM133.478 13.3902L133.576 13.3906C133.875 13.401 134.174 13.4115 134.472 13.4219C134.771 13.423 135.07 13.4334 135.368 13.4532C135.443 13.4628 135.513 13.4724 135.578 13.4819C135.653 13.4822 135.728 13.4918 135.802 13.5108C136.175 13.6055 136.361 13.8348 136.36 14.1988L136.301 15.4586C136.292 15.6079 136.286 15.7572 136.286 15.9066C136.286 16.0559 136.285 16.2052 136.285 16.3546C136.284 16.6906 136.283 17.0266 136.282 17.3626C136.291 17.6986 136.295 18.0299 136.294 18.3566L136.291 19.4626C136.291 19.6026 136.314 19.6867 136.36 19.7149C136.407 19.743 136.524 19.7574 136.71 19.7581C137.224 19.7694 137.676 19.8597 138.068 20.0291C138.459 20.1892 138.79 20.4004 139.06 20.6628C139.339 20.9251 139.558 21.2246 139.716 21.5612C139.883 21.8884 139.999 22.2249 140.063 22.5704C140.109 22.8413 140.151 23.1074 140.187 23.3689C140.224 23.6304 140.251 23.8545 140.27 24.0412C140.288 24.2839 140.296 24.48 140.296 24.6293C140.296 24.7693 140.295 24.8766 140.295 24.9513L140.295 25.0773C140.236 26.2438 140.023 27.391 139.656 28.519C139.402 29.3021 138.999 29.8979 138.448 30.3066C137.905 30.7152 137.237 30.9648 136.444 31.0552L135.884 31.0812L134.764 31.0771L133.728 31.0873L133.196 31.0713C132.804 31.0419 132.533 30.9476 132.384 30.7883C132.245 30.6385 132.171 30.3676 132.162 29.9755L132.163 29.7515C132.183 29.2383 132.194 28.725 132.195 28.2116C132.206 27.6983 132.221 27.1851 132.241 26.6718C132.261 26.2052 132.271 25.7432 132.272 25.2859C132.283 24.8193 132.289 24.3479 132.29 23.872L132.295 21.87C132.296 21.282 132.298 20.6706 132.3 20.036C132.301 19.392 132.303 18.748 132.305 18.104C132.316 17.46 132.326 16.8207 132.337 16.1861C132.348 15.5421 132.369 14.9215 132.398 14.3243C132.409 13.8017 132.671 13.4993 133.184 13.4172C133.231 13.408 133.278 13.4035 133.324 13.4037C133.38 13.3946 133.432 13.3901 133.478 13.3902ZM152.686 31.1568C152.509 31.1561 152.332 31.1555 152.154 31.1548C151.986 31.1542 151.809 31.1442 151.622 31.1249C151.398 31.1054 151.193 31.03 151.007 30.8986C150.821 30.7766 150.648 30.636 150.49 30.4767C150.08 30.0179 149.764 29.5267 149.542 29.0032C149.319 28.4798 149.162 27.9238 149.07 27.3355C149.052 27.1674 149.033 26.9994 149.015 26.8313C149.006 26.6633 149.002 26.4952 149.002 26.3272C149.003 26.0006 149.018 25.6786 149.047 25.3614C149.085 25.0349 149.128 24.7084 149.175 24.3819C149.251 23.9808 149.457 23.7809 149.793 23.7821L149.849 23.7823C150.026 23.7923 150.171 23.8582 150.282 23.9799C150.394 24.1017 150.45 24.2605 150.449 24.4565L150.449 24.5685C150.449 24.6992 150.439 24.8298 150.42 24.9604C150.41 25.0911 150.396 25.2217 150.377 25.3523C150.358 25.5109 150.339 25.6648 150.32 25.8141C150.31 25.9634 150.305 26.1174 150.305 26.276C150.302 27.2 150.524 28.0828 150.97 28.9245C151.128 29.2237 151.347 29.4532 151.626 29.6129C151.906 29.7726 152.195 29.853 152.494 29.8541C152.68 29.8548 152.862 29.8274 153.04 29.7721C153.217 29.7167 153.385 29.624 153.544 29.4939C153.647 29.4103 153.732 29.3079 153.797 29.1868C153.863 29.0751 153.919 28.9586 153.966 28.8375C154.051 28.5951 154.112 28.3573 154.15 28.1241C154.188 27.8909 154.207 27.653 154.208 27.4103C154.209 27.1117 154.181 26.8176 154.126 26.528C154.08 26.2385 154.015 25.9443 153.932 25.6453C153.914 25.5799 153.886 25.5238 153.849 25.477C153.811 25.4209 153.774 25.3647 153.737 25.3086C153.635 25.1402 153.518 25.0558 153.388 25.0553C153.313 25.055 153.229 25.0827 153.136 25.1384C153.098 25.1663 153.056 25.1894 153.009 25.2079C152.972 25.2171 152.93 25.231 152.883 25.2495C152.79 25.2678 152.72 25.2769 152.673 25.2767C152.431 25.2758 152.253 25.1818 152.142 24.9947C152.068 24.8731 152.03 24.7517 152.031 24.6303C152.031 24.4717 152.092 24.3179 152.214 24.169C152.279 24.1039 152.354 24.0435 152.438 23.9878C152.738 23.7836 152.981 23.5418 153.168 23.2625C153.356 22.9832 153.506 22.6757 153.619 22.3401C153.703 22.0978 153.774 21.7807 153.831 21.3889C153.897 20.9972 153.936 20.61 153.946 20.2273L153.963 19.0094C153.964 18.7014 153.96 18.3934 153.951 18.0853C153.943 17.768 153.925 17.4506 153.898 17.1331C153.88 16.8531 153.839 16.5776 153.774 16.3067C153.719 16.0358 153.649 15.7649 153.566 15.4939C153.427 15.0734 153.213 14.8626 152.924 14.8616C152.784 14.861 152.611 14.9024 152.405 14.9857C151.985 15.1708 151.639 15.4448 151.367 15.8079C151.058 16.2267 150.819 16.6692 150.65 17.1352C150.481 17.6013 150.367 18.0909 150.31 18.604L150.295 18.8419C150.295 18.9726 150.304 19.108 150.322 19.248C150.35 19.3881 150.382 19.5236 150.419 19.6544C150.447 19.7385 150.461 19.8226 150.461 19.9066C150.46 20.1866 150.324 20.3727 150.053 20.4651C149.979 20.4928 149.904 20.5065 149.829 20.5062C149.549 20.5052 149.344 20.3645 149.214 20.084C149.066 19.7194 148.992 19.3318 148.993 18.9212C148.993 18.8558 148.994 18.7952 148.994 18.7392C148.994 18.6738 148.999 18.6085 149.008 18.5432C149.066 17.9648 149.184 17.4099 149.362 16.8785C149.541 16.3472 149.79 15.8347 150.108 15.3412C150.464 14.7825 150.89 14.3454 151.386 14.0299C151.881 13.7051 152.465 13.5252 153.137 13.4903L154.173 13.4941L155.209 13.5119C155.657 13.5322 156.021 13.6549 156.3 13.8799C156.579 14.0956 156.803 14.3951 156.97 14.7784C157.239 15.4047 157.401 16.054 157.455 16.7262C157.491 17.0623 157.518 17.3984 157.536 17.7345C157.563 18.0613 157.577 18.3646 157.576 18.6446L157.575 18.9386C157.555 19.6386 157.53 20.2778 157.5 20.8564C157.48 21.435 157.4 21.948 157.258 22.3955C157.183 22.6286 157.103 22.8569 157.019 23.0806C156.944 23.3043 156.84 23.5186 156.709 23.7235C156.69 23.7701 156.672 23.812 156.653 23.8493C156.634 23.8772 156.625 23.9098 156.625 23.9472C156.624 24.0032 156.652 24.0593 156.708 24.1155C156.95 24.359 157.141 24.6117 157.28 24.8736C157.429 25.1355 157.54 25.4112 157.614 25.7008C157.688 25.9904 157.734 26.2846 157.752 26.5833C157.77 26.8821 157.778 27.1854 157.778 27.4934L157.777 27.8294C157.775 28.5574 157.577 29.2567 157.183 29.9273C156.865 30.4674 156.392 30.8157 155.767 30.9721C155.412 31.0641 155.062 31.1188 154.716 31.1362C154.38 31.1537 154.035 31.1617 153.68 31.1604L152.686 31.1568ZM163.326 20.3737C163.325 20.8217 163.338 21.2651 163.365 21.7039C163.391 22.1426 163.414 22.5861 163.431 23.0341C163.431 23.1555 163.454 23.2442 163.501 23.3004C163.547 23.3566 163.64 23.3942 163.78 23.4134C163.892 23.4232 164.004 23.4329 164.116 23.4426C164.228 23.4431 164.34 23.4435 164.452 23.4439C164.788 23.4451 165.12 23.4323 165.446 23.4055C165.782 23.3694 166.118 23.338 166.455 23.3112C166.585 23.3024 166.688 23.2887 166.763 23.2703C166.837 23.2426 166.893 23.2055 166.931 23.159C166.968 23.1124 166.992 23.0472 167.001 22.9632C167.011 22.8793 167.021 22.7673 167.03 22.6273C167.03 22.5247 167.031 22.422 167.031 22.3193C167.041 22.2074 167.046 22.1 167.046 21.9974C167.047 21.3814 167.026 20.77 166.98 20.1631C166.945 19.5563 166.904 18.9448 166.859 18.3287C166.832 18.0579 166.795 17.7918 166.749 17.5303C166.712 17.2688 166.662 17.0026 166.597 16.7317C166.523 16.4234 166.407 16.1383 166.249 15.8764C166.101 15.6145 165.924 15.3666 165.719 15.1325C165.589 14.9733 165.445 14.8701 165.286 14.8229C165.127 14.7663 164.96 14.7377 164.782 14.737C164.708 14.7368 164.633 14.7412 164.558 14.7502C164.484 14.7499 164.409 14.7543 164.334 14.7634C164.119 14.7813 163.975 14.8647 163.9 15.0138C163.824 15.1535 163.754 15.2979 163.688 15.447C163.388 16.1833 163.237 16.962 163.234 17.7834C163.234 17.8394 163.234 17.8954 163.234 17.9514C163.243 18.0074 163.248 18.0634 163.248 18.1194C163.256 18.4648 163.265 18.8102 163.273 19.1555C163.291 19.4916 163.309 19.837 163.326 20.1917L163.326 20.3737ZM159.664 23.3143C159.629 22.4089 159.594 21.5127 159.559 20.6259C159.534 19.7392 159.512 18.8477 159.496 17.9517C159.496 17.9143 159.492 17.877 159.482 17.8396C159.482 17.8023 159.483 17.765 159.483 17.7276C159.493 17.1957 159.551 16.6779 159.655 16.1742C159.768 15.6707 159.937 15.1766 160.162 14.6921C160.481 13.9653 161.024 13.5706 161.789 13.5081C162.135 13.472 162.475 13.4499 162.811 13.4418C163.157 13.4244 163.502 13.4163 163.848 13.4176C164.296 13.4192 164.744 13.4349 165.191 13.4645C165.509 13.4844 165.793 13.5694 166.045 13.7197C166.296 13.8606 166.525 14.0528 166.729 14.2962C167.036 14.6706 167.297 15.0683 167.51 15.489C167.724 15.9005 167.867 16.349 167.941 16.8346C168.069 17.6564 168.165 18.4688 168.229 19.2717C168.301 20.0653 168.337 20.8728 168.335 21.6941C168.334 21.9741 168.329 22.2541 168.318 22.534C168.308 22.8047 168.294 23.08 168.274 23.3599C168.255 23.6118 168.236 23.8638 168.216 24.1157C168.207 24.3583 168.201 24.6056 168.201 24.8576C168.2 25.1563 168.208 25.4503 168.226 25.7397C168.254 26.0198 168.29 26.3093 168.336 26.6081C168.363 26.9909 168.381 27.3596 168.389 27.7143C168.407 28.0784 168.425 28.4238 168.443 28.7505C168.461 29.0866 168.488 29.404 168.524 29.7028C168.561 30.0017 168.616 30.2725 168.69 30.5155C168.709 30.5902 168.718 30.6416 168.718 30.6696C168.717 30.8562 168.619 31.0099 168.423 31.1305C168.301 31.2047 168.184 31.2416 168.072 31.2412C167.942 31.2407 167.811 31.2029 167.681 31.1278C167.578 31.0527 167.499 30.9638 167.443 30.8609C167.388 30.758 167.351 30.6412 167.332 30.5105C167.305 30.3237 167.273 30.1323 167.236 29.9361C167.199 29.74 167.181 29.5439 167.181 29.3479C167.173 28.8346 167.151 28.3725 167.115 27.9617C167.088 27.5509 167.056 27.1774 167.02 26.8413C166.992 26.4959 166.965 26.1784 166.938 25.889C166.911 25.5902 166.897 25.2962 166.898 25.0069L166.899 24.8809C166.899 24.6942 166.811 24.6005 166.633 24.5999L166.535 24.5995C166.209 24.6263 165.877 24.6578 165.541 24.6939C165.214 24.73 164.888 24.7475 164.561 24.7463C164.328 24.7454 164.094 24.7306 163.861 24.7017L163.791 24.7015C163.614 24.7008 163.525 24.8078 163.524 25.0225C163.533 25.4052 163.536 25.7879 163.535 26.1705C163.534 26.5439 163.533 26.9265 163.532 27.3185L163.483 30.2164C163.482 30.543 163.416 30.7761 163.285 30.9156C163.164 31.0552 162.939 31.1337 162.613 31.1512C162.202 31.1777 161.796 31.1902 161.395 31.1887C161.283 31.1883 161.166 31.1832 161.045 31.1734C160.933 31.173 160.821 31.1726 160.709 31.1722C160.354 31.1616 160.102 31.0813 159.953 30.9314C159.804 30.7909 159.726 30.5386 159.717 30.1746C159.709 29.8759 159.705 29.5818 159.705 29.2925C159.706 29.0032 159.707 28.7092 159.708 28.4105L159.756 25.7507C159.757 25.34 159.749 24.934 159.731 24.5326C159.714 24.1312 159.691 23.7251 159.664 23.3143ZM171.394 31.1974C171.039 31.1961 170.82 31.0086 170.737 30.635C170.709 30.5415 170.696 30.4481 170.696 30.3548L170.417 24.3198C170.419 23.7691 170.425 23.2371 170.435 22.7238C170.436 22.5091 170.436 22.2898 170.437 22.0658C170.447 21.8418 170.452 21.6272 170.452 21.4219C170.462 21.2072 170.468 21.0113 170.468 20.8339C170.468 20.6566 170.469 20.5026 170.469 20.3719L170.47 20.0079C170.454 19.0465 170.447 18.0898 170.449 17.1378C170.452 16.1858 170.454 15.2572 170.456 14.3518C170.457 14.0998 170.504 13.9133 170.598 13.7924C170.701 13.6621 170.874 13.5834 171.116 13.5563C171.322 13.5383 171.522 13.5251 171.718 13.5165C171.915 13.5078 172.115 13.5039 172.321 13.5047C172.535 13.5055 172.755 13.5109 172.978 13.5211C173.202 13.5312 173.422 13.546 173.636 13.5655C173.879 13.5851 174.056 13.6604 174.168 13.7914C174.279 13.9132 174.349 14.0954 174.376 14.3382C174.386 14.4129 174.39 14.4969 174.39 14.5903C174.39 14.6743 174.389 14.7536 174.389 14.8283C174.386 15.9203 174.384 17.0309 174.381 18.1603C174.378 19.2802 174.38 20.4096 174.386 21.5483L174.385 21.8983C174.469 21.8239 174.521 21.7541 174.54 21.6889C174.568 21.6236 174.591 21.5584 174.61 21.4931C174.996 20.3652 175.409 19.1954 175.851 17.9836C176.293 16.7626 176.763 15.537 177.261 14.3068C177.298 14.2323 177.331 14.1577 177.359 14.0831C177.387 13.9992 177.425 13.9201 177.472 13.8456C177.603 13.6594 177.785 13.5667 178.018 13.5676C178.046 13.5677 178.074 13.5678 178.102 13.5679C178.14 13.568 178.177 13.5775 178.214 13.5963C178.485 13.6999 178.62 13.9058 178.619 14.2138C178.618 14.3164 178.604 14.4097 178.576 14.4936C178.548 14.5775 178.515 14.6661 178.477 14.7593C177.951 16.064 177.453 17.3595 176.984 18.6458C176.523 19.9228 176.09 21.1625 175.686 22.3651C175.583 22.6634 175.475 22.957 175.362 23.2459C175.258 23.5255 175.146 23.8051 175.024 24.0846C174.977 24.2058 174.953 24.3037 174.953 24.3784C174.953 24.4717 174.99 24.5839 175.064 24.7148C175.584 25.65 176.077 26.5012 176.542 27.2682C177.016 28.0446 177.518 28.7745 178.048 29.4578C178.169 29.6169 178.318 29.7574 178.495 29.8794C178.542 29.9076 178.584 29.9357 178.621 29.9639C178.667 30.0014 178.714 30.0389 178.761 30.0764C178.919 30.217 178.998 30.3853 178.997 30.5813C178.997 30.7119 178.959 30.8285 178.884 30.9308C178.763 31.1171 178.59 31.2098 178.366 31.2089C178.291 31.2087 178.198 31.185 178.086 31.1379C177.862 31.0344 177.662 30.903 177.485 30.7437C177.308 30.5844 177.14 30.4064 176.982 30.2099C176.629 29.7326 176.28 29.2366 175.936 28.722C175.592 28.2074 175.244 27.5995 174.891 26.8982C174.844 26.8047 174.788 26.7158 174.723 26.6316C174.658 26.538 174.579 26.4257 174.486 26.2947C174.476 26.4253 174.472 26.5466 174.471 26.6586C174.471 26.7706 174.471 26.8826 174.47 26.9946C174.47 27.2373 174.474 27.466 174.483 27.6807C174.501 27.9048 174.519 28.1242 174.537 28.3389C174.564 28.6563 174.587 28.9737 174.605 29.2911C174.622 29.6085 174.631 29.9259 174.63 30.2432L174.63 30.4672C174.61 30.7192 174.544 30.9009 174.432 31.0125C174.329 31.1335 174.156 31.1982 173.914 31.2066C173.736 31.2153 173.559 31.2193 173.382 31.2187C173.204 31.218 173.027 31.2174 172.85 31.2167L171.394 31.1974ZM184.558 20.4516C184.557 20.8996 184.57 21.343 184.597 21.7817C184.624 22.2205 184.646 22.6639 184.663 23.112C184.663 23.2333 184.686 23.3221 184.733 23.3782C184.779 23.4344 184.873 23.4721 185.013 23.4913C185.124 23.501 185.236 23.5108 185.348 23.5205C185.46 23.5209 185.572 23.5213 185.684 23.5217C186.02 23.523 186.352 23.5102 186.679 23.4834C187.015 23.4473 187.351 23.4158 187.687 23.3891C187.817 23.3802 187.92 23.3666 187.995 23.3482C188.07 23.3205 188.126 23.2833 188.163 23.2368C188.201 23.1903 188.224 23.125 188.234 23.0411C188.243 22.9571 188.253 22.8451 188.263 22.7052C188.263 22.6025 188.263 22.4998 188.263 22.3972C188.273 22.2852 188.278 22.1779 188.278 22.0752C188.28 21.4592 188.258 20.8478 188.213 20.241C188.177 19.6342 188.137 19.0227 188.091 18.4065C188.064 18.1358 188.027 17.8696 187.981 17.6081C187.945 17.3466 187.894 17.0805 187.829 16.8096C187.756 16.5013 187.64 16.2162 187.482 15.9543C187.333 15.6924 187.156 15.4444 186.951 15.2103C186.821 15.0512 186.677 14.948 186.518 14.9007C186.36 14.8442 186.192 14.8155 186.014 14.8149C185.94 14.8146 185.865 14.819 185.79 14.8281C185.716 14.8278 185.641 14.8322 185.566 14.8412C185.352 14.8591 185.207 14.9426 185.132 15.0917C185.057 15.2314 184.986 15.3758 184.921 15.5249C184.62 16.2611 184.469 17.0399 184.467 17.8612C184.467 17.9172 184.466 17.9732 184.466 18.0292C184.476 18.0853 184.48 18.1413 184.48 18.1973C184.488 18.5426 184.497 18.888 184.505 19.2334C184.523 19.5694 184.541 19.9148 184.559 20.2696L184.558 20.4516ZM180.897 23.3922C180.862 22.4867 180.827 21.5906 180.792 20.7038C180.766 19.817 180.745 18.9256 180.728 18.0295C180.728 17.9922 180.724 17.9548 180.715 17.9175C180.715 17.8801 180.715 17.8428 180.715 17.8055C180.726 17.2735 180.783 16.7557 180.887 16.2521C181 15.7485 181.169 15.2545 181.395 14.7699C181.714 14.0431 182.256 13.6484 183.022 13.5859C183.367 13.5498 183.708 13.5278 184.044 13.5197C184.389 13.5023 184.734 13.4942 185.08 13.4955C185.528 13.4971 185.976 13.5127 186.424 13.5424C186.741 13.5622 187.025 13.6473 187.277 13.7975C187.529 13.9384 187.757 14.1306 187.962 14.374C188.269 14.7485 188.529 15.1461 188.743 15.5669C188.956 15.9783 189.1 16.4269 189.173 16.9125C189.302 17.7343 189.398 18.5466 189.461 19.3496C189.534 20.1432 189.569 20.9506 189.567 21.772C189.566 22.052 189.561 22.3319 189.551 22.6119C189.541 22.8825 189.526 23.1578 189.507 23.4377C189.487 23.6897 189.468 23.9416 189.449 24.1935C189.439 24.4362 189.434 24.6835 189.433 24.9355C189.432 25.2342 189.441 25.5282 189.459 25.8176C189.486 26.0977 189.523 26.3872 189.568 26.686C189.595 27.0688 189.613 27.4375 189.622 27.7922C189.639 28.1563 189.657 28.5017 189.675 28.8284C189.693 29.1645 189.72 29.4819 189.757 29.7807C189.793 30.0795 189.849 30.3504 189.923 30.5933C189.941 30.668 189.95 30.7194 189.95 30.7474C189.95 30.9341 189.851 31.0877 189.655 31.2083C189.533 31.2826 189.417 31.3195 189.305 31.3191C189.174 31.3186 189.043 31.2808 188.913 31.2056C188.811 31.1306 188.731 31.0416 188.676 30.9387C188.62 30.8359 188.583 30.7191 188.565 30.5883C188.537 30.4016 188.505 30.2101 188.468 30.014C188.431 29.8178 188.413 29.6218 188.414 29.4258C188.405 28.9124 188.383 28.4503 188.347 28.0395C188.32 27.6288 188.288 27.2553 188.252 26.9192C188.225 26.5737 188.198 26.2563 188.17 25.9669C188.143 25.6681 188.13 25.374 188.13 25.0847L188.131 24.9587C188.131 24.772 188.043 24.6784 187.866 24.6777L187.768 24.6774C187.441 24.7042 187.109 24.7356 186.773 24.7717C186.447 24.8079 186.12 24.8253 185.793 24.8241C185.56 24.8233 185.327 24.8084 185.093 24.7796L185.023 24.7793C184.846 24.7787 184.757 24.8857 184.756 25.1003C184.765 25.483 184.769 25.8657 184.768 26.2484C184.767 26.6217 184.766 27.0044 184.765 27.3964L184.715 30.2942C184.714 30.6209 184.649 30.854 184.518 30.9935C184.396 31.1331 184.172 31.2116 183.845 31.229C183.434 31.2555 183.028 31.268 182.627 31.2666C182.515 31.2662 182.398 31.2611 182.277 31.2513C182.165 31.2509 182.053 31.2505 181.941 31.2501C181.586 31.2394 181.334 31.1592 181.185 31.0093C181.036 30.8687 180.958 30.6164 180.949 30.2524C180.941 29.9537 180.937 29.6597 180.938 29.3704C180.938 29.081 180.939 28.787 180.94 28.4884L180.989 25.8285C180.99 25.4179 180.981 25.0118 180.964 24.6104C180.946 24.209 180.924 23.8029 180.897 23.3922ZM195.356 31.3132C195.179 31.3126 195.001 31.3119 194.824 31.3113C194.656 31.3107 194.479 31.3007 194.292 31.2813C194.068 31.2619 193.863 31.1864 193.677 31.0551C193.49 30.9331 193.318 30.7924 193.16 30.6332C192.75 30.1743 192.434 29.6832 192.211 29.1597C191.989 28.6362 191.831 28.0803 191.74 27.492C191.721 27.3239 191.703 27.1558 191.685 26.9878C191.676 26.8197 191.672 26.6517 191.672 26.4837C191.673 26.157 191.688 25.8351 191.717 25.5179C191.755 25.1913 191.798 24.8648 191.845 24.5383C191.921 24.1373 192.127 23.9374 192.463 23.9386L192.519 23.9388C192.696 23.9488 192.84 24.0146 192.952 24.1364C193.064 24.2581 193.119 24.417 193.119 24.613L193.119 24.725C193.118 24.8557 193.109 24.9863 193.09 25.1169C193.08 25.2475 193.066 25.3781 193.047 25.5087C193.028 25.6673 193.008 25.8213 192.989 25.9705C192.98 26.1198 192.975 26.2738 192.974 26.4325C192.972 27.3565 193.194 28.2393 193.64 29.0809C193.797 29.3802 194.016 29.6097 194.296 29.7693C194.575 29.929 194.865 30.0094 195.163 30.0105C195.35 30.0112 195.532 29.9839 195.709 29.9285C195.887 29.8732 196.055 29.7805 196.214 29.6504C196.317 29.5668 196.401 29.4644 196.467 29.3433C196.533 29.2315 196.589 29.1151 196.636 28.9939C196.72 28.7516 196.782 28.5138 196.82 28.2806C196.858 28.0474 196.877 27.8095 196.877 27.5668C196.878 27.2681 196.851 26.974 196.796 26.6845C196.75 26.395 196.685 26.1008 196.602 25.8018C196.583 25.7364 196.556 25.6803 196.518 25.6335C196.481 25.5773 196.444 25.5212 196.407 25.4651C196.304 25.2967 196.188 25.2123 196.057 25.2118C195.983 25.2115 195.899 25.2392 195.805 25.2949C195.768 25.3227 195.726 25.3459 195.679 25.3644C195.642 25.3736 195.6 25.3874 195.553 25.4059C195.459 25.4243 195.389 25.4333 195.343 25.4332C195.1 25.4323 194.923 25.3383 194.812 25.1512C194.737 25.0296 194.7 24.9081 194.7 24.7868C194.701 24.6281 194.762 24.4744 194.884 24.3255C194.949 24.2604 195.024 24.2 195.108 24.1443C195.407 23.9401 195.651 23.6983 195.838 23.419C196.025 23.1396 196.175 22.8322 196.288 22.4966C196.373 22.2542 196.444 21.9372 196.501 21.5454C196.567 21.1536 196.605 20.7664 196.616 20.3838L196.633 19.1658C196.633 18.8579 196.63 18.5498 196.621 18.2418C196.612 17.9244 196.595 17.607 196.567 17.2896C196.549 17.0095 196.508 16.734 196.444 16.4631C196.388 16.1923 196.319 15.9213 196.236 15.6504C196.097 15.2299 195.883 15.0191 195.593 15.018C195.453 15.0175 195.28 15.0589 195.075 15.1421C194.654 15.3272 194.308 15.6013 194.037 15.9643C193.728 16.3832 193.489 16.8256 193.319 17.2917C193.15 17.7577 193.037 18.2473 192.98 18.7605L192.965 18.9984C192.965 19.1291 192.974 19.2644 192.992 19.4045C193.02 19.5446 193.052 19.6801 193.089 19.8109C193.117 19.895 193.131 19.979 193.13 20.063C193.13 20.343 192.994 20.5292 192.723 20.6215C192.648 20.6492 192.574 20.663 192.499 20.6627C192.219 20.6617 192.014 20.5209 191.884 20.2404C191.736 19.8759 191.662 19.4883 191.663 19.0776C191.663 19.0123 191.663 18.9516 191.663 18.8956C191.664 18.8303 191.668 18.765 191.678 18.6997C191.735 18.1212 191.853 17.5663 192.032 17.035C192.211 16.5036 192.459 15.9912 192.778 15.4977C193.134 14.939 193.56 14.5019 194.055 14.1864C194.551 13.8615 195.135 13.6817 195.807 13.6468L196.843 13.6506L197.879 13.6684C198.327 13.6887 198.69 13.8114 198.97 14.0364C199.249 14.2521 199.472 14.5516 199.639 14.9348C199.908 15.5612 200.07 16.2104 200.124 16.8826C200.161 17.2188 200.188 17.5549 200.206 17.8909C200.233 18.2177 200.246 18.5211 200.246 18.8011L200.245 19.0951C200.224 19.795 200.199 20.4343 200.17 21.0128C200.15 21.5914 200.069 22.1045 199.928 22.552C199.853 22.785 199.773 23.0134 199.688 23.2371C199.613 23.4608 199.51 23.6751 199.379 23.8799C199.36 23.9265 199.341 23.9685 199.322 24.0057C199.304 24.0337 199.294 24.0663 199.294 24.1036C199.294 24.1596 199.322 24.2157 199.378 24.2719C199.62 24.5155 199.81 24.7682 199.95 25.03C200.099 25.2919 200.21 25.5677 200.284 25.8573C200.358 26.1469 200.404 26.4411 200.422 26.7398C200.439 27.0385 200.448 27.3419 200.447 27.6499L200.446 27.9859C200.445 28.7139 200.247 29.4132 199.853 30.0837C199.534 30.6239 199.062 30.9722 198.436 31.1285C198.081 31.2206 197.731 31.2753 197.386 31.2927C197.05 31.3101 196.705 31.3182 196.35 31.3169L195.356 31.3132Z" fill="white"/>
</svg>
