<svg width="24" height="24" viewBox="0 0 24 24" fill="none" xmlns="http://www.w3.org/2000/svg">
<path d="M4.05068 8.92C4.07079 8.6694 4.18455 8.43557 4.36931 8.26508C4.55407 8.09459 4.79627 7.99995 5.04768 8H18.9517C19.2031 7.99995 19.4453 8.09459 19.63 8.26508C19.8148 8.43557 19.9286 8.6694 19.9487 8.92L20.8257 19.84C20.8478 20.1152 20.8126 20.392 20.7225 20.6529C20.6324 20.9139 20.4892 21.1533 20.302 21.3562C20.1148 21.5592 19.8876 21.7211 19.6347 21.8319C19.3818 21.9427 19.1088 21.9999 18.8327 22H5.16668C4.8906 21.9999 4.61753 21.9427 4.36466 21.8319C4.11178 21.7211 3.88459 21.5592 3.69737 21.3562C3.51016 21.1533 3.36698 20.9139 3.27685 20.6529C3.18672 20.392 3.15159 20.1152 3.17368 19.84L4.04968 8.92H4.05068Z" stroke="#1F1F1F" stroke-width="2" stroke-linecap="round" stroke-linejoin="round"/>
<path d="M15.9998 11V6C15.9998 4.93913 15.5784 3.92172 14.8283 3.17157C14.0781 2.42143 13.0607 2 11.9998 2C10.939 2 9.92157 2.42143 9.17142 3.17157C8.42127 3.92172 7.99985 4.93913 7.99985 6V11" stroke="#1F1F1F" stroke-width="2" stroke-linecap="round" stroke-linejoin="round"/>
</svg>
