<svg width="160" height="40" viewBox="0 0 160 40" fill="none" xmlns="http://www.w3.org/2000/svg">
<path d="M1.84086 23.9875C1.87559 23.2928 1.91033 22.7024 1.91033 22.2161C1.94506 21.3478 1.97979 20.4447 2.01453 19.5416C2.04926 18.6386 2.04926 17.4924 2.04926 16.103C2.04926 14.7484 2.01453 13.2202 1.94507 11.6224C1.8756 9.95524 1.80613 8.7743 1.7714 8.11437C1.73667 7.45444 1.6672 6.75978 1.59773 5.96091C1.52827 5.16205 1.4588 4.57158 1.42407 4.18951C1.38933 3.77271 1.31987 3.28644 1.2504 2.76544L1.18093 2.00131C1.1462 1.65398 1.25039 1.34138 1.49353 1.06351C1.73666 0.785644 2.084 0.646715 2.46606 0.611981C2.84813 0.577248 3.23019 0.681446 3.54279 0.924579C3.85539 1.16771 4.02905 1.44558 4.06379 1.82765L4.13326 2.59177C4.20272 3.11277 4.27219 3.56431 4.30692 3.94637C4.34166 4.32844 4.41112 4.95364 4.48059 5.75251C4.55006 6.55138 4.61952 7.31551 4.65426 8.04491C4.68899 8.73958 4.75846 9.88578 4.82792 11.5182C4.89739 13.2202 4.93212 14.7484 4.93212 16.1725C4.93212 17.4576 4.89739 18.6038 4.86266 19.5416C5.07106 19.3332 5.20999 19.1596 5.34892 18.9859C5.73099 18.6386 6.14779 18.2912 6.59932 17.9439C7.05086 17.5966 7.60659 17.2145 8.33599 16.7977C9.06539 16.4156 9.65585 16.103 10.1074 15.9294C10.6979 15.7557 11.4967 15.6168 12.504 15.5126C13.546 15.4431 14.3101 15.4778 14.9006 15.6168C15.4216 15.721 15.9078 15.8599 16.3941 16.0336C16.9151 16.2767 17.4708 16.6588 18.1308 17.1798C18.756 17.7355 19.277 18.2565 19.6243 18.7428C19.9716 19.2638 20.2842 19.8195 20.5274 20.41C20.8052 21.0699 21.0136 22.1814 21.1873 23.8138C21.3957 25.481 21.4304 26.662 21.361 27.3219C21.3262 28.0166 21.222 28.6418 21.0484 29.267C20.84 29.8922 20.5968 30.4826 20.319 31.0384C20.0411 31.6288 19.6243 32.254 19.1033 32.914C18.5823 33.5739 18.096 34.0949 17.6445 34.4422C17.193 34.7896 16.533 35.2064 15.63 35.7274C14.7269 36.2136 13.9975 36.5262 13.4765 36.6999C12.9902 36.8388 12.4345 36.9778 11.7398 37.082C11.1146 37.1862 10.5936 37.2556 10.1768 37.2904C9.82951 37.3251 9.48218 37.3598 9.16958 37.3946C8.78752 37.4293 8.26652 37.4293 7.60659 37.3946C6.87719 37.3598 6.28672 37.2556 5.83519 37.082L5.41839 36.9083C5.03633 36.8041 4.75845 36.561 4.58479 36.2484C4.41112 35.901 4.41113 35.5537 4.55006 35.2064C4.68899 34.859 4.93212 34.6159 5.31419 34.477C5.69625 34.338 6.04359 34.338 6.42566 34.477L6.91192 34.6506C7.08559 34.6854 7.36345 34.7201 7.74552 34.7548C8.23178 34.7548 8.61386 34.7548 8.89172 34.7548C9.16959 34.7201 9.51692 34.6854 9.89898 34.6506C10.2463 34.6159 10.6978 34.5464 11.2188 34.477C11.7746 34.3728 12.2261 34.2686 12.5734 34.1644C12.886 34.0949 13.407 33.8518 14.1364 33.4697C14.9006 33.0529 15.4216 32.7056 15.7342 32.4972C16.012 32.254 16.3594 31.872 16.7762 31.3857C17.193 30.8994 17.5056 30.4479 17.714 29.9964C17.9224 29.5796 18.0613 29.128 18.2002 28.6418C18.3044 28.1902 18.4086 27.6692 18.5128 27.1135C18.5476 26.5578 18.4781 25.5852 18.3392 24.1264C18.1308 22.6676 17.9571 21.7298 17.8182 21.313C17.6445 20.8962 17.4708 20.4794 17.2277 20.1321C16.9846 19.8195 16.6372 19.4722 16.2204 19.0901C15.7689 18.7775 15.4563 18.5344 15.2132 18.4302C14.9353 18.2912 14.6227 18.187 14.3101 18.1176C14.0322 18.0828 13.546 18.0828 12.8166 18.1176C12.0872 18.187 11.6009 18.2912 11.3231 18.3954C10.941 18.4996 10.4547 18.708 9.89898 19.0554C9.34325 19.368 8.89171 19.6806 8.57911 19.9237C8.23178 20.2016 7.84972 20.5142 7.50239 20.792C7.22452 21.0699 6.77298 21.6951 6.14778 22.6329C5.93938 22.876 5.76572 23.1192 5.62679 23.3276C5.24472 23.918 4.96686 24.3696 4.79319 24.6822C4.75846 25.099 4.72373 25.5505 4.72373 26.0368C4.61953 27.5998 4.51532 28.8502 4.41112 29.788C4.34165 30.7258 4.2722 31.4552 4.20273 31.9414C4.13326 32.4624 4.06379 33.0529 3.99433 33.7823C3.92486 34.5464 3.85539 35.0674 3.82066 35.3453C3.78593 35.6579 3.68173 36.0747 3.50806 36.5957C3.47333 36.6304 3.40386 36.6652 3.36912 36.7346C3.29966 36.8041 3.19546 36.8736 2.98706 37.0472C2.77866 37.1862 2.605 37.3251 2.43133 37.4293C2.25766 37.5335 2.04926 37.6377 1.80612 37.7072C1.56299 37.7766 1.3546 37.8114 1.18093 37.7766C1.00726 37.7419 0.833599 37.6724 0.694666 37.4988C0.555732 37.3251 0.451535 37.1167 0.382068 36.8041C0.312602 36.4915 0.277868 36.1442 0.208402 35.7621C0.138935 35.38 0.104193 34.998 0.0694602 34.6854C0.0347269 34.3033 0 33.8865 0 33.4697C0 33.0529 0.034729 32.254 0.104196 31.0731C0.173662 29.8574 0.27786 28.9544 0.416793 28.3986C0.520993 27.8429 0.65993 27.2872 0.833597 26.7662C1.00726 26.2452 1.18093 25.7242 1.42407 25.1684C1.4588 24.7169 1.63246 24.3696 1.84086 23.9875Z" fill="#1F1F1F"/>
<path d="M40.5014 38.3338C40.2235 38.6811 39.8762 38.8895 39.4246 38.9243L38.5215 39.0285C37.7227 39.0979 36.7501 39.0632 35.5345 38.8548C34.3535 38.6464 33.2768 38.2991 32.3043 37.8823C31.4012 37.4655 30.6371 37.0139 30.0466 36.5971C29.4214 36.1109 28.6225 35.3467 27.7195 34.2005C26.8164 33.0891 26.1912 32.186 25.8786 31.4913C25.5313 30.7619 25.2534 29.5115 25.045 27.7401C24.8019 25.9687 24.7324 24.7183 24.8713 23.9542C25.045 23.2248 25.3576 22.2523 25.8439 21.0366C26.3301 19.8209 26.8859 18.7789 27.4416 17.9106C28.0321 17.077 28.5531 16.3823 29.0741 15.8961C29.5951 15.3751 30.3939 14.8193 31.5054 14.1594C32.6863 13.43 34.1104 12.9437 35.7429 12.7006C37.3406 12.4575 38.4868 12.388 39.251 12.4922C39.9804 12.5617 40.9876 12.8395 42.2727 13.3605C43.5926 13.8815 44.5652 14.3331 45.1904 14.7151C45.8156 15.0972 46.4755 15.6877 47.1701 16.4171C47.8301 17.1465 48.3511 17.8411 48.6637 18.4316C49.011 19.0568 49.3584 20.0293 49.671 21.3492C49.9488 22.6691 50.0877 23.9195 50.0877 25.0309C50.0877 26.0729 50.0183 26.9413 49.9141 27.6359C49.8446 28.3653 49.5668 29.3379 49.15 30.623C48.6984 31.9081 48.2121 32.9849 47.6564 33.8185C47.1007 34.6868 46.3366 35.4857 45.3293 36.2151C44.322 36.9792 43.5579 37.4655 43.0021 37.6739C42.5159 37.9517 41.6476 38.1601 40.5014 38.3338ZM33.4852 35.4857C33.9715 35.1731 34.423 35.0689 34.9093 35.2078L35.8471 35.5204C36.3333 35.6941 36.8543 35.7983 37.4448 35.833C38.0005 35.9025 38.7647 35.8677 39.772 35.7288C40.7792 35.5899 41.4391 35.4509 41.7865 35.312C42.1338 35.1731 42.6896 34.791 43.4537 34.2353C44.2178 33.6448 44.7736 33.0543 45.1904 32.4639C45.6419 31.8387 46.024 31.0051 46.3713 29.9283C46.7534 28.8169 46.9965 27.9485 47.1007 27.3928C47.1702 26.8023 47.2049 26.0382 47.2049 25.0657C47.2049 24.1626 47.1007 23.1206 46.8576 21.9744C46.6144 20.8629 46.3713 20.0988 46.1281 19.7167C45.885 19.2999 45.503 18.7789 44.982 18.1885C44.461 17.598 43.9747 17.1812 43.5579 16.9033C43.1411 16.6255 42.3769 16.2781 41.2655 15.8613C40.154 15.4793 39.3551 15.2361 38.8689 15.2014C38.4173 15.1319 37.549 15.1667 36.2639 15.3751C35.0482 15.5835 34.0062 15.9655 33.1726 16.4518C32.2695 17.0075 31.6096 17.4243 31.2623 17.7369C30.8802 18.119 30.4287 18.6747 29.9424 19.4041C29.4561 20.0988 29.0046 20.9671 28.5878 22.0439C28.1363 23.0859 27.8931 23.9195 27.8237 24.4752C27.7542 24.9962 27.7889 26.0035 27.9279 27.497C28.1363 29.0253 28.3447 29.9978 28.5878 30.4841C28.8309 31.0051 29.3519 31.7345 30.1508 32.707C30.9149 33.6448 31.5054 34.27 31.9222 34.6173C32.339 34.8257 32.86 35.1383 33.4852 35.4857Z" fill="#1F1F1F"/>
<path d="M69.3618 38.3338C69.0839 38.6811 68.7366 38.8895 68.2851 38.9243L67.382 39.0285C66.5831 39.0979 65.6106 39.0632 64.395 38.8548C63.214 38.6464 62.1373 38.2991 61.1648 37.8823C60.2617 37.4655 59.4976 37.0139 58.9071 36.5971C58.2819 36.1109 57.483 35.3467 56.58 34.2005C55.6769 33.0891 55.0517 32.186 54.7391 31.4913C54.3918 30.7619 54.1139 29.5115 53.9055 27.7401C53.6624 25.9687 53.5929 24.7183 53.7318 23.9542C53.9055 23.2248 54.2181 22.2523 54.7044 21.0366C55.1906 19.8209 55.7464 18.7789 56.3021 17.9106C56.8926 17.077 57.4136 16.3823 57.9346 15.8961C58.4556 15.3751 59.2544 14.8193 60.3659 14.1594C61.5468 13.43 62.9709 12.9437 64.6033 12.7006C66.2011 12.4575 67.3473 12.388 68.1114 12.4922C68.8408 12.5617 69.8481 12.8395 71.1332 13.3605C72.4531 13.8815 73.4256 14.3331 74.0508 14.7151C74.676 15.0972 75.3359 15.6877 76.0306 16.4171C76.6905 17.1465 77.2115 17.8411 77.5241 18.4316C77.8715 19.0568 78.2188 20.0293 78.5314 21.3492C78.8093 22.6691 78.9482 23.9195 78.9482 25.0309C78.9482 26.0729 78.8788 26.9413 78.7746 27.6359C78.7051 28.3653 78.4272 29.3379 78.0104 30.623C77.5589 31.9081 77.0726 32.9849 76.5169 33.8185C75.9612 34.6868 75.197 35.4857 74.1898 36.2151C73.1825 36.9792 72.4184 37.4655 71.8626 37.6739C71.3764 37.9517 70.508 38.1601 69.3618 38.3338ZM62.3457 35.4857C62.8319 35.1731 63.2835 35.0689 63.7698 35.2078L64.7076 35.5204C65.1938 35.6941 65.7148 35.7983 66.3053 35.833C66.861 35.9025 67.6252 35.8677 68.6324 35.7288C69.6397 35.5899 70.2996 35.4509 70.6469 35.312C70.9943 35.1731 71.55 34.791 72.3141 34.2353C73.0783 33.6448 73.634 33.0543 74.0508 32.4639C74.5023 31.8387 74.8844 31.0051 75.2318 29.9283C75.6138 28.8169 75.8569 27.9485 75.9611 27.3928C76.0306 26.8023 76.0653 26.0382 76.0653 25.0657C76.0653 24.1626 75.9611 23.1206 75.718 21.9744C75.4749 20.8629 75.2317 20.0988 74.9886 19.7167C74.7455 19.2999 74.3634 18.7789 73.8424 18.1885C73.3214 17.598 72.8351 17.1812 72.4183 16.9033C72.0015 16.6255 71.2374 16.2781 70.1259 15.8613C69.0145 15.4793 68.2156 15.2361 67.7293 15.2014C67.2778 15.1319 66.4095 15.1667 65.1243 15.3751C63.9087 15.5835 62.8667 15.9655 62.0331 16.4518C61.13 17.0075 60.4701 17.4243 60.1228 17.7369C59.7407 18.119 59.2892 18.6747 58.8029 19.4041C58.3166 20.0988 57.8651 20.9671 57.4483 22.0439C56.9968 23.0859 56.7536 23.9195 56.6842 24.4752C56.6147 24.9962 56.6494 26.0035 56.7884 27.497C56.9968 29.0253 57.2052 29.9978 57.4483 30.4841C57.6914 31.0051 58.2124 31.7345 59.0113 32.707C59.7754 33.6448 60.3659 34.27 60.7827 34.6173C61.1995 34.8257 61.7205 35.1383 62.3457 35.4857Z" fill="#1F1F1F"/>
<path d="M85.9711 29.6857C85.9711 29.9288 85.9711 30.2067 85.9711 30.4498C86.0058 31.075 86.0406 31.6655 86.0753 32.2907C86.1101 32.9159 86.1448 33.4716 86.1448 33.9579C86.1448 34.4789 86.1101 35.0346 86.0753 35.6251V36.5976C86.0406 36.9449 85.8669 37.2575 85.5891 37.5007C85.3112 37.7438 84.9638 37.8827 84.5818 37.848C84.1997 37.8133 83.8524 37.6744 83.5398 37.4312C83.2272 37.1534 83.123 36.8407 83.1577 36.4934V35.5903C83.1925 34.9651 83.2272 34.4442 83.2272 33.9579C83.2272 33.5064 83.1925 32.9506 83.1577 32.3949C83.123 31.8044 83.0883 31.2139 83.0535 30.554C83.0535 29.8594 83.0188 28.6784 82.9493 26.9765C82.8799 25.7261 82.8451 24.7188 82.8451 23.9547C82.8104 23.5379 82.7756 23.0516 82.7409 22.4959C82.6714 20.9676 82.6367 19.8562 82.6367 19.092C82.6367 18.3279 82.6714 17.5638 82.7409 16.8344C82.7409 16.7996 82.7409 16.7302 82.7409 16.6607C82.7409 16.5912 82.7756 16.4523 82.8451 16.2786C82.9146 16.1049 82.9493 15.9313 83.0188 15.7576C83.0882 15.5839 83.1925 15.445 83.3314 15.3061C83.4703 15.1672 83.6092 15.063 83.7829 14.9935C83.9566 14.924 84.1303 14.8893 84.3734 14.924C84.6165 14.9588 84.8597 15.063 85.1375 15.2366C85.5891 15.5145 85.8322 15.7924 85.9364 16.0355C86.0406 16.2786 86.0406 16.4523 85.9017 16.5912L85.728 16.7649C85.728 17.3554 85.728 18.05 85.728 18.8836C85.728 19.7172 85.728 20.4466 85.728 21.1413C85.728 21.8012 85.728 22.4959 85.728 23.2253C85.7627 23.3989 85.7974 23.6074 85.7974 23.8852C85.8322 24.4062 85.8669 24.7883 85.9017 25.1356C86.4227 23.9199 86.8047 23.0169 87.0826 22.4264C87.3952 21.8012 87.7425 21.2108 88.0899 20.5856C88.4372 19.9256 89.0971 18.9531 90.0002 17.6679C91.0075 16.3133 91.7021 15.445 92.0842 15.063C92.5705 14.6809 93.1262 14.3336 93.7514 14.021L94.4808 13.7431C94.8281 13.5694 95.2102 13.5347 95.627 13.6736C96.0091 13.8126 96.2869 14.021 96.4606 14.3336C96.6343 14.6462 96.6343 14.9935 96.4953 15.3756C96.3564 15.7229 96.1133 16.0008 95.7659 16.1397L95.0365 16.4523C94.6892 16.5912 94.3766 16.7649 94.1335 16.9386C93.8903 17.1817 93.3346 17.9111 92.4663 19.0573C91.5979 20.3077 91.0075 21.2108 90.6949 21.7665C90.3823 22.357 90.0697 22.9127 89.7918 23.5032C89.5139 24.0936 89.0971 25.0314 88.5414 26.3166C87.8815 27.7406 87.3257 28.6784 86.8742 29.1994C86.5616 29.3731 86.2837 29.5467 85.9711 29.6857Z" fill="#1F1F1F"/>
<path d="M104.033 37.9852C103.721 38.2283 103.373 38.3325 102.991 38.3325C102.609 38.3325 102.262 38.1588 101.984 37.9157C101.706 37.6378 101.567 37.36 101.567 37.0126L101.637 36.4916C101.637 36.1443 101.637 35.5538 101.637 34.7202C101.637 33.8866 101.637 33.192 101.637 32.671C101.637 32.1847 101.602 31.49 101.567 30.6217C101.532 29.7186 101.463 28.6419 101.393 27.4262C101.289 26.1758 101.185 24.9949 101.116 23.8834C101.046 22.772 101.011 21.9036 100.942 21.209C100.872 20.5143 100.803 19.8544 100.733 19.125C100.664 18.3956 100.595 17.8746 100.56 17.5967C100.56 17.3883 100.525 17.1452 100.456 16.8673L100.386 16.381C100.317 16.0684 100.386 15.7558 100.629 15.478C100.872 15.1654 101.185 14.9917 101.567 14.957C101.949 14.8875 102.331 14.9917 102.679 15.2001C103.026 15.4085 103.2 15.6864 103.234 16.0337L103.338 16.4505C103.373 16.7978 103.408 17.1104 103.443 17.3883C103.443 17.6314 103.512 18.1177 103.616 18.8471C103.686 19.5765 103.755 20.3059 103.825 21.0006C103.894 21.6952 103.964 22.5983 104.033 23.7098C104.068 24.8212 104.137 26.0022 104.207 27.2178C104.311 28.4682 104.415 29.545 104.45 30.448C104.485 31.3511 104.519 32.0458 104.519 32.5668C104.519 33.0878 104.519 33.7824 104.519 34.6508C104.519 35.5191 104.519 36.1443 104.519 36.4916L104.45 37.0821C104.485 37.4294 104.346 37.742 104.033 37.9852Z" fill="#1F1F1F"/>
<path d="M108.202 14.5415C108.34 14.1942 108.584 13.9511 108.931 13.8121C109.278 13.6732 109.66 13.6732 110.077 13.7774C110.459 13.9163 110.737 14.1247 110.911 14.4373L111.501 15.6877C111.953 16.5908 112.404 17.7023 112.856 18.9874C113.307 20.1683 113.655 21.1061 113.933 21.7313C114.28 22.3913 114.766 23.2943 115.357 24.4405C115.982 25.5867 116.711 26.9413 117.51 28.4349C118.309 29.9631 118.865 30.9357 119.177 31.4219C119.49 31.9429 119.802 32.4292 120.08 32.8807C120.323 33.2628 120.706 33.7491 121.261 34.3048C121.365 34.409 121.504 34.5132 121.609 34.6174C121.782 34.409 121.921 34.1659 122.095 33.9227C122.755 32.8807 123.206 32.1166 123.415 31.5956C123.658 30.9704 123.901 30.3452 124.144 29.6505C124.422 28.9211 124.874 27.636 125.499 25.7604C126.159 23.9195 126.645 22.6691 126.923 21.9745C127.201 21.2798 127.513 20.4462 127.861 19.4737C128.243 18.5359 128.521 17.8759 128.694 17.4591L128.937 16.9034C129.042 16.5908 129.319 16.3477 129.667 16.2087C130.049 16.0698 130.431 16.0698 130.813 16.174C131.195 16.3129 131.473 16.5213 131.612 16.8687C131.785 17.216 131.785 17.5286 131.612 17.8759L131.438 18.4317C131.264 18.779 130.987 19.4389 130.605 20.3767C130.257 21.3493 129.945 22.1481 129.667 22.8081C129.424 23.468 128.937 24.7184 128.277 26.594C127.617 28.4696 127.131 29.7547 126.923 30.4494C126.645 31.1788 126.402 31.8387 126.159 32.4639C125.916 33.1586 125.429 34.0964 124.665 35.2773C124.63 35.3468 124.561 35.4857 124.422 35.6594C124.318 35.8331 124.214 35.972 124.144 36.0415C124.075 36.1109 123.97 36.2499 123.832 36.4583C123.693 36.6667 123.588 36.8056 123.519 36.8751C123.449 36.9445 123.311 37.0487 123.137 37.1877C122.963 37.3266 122.79 37.3961 122.651 37.4308C122.512 37.4655 122.338 37.5003 122.13 37.5697C121.921 37.6392 121.713 37.6392 121.504 37.5003C120.775 37.4308 120.011 36.9445 119.177 36.0762C118.413 35.3815 117.892 34.7911 117.58 34.2353C117.267 33.7838 116.954 33.2975 116.642 32.7765C116.294 32.2208 115.704 31.1788 114.905 29.5811C114.106 28.0528 113.412 26.7329 112.752 25.5867C112.126 24.4405 111.64 23.5027 111.328 22.8428C110.98 22.1134 110.563 21.1061 110.077 19.821C109.695 18.6053 109.278 17.5981 108.896 16.7992L108.236 15.5488C108.063 15.2362 108.063 14.8889 108.202 14.5415Z" fill="#1F1F1F"/>
<path d="M158.182 32.2204H158.113C157.87 32.6024 157.661 32.9498 157.522 33.2624C157.314 33.5402 157.105 33.8528 156.862 34.1654C156.55 34.5822 155.855 35.3116 154.778 36.3189C153.702 37.3609 152.868 38.0555 152.278 38.3681C151.722 38.6807 151.166 38.9586 150.61 39.167C150.055 39.3754 149.499 39.5491 148.943 39.7227C148.353 39.8617 147.658 39.9659 146.859 40.0006C146.06 40.0006 145.157 39.8617 144.185 39.5838C143.316 39.3059 142.656 39.0281 142.205 38.8197C141.753 38.6113 141.302 38.3681 140.85 38.0555C140.399 37.7777 139.947 37.3609 139.496 36.8746C138.975 36.2842 138.558 35.5548 138.245 34.617C137.933 33.7486 137.759 33.0539 137.724 32.4982C137.69 31.9772 137.724 31.3868 137.828 30.6574C137.933 29.9627 138.141 29.407 138.349 28.9207C138.558 28.3997 138.975 27.7397 139.6 26.9061C140.225 26.0378 140.781 25.4126 141.267 25.0653C141.719 24.7527 142.17 24.4401 142.691 24.1622C143.212 23.8843 143.872 23.537 144.706 23.1897C145.609 22.8424 146.685 22.5992 147.866 22.5297C149.047 22.4255 150.02 22.4603 150.715 22.7034C151.444 22.9465 152.451 23.6065 153.736 24.6485C153.91 24.7874 154.049 24.9264 154.223 25.0653C153.945 24.1622 153.736 23.4328 153.563 22.9118C153.32 22.2866 152.972 21.5225 152.486 20.5847C152.034 19.6816 151.618 18.987 151.236 18.466C150.888 17.945 150.471 17.4934 150.055 17.1114C149.707 16.7988 149.013 16.382 148.04 15.8957C147.033 15.4094 146.164 15.0968 145.435 14.9926C144.636 14.8537 144.011 14.7842 143.525 14.7842C143.004 14.7495 142.517 14.7495 142.031 14.8537C141.649 14.8537 140.885 15.0621 139.843 15.4442C139.079 15.7568 138.558 16.0346 138.28 16.2083L137.967 16.6251C137.724 16.9029 137.412 17.1114 137.03 17.1808C136.648 17.2503 136.265 17.1808 135.918 16.9724C135.571 16.764 135.397 16.4514 135.328 16.1041C135.258 15.7567 135.328 15.4094 135.536 15.1316L135.953 14.6453C136.335 14.0896 137.273 13.5686 138.766 13.0128C140.121 12.4918 141.128 12.2487 141.788 12.214C142.379 12.1445 142.969 12.1098 143.559 12.1445C144.219 12.1445 145.053 12.2487 145.991 12.4224C146.998 12.596 148.11 12.9781 149.36 13.6033C150.61 14.1938 151.548 14.7495 152.139 15.2705C152.694 15.7915 153.215 16.3472 153.702 17.0072C154.188 17.6671 154.674 18.5007 155.195 19.5427C155.716 20.5847 156.098 21.453 156.341 22.1477C156.584 22.8424 156.897 23.8149 157.279 25.1347C157.661 26.3504 157.974 27.2187 158.182 27.7397C158.356 28.2955 158.495 28.8512 158.668 29.4069C158.842 29.9627 158.946 30.3447 159.016 30.5879C159.224 30.8657 159.155 31.2478 158.842 31.7341L158.182 32.2204ZM155.681 30.8657C155.438 30.5184 155.23 30.1711 155.021 29.8932C154.744 29.5111 154.431 29.0943 154.084 28.6428C153.736 28.226 153.007 27.5314 151.895 26.6283C150.819 25.76 150.124 25.2737 149.742 25.1695C149.464 25.1 148.943 25.0653 148.144 25.1C147.276 25.1695 146.547 25.3432 145.956 25.5863C145.227 25.8642 144.671 26.142 144.289 26.3851C143.907 26.6283 143.525 26.8714 143.143 27.1145C142.865 27.3229 142.483 27.7745 141.996 28.3997C141.51 29.0596 141.198 29.5111 141.059 29.8237C140.954 30.1363 140.816 30.5879 140.711 31.1089C140.642 31.5951 140.607 31.9772 140.642 32.2898C140.642 32.6024 140.746 33.0887 140.989 33.7486C141.232 34.3738 141.475 34.8253 141.753 35.1032C142.066 35.4505 142.379 35.7284 142.656 35.9021C142.934 36.0757 143.247 36.2494 143.559 36.4231C143.872 36.5967 144.428 36.7704 145.157 36.9788C145.782 37.1872 146.338 37.2914 146.824 37.2914C147.38 37.2567 147.832 37.1872 148.179 37.1177C148.561 37.0135 148.978 36.8746 149.429 36.701C149.881 36.5273 150.298 36.3189 150.749 36.1105C151.131 35.8673 151.791 35.3116 152.729 34.4433C153.667 33.5402 154.257 32.9498 154.466 32.7066C154.674 32.394 154.848 32.0814 154.987 31.8383C155.126 31.6646 155.334 31.3173 155.681 30.8657Z" fill="#1F1F1F"/>
<path d="M102.856 6.69182C101.571 6.13609 100.598 5.26775 99.6954 4.19102C99.3828 3.80895 97.6462 1.96809 97.9935 1.30816C98.1672 0.995557 99.105 1.16922 99.3481 1.30816C99.626 1.44709 99.9038 1.72495 100.112 1.96809C100.46 2.38489 100.703 2.87115 100.946 3.35742C101.432 4.36469 101.814 5.44142 102.474 6.34449C102.856 6.90022 103.759 6.37922 103.377 5.82349C102.405 4.43416 102.023 2.69748 100.946 1.34288C100.147 0.335616 98.5145 -0.567442 97.3683 0.439824C96.2916 1.34289 97.2988 2.73221 97.924 3.60055C99.105 5.23301 100.425 6.72655 102.3 7.56015C102.96 7.87275 103.481 6.96969 102.856 6.69182Z" fill="#1F1F1F"/>
<path d="M98.0232 2.14207C98.8915 3.70507 100.003 5.16387 101.08 6.58794C101.496 7.10894 102.4 6.58794 101.983 6.06694C100.871 4.64287 99.7946 3.18407 98.9263 1.62107C98.5789 1.0306 97.6759 1.5516 98.0232 2.14207Z" fill="#1F1F1F"/>
<path d="M102.605 7.66398C105.454 7.52504 108.232 6.58724 110.872 5.51051C111.74 5.16317 113.581 4.57271 113.373 3.32231C112.817 0.161581 104.377 5.23264 103.196 5.68417C102.571 5.92731 102.849 6.93458 103.474 6.69145C104.759 6.20518 105.94 5.57997 107.156 4.98951C107.92 4.60744 111.08 2.76658 111.983 3.53071C112.331 3.80858 112.088 3.80858 111.671 4.01698C111.428 4.15591 111.15 4.26011 110.872 4.39905C110.212 4.67691 109.517 4.92004 108.857 5.19791C106.843 5.92731 104.794 6.55251 102.605 6.65671C101.946 6.65671 101.911 7.69871 102.605 7.66398Z" fill="#1F1F1F"/>
<path d="M110.979 3.66965C108.756 4.67692 106.464 5.51052 104.171 6.30939C103.546 6.51779 103.824 7.52505 104.449 7.31665C106.846 6.44832 109.208 5.57999 111.535 4.57272C112.125 4.29485 111.57 3.39179 110.979 3.66965Z" fill="#1F1F1F"/>
</svg>
