<svg width="28" height="26" viewBox="0 0 28 26" fill="none" xmlns="http://www.w3.org/2000/svg">
<path d="M24.2765 15.632C20.0977 19.088 15.4081 21.5297 12.1115 25.6619C11.8793 25.9249 11.5079 25.9624 11.1364 25.8497C10.9043 26.0376 10.4864 26.0751 10.1614 25.8122C6.35401 22.3186 4.07885 18.2615 2.45375 13.9415C1.15367 10.4855 -1.53935 5.11366 1.15368 1.84547C2.91807 -0.333317 6.49328 -0.446008 9.3256 0.793649C12.4829 2.18357 13.6902 4.738 14.2938 7.33001C15.5474 5.45174 17.4047 3.83645 20.3299 3.49836C23.7194 3.12271 26.691 4.9634 27.666 7.48028C28.8268 10.5606 26.7838 13.5283 24.2765 15.632ZM25.4838 7.25489C24.0444 4.92584 20.5156 4.43749 18.1012 5.86497C16.1975 6.95437 15.3617 8.71993 14.6188 10.4104C14.3402 11.0865 12.9008 10.8987 12.808 10.185C12.3901 7.17976 11.8793 3.16027 7.7005 1.80792C6.16826 1.13174 5.00748 1.46983 4.07885 2.74705C2.17516 3.31053 1.47871 4.32479 2.03589 5.86497C2.12875 7.21732 2.59306 8.56968 2.96452 9.88447C4.49675 15.1436 6.72545 20.1774 10.6721 24.6852C13.5973 20.7784 17.6833 18.4118 21.8157 15.369C24.5087 13.4156 27.3875 10.3353 25.4838 7.25489Z" fill="#1F1F1F"/>
</svg>
