<svg width="72" height="48" viewBox="0 0 72 48" fill="none" xmlns="http://www.w3.org/2000/svg">
<path d="M9.992 16.4635L8.24 14.7355H13.424V17.8555H2.168V14.7355H7.832L6.08 16.4635V2.49547L7.76 4.17547H2.48V1.05547H9.992V16.4635ZM24.5216 17.8555V15.3355L31.1456 9.21547C31.6576 8.75147 32.0416 8.33547 32.2976 7.96747C32.5696 7.59947 32.7456 7.26347 32.8256 6.95947C32.9216 6.63947 32.9696 6.34347 32.9696 6.07147C32.9696 5.63947 32.8576 5.27147 32.6336 4.96747C32.4256 4.66347 32.1136 4.43147 31.6976 4.27147C31.2816 4.11147 30.7696 4.03147 30.1616 4.03147C29.3776 4.03147 28.6656 4.17547 28.0256 4.46347C27.4016 4.73547 26.8736 5.15147 26.4416 5.71147L23.6576 3.88747C24.2976 2.94347 25.1936 2.19147 26.3456 1.63147C27.5136 1.05547 28.8896 0.767468 30.4736 0.767468C31.7696 0.767468 32.8976 0.975468 33.8576 1.39147C34.8176 1.79147 35.5616 2.36747 36.0896 3.11947C36.6176 3.85547 36.8816 4.72747 36.8816 5.73547C36.8816 6.27947 36.8016 6.81547 36.6416 7.34347C36.4976 7.87147 36.2096 8.43947 35.7776 9.04747C35.3616 9.63947 34.7456 10.3035 33.9296 11.0395L28.4816 16.1035L27.9536 14.6875H37.4576V17.8555H24.5216ZM47.2063 0.767468C48.8063 0.767468 50.1823 1.09547 51.3343 1.75147C52.4863 2.39147 53.3743 3.32747 53.9983 4.55947C54.6223 5.79147 54.9343 7.29547 54.9343 9.07147C54.9343 10.3835 54.7263 11.5915 54.3103 12.6955C53.8943 13.7995 53.2863 14.7595 52.4863 15.5755C51.7023 16.3915 50.7503 17.0235 49.6303 17.4715C48.5103 17.9195 47.2383 18.1435 45.8143 18.1435C44.9183 18.1435 44.0543 18.0475 43.2223 17.8555C42.3903 17.6475 41.6863 17.3595 41.1103 16.9915L42.5503 14.0635C42.9823 14.3835 43.4863 14.6155 44.0623 14.7595C44.6383 14.9035 45.2223 14.9755 45.8143 14.9755C46.8703 14.9755 47.7903 14.7755 48.5743 14.3755C49.3583 13.9595 49.9663 13.3595 50.3983 12.5755C50.8463 11.7915 51.0703 10.8475 51.0703 9.74347C51.0703 9.40747 51.0543 9.05547 51.0223 8.68747C51.0063 8.31947 50.9663 7.96747 50.9023 7.63147L51.8623 8.75947C51.6223 9.33547 51.2463 9.83947 50.7343 10.2715C50.2223 10.6875 49.6143 11.0155 48.9103 11.2555C48.2063 11.4795 47.4143 11.5915 46.5343 11.5915C45.3823 11.5915 44.3503 11.3755 43.4383 10.9435C42.5263 10.4955 41.8063 9.87947 41.2783 9.09547C40.7503 8.31147 40.4863 7.39947 40.4863 6.35947C40.4863 5.23947 40.7743 4.26347 41.3503 3.43147C41.9263 2.58347 42.7183 1.92747 43.7263 1.46347C44.7503 0.999468 45.9103 0.767468 47.2063 0.767468ZM47.3503 3.64747C46.7743 3.64747 46.2623 3.75147 45.8143 3.95947C45.3663 4.16747 45.0143 4.46347 44.7583 4.84747C44.5023 5.21547 44.3743 5.65547 44.3743 6.16747C44.3743 6.67947 44.5023 7.12747 44.7583 7.51147C45.0143 7.87947 45.3663 8.17547 45.8143 8.39947C46.2783 8.60747 46.8063 8.71147 47.3983 8.71147C47.9743 8.71147 48.4943 8.60747 48.9583 8.39947C49.4383 8.17547 49.8143 7.87947 50.0863 7.51147C50.3743 7.12747 50.5183 6.67947 50.5183 6.16747C50.5183 5.71947 50.3903 5.30347 50.1343 4.91947C49.8783 4.53547 49.5103 4.23147 49.0303 4.00747C48.5663 3.76747 48.0063 3.64747 47.3503 3.64747ZM64.0109 0.767468C65.6109 0.767468 66.9869 1.09547 68.1389 1.75147C69.2909 2.39147 70.1789 3.32747 70.8029 4.55947C71.4269 5.79147 71.7389 7.29547 71.7389 9.07147C71.7389 10.3835 71.5309 11.5915 71.1149 12.6955C70.6989 13.7995 70.0909 14.7595 69.2909 15.5755C68.5069 16.3915 67.5549 17.0235 66.4349 17.4715C65.3149 17.9195 64.0429 18.1435 62.6189 18.1435C61.7229 18.1435 60.8589 18.0475 60.0269 17.8555C59.1949 17.6475 58.4909 17.3595 57.9149 16.9915L59.3549 14.0635C59.7869 14.3835 60.2909 14.6155 60.8669 14.7595C61.4429 14.9035 62.0269 14.9755 62.6189 14.9755C63.6749 14.9755 64.5949 14.7755 65.3789 14.3755C66.1629 13.9595 66.7709 13.3595 67.2029 12.5755C67.6509 11.7915 67.8749 10.8475 67.8749 9.74347C67.8749 9.40747 67.8589 9.05547 67.8269 8.68747C67.8109 8.31947 67.7709 7.96747 67.7069 7.63147L68.6669 8.75947C68.4269 9.33547 68.0509 9.83947 67.5389 10.2715C67.0269 10.6875 66.4189 11.0155 65.7149 11.2555C65.0109 11.4795 64.2189 11.5915 63.3389 11.5915C62.1869 11.5915 61.1549 11.3755 60.2429 10.9435C59.3309 10.4955 58.6109 9.87947 58.0829 9.09547C57.5549 8.31147 57.2909 7.39947 57.2909 6.35947C57.2909 5.23947 57.5789 4.26347 58.1549 3.43147C58.7309 2.58347 59.5229 1.92747 60.5309 1.46347C61.5549 0.999468 62.7149 0.767468 64.0109 0.767468ZM64.1549 3.64747C63.5789 3.64747 63.0669 3.75147 62.6189 3.95947C62.1709 4.16747 61.8189 4.46347 61.5629 4.84747C61.3069 5.21547 61.1789 5.65547 61.1789 6.16747C61.1789 6.67947 61.3069 7.12747 61.5629 7.51147C61.8189 7.87947 62.1709 8.17547 62.6189 8.39947C63.0829 8.60747 63.6109 8.71147 64.2029 8.71147C64.7789 8.71147 65.2989 8.60747 65.7629 8.39947C66.2429 8.17547 66.6189 7.87947 66.8909 7.51147C67.1789 7.12747 67.3229 6.67947 67.3229 6.16747C67.3229 5.71947 67.1949 5.30347 66.9389 4.91947C66.6829 4.53547 66.3149 4.23147 65.8349 4.00747C65.3709 3.76747 64.8109 3.64747 64.1549 3.64747ZM9.272 47.1675C7.784 47.1675 6.496 46.9515 5.408 46.5195C4.336 46.0875 3.512 45.4795 2.936 44.6955C2.36 43.9115 2.072 42.9915 2.072 41.9355C2.072 41.5995 2.112 41.3035 2.192 41.0475C2.272 40.7755 2.376 40.5355 2.504 40.3275H8.936C8.392 40.4875 7.888 40.6475 7.424 40.8075C6.976 40.9675 6.616 41.1595 6.344 41.3835C6.072 41.5915 5.936 41.8715 5.936 42.2235C5.936 42.5755 6.048 42.8875 6.272 43.1595C6.496 43.4315 6.84 43.6475 7.304 43.8075C7.784 43.9515 8.408 44.0235 9.176 44.0235C10.2 44.0235 11.224 43.8955 12.248 43.6395C13.272 43.3675 14.152 43.0235 14.888 42.6075L15.872 45.5355C14.864 46.0635 13.784 46.4715 12.632 46.7595C11.496 47.0315 10.376 47.1675 9.272 47.1675ZM0.632 41.0235V39.0315H17.12V41.0235H0.632ZM0.632 37.7115V35.7195H17.12V37.7115H0.632ZM8.216 36.7995C8.824 36.5915 9.4 36.4075 9.944 36.2475C10.504 36.0715 10.96 35.8795 11.312 35.6715C11.664 35.4475 11.84 35.1595 11.84 34.8075C11.84 34.4395 11.728 34.1195 11.504 33.8475C11.296 33.5595 10.96 33.3275 10.496 33.1515C10.032 32.9755 9.416 32.8875 8.648 32.8875C7.88 32.8875 7.088 32.9675 6.272 33.1275C5.456 33.2875 4.64 33.5355 3.824 33.8715L2.936 30.9195C3.848 30.5195 4.776 30.2235 5.72 30.0315C6.68 29.8395 7.616 29.7435 8.528 29.7435C10 29.7435 11.264 29.9595 12.32 30.3915C13.392 30.8235 14.216 31.4395 14.792 32.2395C15.384 33.0235 15.68 33.9435 15.68 34.9995C15.68 35.3675 15.64 35.6955 15.56 35.9835C15.48 36.2715 15.376 36.5435 15.248 36.7995H8.216Z" fill="#FDA3C4"/>
</svg>
