<svg width="81" height="98" viewBox="0 0 81 98" fill="none" xmlns="http://www.w3.org/2000/svg">
<path d="M26.6124 74.4177L17.7227 83.2042C17.7227 84.9821 21.8712 92.6865 25.4271 92.6865C28.2718 92.6865 27.4026 87.9454 26.6124 85.5748L33.1315 79.0556L26.6124 74.4177Z" fill="#FDA3C4"/>
<path d="M40.8359 77.2777L46.5764 68.1254L55.4321 71.8542L48.5403 79.0556C49.3305 81.2287 50.0812 85.8118 46.7624 86.7601C43.4435 87.7083 41.4285 80.8336 40.8359 77.2777Z" fill="#FDA3C4"/>
<path d="M37.28 50.0159C36.8059 49.5418 31.9462 55.7449 29.5756 58.9056C28.983 59.8933 27.7977 62.3428 27.7977 64.2392C27.7977 66.1357 34.5143 67.7953 37.8727 68.388L44.9844 64.2392C43.7991 63.0539 41.5471 60.2092 42.0212 58.3128C42.4953 56.4163 46.5648 55.9422 48.5403 55.9422C44.9844 54.1643 37.7541 50.4901 37.28 50.0159Z" fill="#FDA3C4"/>
<path d="M26.6124 74.4177L17.7227 83.2042C17.7227 84.9821 21.8712 92.6865 25.4271 92.6865C28.2718 92.6865 27.4026 87.9454 26.6124 85.5748L33.1315 79.0556L26.6124 74.4177Z" stroke="#1F1F1F"/>
<path d="M40.8359 77.2777L46.5764 68.1254L55.4321 71.8542L48.5403 79.0556C49.3305 81.2287 50.0812 85.8118 46.7624 86.7601C43.4435 87.7083 41.4285 80.8336 40.8359 77.2777Z" stroke="#1F1F1F"/>
<path d="M37.28 50.0159C36.8059 49.5418 31.9462 55.7449 29.5756 58.9056C28.983 59.8933 27.7977 62.3428 27.7977 64.2392C27.7977 66.1357 34.5143 67.7953 37.8727 68.388L44.9844 64.2392C43.7991 63.0539 41.5471 60.2092 42.0212 58.3128C42.4953 56.4163 46.5648 55.9422 48.5403 55.9422C44.9844 54.1643 37.7541 50.4901 37.28 50.0159Z" stroke="#1F1F1F"/>
<path d="M39.0613 31.6435C37.876 28.4827 35.8594 19.885 39.0613 15.6903C41.8443 12.0445 41.7724 7.99985 43.5499 8C45.3274 8.00015 46.3464 11.8505 46.3464 13.8261C51.9022 13.8261 54.9691 15.6903 56.8335 16.6227C58.6979 17.555 59.8631 11.0003 62.1935 11.7287C63.6478 12.1833 63.5997 17.0253 62.9816 22.1616C67.0587 17.2229 74.3119 10.2687 76.9908 14.4572C78.5067 16.8273 66.579 28.2853 60.4842 31.6435C59.3312 34 57.7603 35.7837 55.6555 36.3851L52.6922 39.3483C54.9236 41.5214 59.606 45.986 60.4842 46.4601C61.582 47.0528 65.8821 44.395 68.2527 42.0244C70.6233 39.6538 74.6202 42.9042 71.657 46.4601C68.6937 50.016 65.7305 54.7572 59.2114 52.3866C56.3429 51.3435 53.8211 50.0136 51.9022 48.8307L48.5437 55.541C51.7045 56.5288 58.0261 60.2095 58.0261 63.0542C58.0261 65.8989 55.6555 69.7709 54.4702 71.3513L47.3584 68.3881C47.7932 67.27 48.9192 65.0973 50.1069 64.8544C48.4684 64.8835 42.2159 64.7848 41.4319 63.0542C39.8212 59.4983 41.772 56.8907 43.5499 56.5351L48.5437 55.541L30.1717 51.2013L39.0613 31.6435Z" fill="white"/>
<path d="M24.2071 60.668C29.4224 57.8233 29.579 58.9057 30.1717 59.4983C30.7643 60.091 31.1985 61.1581 28.9863 63.0542C24.8378 66.6101 21.6436 69.9899 11.1566 67.6594C5.9295 66.4978 3.00006 57.5766 3 55.541C2.99982 49.6146 8.05807 48.3166 7.65108 52.3866C7.05843 58.3131 9.90747 62.299 11.6227 63.0542C15.6606 64.8322 17.688 64.2239 24.2071 60.668Z" fill="white"/>
<path d="M30.1717 71.3513V66.6101L37.7238 68.3881C37.9213 69.9685 37.7575 71.5884 37.2834 72.5366C36.8092 73.4848 33.925 76.8827 32.5422 78.4631L27.2084 74.9072L30.1717 71.3513Z" fill="white"/>
<path d="M39.0613 31.6435C37.876 28.4827 35.8594 19.885 39.0613 15.6903C41.8443 12.0445 41.7724 7.99985 43.5499 8C45.3274 8.00015 46.3464 11.8505 46.3464 13.8261C51.9022 13.8261 54.9691 15.6903 56.8335 16.6227C58.6979 17.555 59.8631 11.0003 62.1935 11.7287C63.6478 12.1833 63.5997 17.0253 62.9816 22.1616M39.0613 31.6435C45.2248 29.2726 52.6922 33.8167 55.6555 36.3851M39.0613 31.6435L30.1717 51.2013L48.5437 55.5411M55.6555 36.3851C57.7603 35.7837 59.3312 34 60.4842 31.6435M55.6555 36.3851L52.6922 39.3483C54.9236 41.5214 59.606 45.986 60.4842 46.4601C61.582 47.0528 65.8821 44.395 68.2527 42.0244C70.6233 39.6538 74.6202 42.9042 71.657 46.4601C68.6937 50.016 65.7305 54.7572 59.2114 52.3866C56.3429 51.3435 53.8211 50.0136 51.9022 48.8307M60.4842 31.6435C66.579 28.2853 78.5067 16.8273 76.9908 14.4572C74.3119 10.2687 67.0587 17.2229 62.9816 22.1616M60.4842 31.6435C61.811 28.9317 62.5845 25.4615 62.9816 22.1616M51.9022 48.8307C50.3323 47.8629 49.166 46.9935 48.5437 46.4601L51.9022 48.8307ZM51.9022 48.8307L48.5437 55.5411M48.5437 55.5411L43.5499 56.5351C41.772 56.8907 39.8212 59.4983 41.432 63.0542C42.4101 65.2136 51.9022 64.8322 50.3217 64.8322C49.0572 64.8322 47.8193 67.2028 47.3584 68.3881L54.4702 71.3513C55.6555 69.7709 58.0261 65.8989 58.0261 63.0542C58.0261 60.2095 51.7045 56.5288 48.5437 55.5411ZM30.1717 59.4983C29.579 58.9057 29.4224 57.8233 24.2071 60.6681C17.688 64.2239 15.6606 64.8322 11.6227 63.0542C9.90747 62.299 7.05843 58.3131 7.65108 52.3866C8.05807 48.3166 2.99982 49.6146 3 55.5411C3.00006 57.5766 5.9295 66.4978 11.1566 67.6594C21.6436 69.9899 24.8378 66.6101 28.9863 63.0542C31.1985 61.1581 30.7643 60.091 30.1717 59.4983ZM30.1717 66.6101V71.3513L27.2084 74.9072L32.5422 78.4631C33.925 76.8827 36.8092 73.4848 37.2834 72.5366C37.7575 71.5884 37.9213 69.9685 37.7238 68.3881L30.1717 66.6101Z" stroke="#1F1F1F"/>
<path d="M10.6122 46.4623C5.79457 44.3557 6.26053 39.9278 7.64894 36.9799C13.5754 38.1664 20.0945 32.8305 24.2431 29.8672C28.3916 26.904 37.7217 23.8077 37.7217 26.1783L38.4666 31.1051C45.7399 29.8648 51.9057 32.6969 55.6533 36.9799C58.9722 40.7729 57.0362 42.1162 55.6533 42.3137L53.2828 38.7579C44.9857 37.5726 44.3931 44.0917 38.4666 49.4255C33.7254 53.6926 29.3793 59.1054 27.7989 61.2784C22.4651 56.3397 15.2001 48.4684 10.6122 46.4623Z" fill="#F40000"/>
<path d="M38.4666 31.1051C45.7399 29.8648 51.9057 32.6969 55.6533 36.9799C58.9722 40.7729 57.0362 42.1162 55.6533 42.3137L53.2828 38.7579C44.9857 37.5726 44.3931 44.0917 38.4666 49.4255C33.7254 53.6926 29.3793 59.1054 27.7989 61.2784C22.4651 56.3397 15.2001 48.4684 10.6122 46.4623C5.79457 44.3557 6.26053 39.9278 7.64894 36.9799C13.5754 38.1664 20.0945 32.8305 24.2431 29.8672C28.3916 26.904 37.7217 23.8077 37.7217 26.1783L38.4666 31.1051ZM38.4666 31.1051C39.1199 31.6461 36.8978 31.417 36.096 31.6461L38.4666 31.1051Z" stroke="#1F1F1F"/>
<path d="M35.4809 42.6764C35.2716 44.0329 34.0706 45.2112 32.0748 45.9489C30.0971 46.6799 27.4483 46.9279 24.6047 46.4892C21.7612 46.0506 19.3102 45.0158 17.6448 43.7228C15.9641 42.418 15.1741 40.9325 15.3833 39.576C15.5926 38.2195 16.7935 37.0411 18.7894 36.3035C20.767 35.5725 23.4159 35.3245 26.2594 35.7632C29.103 36.2018 31.5539 37.2366 33.2194 38.5295C34.9001 39.8344 35.6901 41.3199 35.4809 42.6764Z" fill="white" stroke="#1F1F1F"/>
<path d="M47.9508 21.5703C43.6838 20.622 43.0121 22.7556 43.2097 23.9409C43.2097 26.3113 44.9876 26.3113 47.3579 26.3113H47.3584C49.729 26.3113 51.7065 22.4049 47.9508 21.5703Z" fill="white"/>
<path d="M58.6187 22.6826C55.2999 21.7344 54.0725 23.5948 54.27 24.7801C54.27 26.558 54.4702 26.9039 58.6187 27.4966C61.4944 27.9074 62.7672 23.8679 58.6187 22.6826Z" fill="white"/>
<path d="M47.9508 21.5703C43.6838 20.622 43.0121 22.7556 43.2097 23.9409C43.2097 26.3113 44.9876 26.3113 47.3579 26.3113H47.3584C49.729 26.3113 51.7065 22.4049 47.9508 21.5703Z" stroke="#1F1F1F"/>
<path d="M58.6187 22.6826C55.2999 21.7344 54.0725 23.5948 54.27 24.7801C54.27 26.558 54.4702 26.9039 58.6187 27.4966C61.4944 27.9074 62.7672 23.8679 58.6187 22.6826Z" stroke="#1F1F1F"/>
<path d="M49.136 28.0879C49.7286 30.0634 51.5066 33.0661 53.8772 29.2732" stroke="#1F1F1F"/>
<circle cx="45.4526" cy="23.8862" r="2.37059" fill="#1F1F1F"/>
<circle cx="56.6443" cy="24.8198" r="2.37059" fill="#1F1F1F"/>
<path d="M48.2253 26.2647C47.7714 25.2769 48.6434 25.5154 49.1362 25.7582C49.8648 25.353 50.2767 25.8788 49.9056 26.2842C49.5347 26.6893 48.6792 27.2525 48.2253 26.2647Z" fill="#FDA3C4"/>
<path d="M16.9392 39.4796C16.9615 39.4166 16.981 39.3632 16.9942 39.3185C17.0213 39.2396 17.0493 39.1575 17.0773 39.0754C17.1053 38.9933 17.1366 38.8881 17.1745 38.7605C17.2115 38.6362 17.2498 38.4952 17.2867 38.347C17.3255 38.1925 17.351 38.0825 17.3656 38.0212C17.3802 37.9599 17.3925 37.8946 17.4075 37.8197C17.4226 37.7449 17.432 37.6892 17.439 37.6533C17.447 37.6143 17.4536 37.5681 17.461 37.5188L17.4751 37.4471C17.4813 37.4145 17.4999 37.3881 17.5311 37.3679C17.5622 37.3478 17.5997 37.3427 17.6377 37.3479C17.6757 37.3532 17.71 37.3712 17.7336 37.4004C17.7573 37.4296 17.7666 37.4589 17.7595 37.4948L17.7454 37.5664C17.7379 37.6158 17.7324 37.6587 17.7253 37.6946C17.7182 37.7304 17.7079 37.7893 17.6929 37.8642C17.6778 37.939 17.6637 38.0107 17.6471 38.0784C17.6316 38.1429 17.607 38.2497 17.5692 38.401C17.5295 38.5588 17.4912 38.6998 17.4523 38.8305C17.4172 38.9484 17.3826 39.0529 17.3536 39.1382C17.3795 39.1236 17.3977 39.1108 17.416 39.0979C17.4625 39.0744 17.5124 39.0518 17.5657 39.0298C17.619 39.0079 17.6833 38.9851 17.7654 38.9629C17.8466 38.9439 17.9124 38.9283 17.961 38.9223C18.023 38.9194 18.1043 38.9242 18.2048 38.9369C18.3078 38.9535 18.381 38.9735 18.4345 38.9993C18.4822 39.0204 18.5255 39.0438 18.568 39.0705C18.6119 39.1043 18.6553 39.1516 18.7051 39.214C18.7506 39.2788 18.787 39.3381 18.8074 39.3904C18.8269 39.4458 18.842 39.5037 18.8495 39.5633C18.8584 39.63 18.8483 39.7366 18.8206 39.8903C18.7953 40.0479 18.7665 40.157 18.7417 40.2161C18.7194 40.2791 18.6922 40.3341 18.6583 40.3877C18.621 40.4405 18.5813 40.4893 18.5392 40.5342C18.4961 40.5823 18.4387 40.6304 18.3701 40.6795C18.3016 40.7286 18.2402 40.7657 18.1869 40.7876C18.1336 40.8095 18.0582 40.8332 17.9564 40.8611C17.8555 40.8859 17.7762 40.8985 17.721 40.9029C17.67 40.905 17.6123 40.9054 17.5421 40.8997C17.4786 40.8955 17.4261 40.8904 17.3848 40.8844C17.3501 40.8799 17.3155 40.8754 17.2842 40.8717C17.2462 40.8665 17.1957 40.855 17.1326 40.8372C17.0628 40.818 17.0083 40.7954 16.9693 40.7695L16.9336 40.7444C16.8994 40.7264 16.879 40.6979 16.8707 40.6654C16.8634 40.6297 16.8728 40.5978 16.8958 40.569C16.9188 40.5402 16.949 40.5232 16.9898 40.5189C17.0307 40.5146 17.0644 40.5222 17.0976 40.5434L17.1401 40.5701C17.156 40.5771 17.182 40.5864 17.2181 40.598C17.2653 40.6087 17.3023 40.6172 17.3293 40.6233C17.3572 40.6262 17.3918 40.6307 17.4298 40.6359C17.4645 40.6404 17.5102 40.644 17.5626 40.6491C17.6194 40.6518 17.666 40.6522 17.7025 40.6503C17.7348 40.6508 17.7919 40.64 17.8731 40.621C17.9586 40.5996 18.0186 40.5792 18.0547 40.567C18.0882 40.5508 18.1324 40.5234 18.1861 40.4879C18.2398 40.4525 18.2824 40.418 18.315 40.3811C18.3465 40.3475 18.3723 40.3091 18.3991 40.2675C18.4215 40.2284 18.4458 40.1828 18.4711 40.1341C18.4897 40.0839 18.5095 39.9931 18.5358 39.8561C18.5554 39.7177 18.5641 39.6278 18.562 39.5864C18.5566 39.5444 18.5511 39.5023 18.537 39.465C18.5219 39.431 18.4977 39.3914 18.4677 39.3472C18.4324 39.3085 18.4087 39.2793 18.388 39.2644C18.3648 39.2455 18.3374 39.2291 18.3089 39.2158C18.2829 39.2065 18.2358 39.1958 18.1641 39.1829C18.0914 39.1732 18.0414 39.172 18.0116 39.1754C17.9717 39.1766 17.9188 39.185 17.8554 39.2046C17.793 39.221 17.7407 39.2398 17.7037 39.2552C17.6624 39.273 17.6168 39.2933 17.5756 39.3111C17.541 39.3305 17.4802 39.3779 17.3939 39.4502C17.3671 39.468 17.3436 39.4864 17.3244 39.5025C17.2712 39.5483 17.232 39.5836 17.2066 39.6084C17.1918 39.6459 17.1762 39.6866 17.1629 39.7312C17.1101 39.8724 17.0659 39.9849 17.0302 40.0686C16.9979 40.1532 16.9712 40.2186 16.9512 40.2617C16.9302 40.308 16.9074 40.3606 16.8808 40.426C16.8532 40.4946 16.8322 40.5409 16.8213 40.5657C16.8094 40.5936 16.7879 40.6296 16.7568 40.6735C16.7525 40.676 16.7448 40.6776 16.7395 40.6832C16.7309 40.6881 16.7189 40.6921 16.6939 40.7035C16.6699 40.7116 16.6493 40.7206 16.6296 40.7263C16.6099 40.732 16.5869 40.737 16.5614 40.738C16.5359 40.739 16.5147 40.7376 16.4988 40.7306C16.4829 40.7236 16.468 40.7134 16.4592 40.6944C16.4505 40.6754 16.4461 40.654 16.4479 40.6237C16.4497 40.5935 16.4558 40.5609 16.4595 40.5243C16.4632 40.4877 16.4702 40.4518 16.4754 40.4224C16.4824 40.3865 16.4904 40.3475 16.5018 40.3093C16.5132 40.271 16.5384 40.1985 16.5773 40.0916C16.6172 39.9816 16.652 39.901 16.6806 39.853C16.7059 39.8043 16.7346 39.7564 16.7656 39.7124C16.7967 39.6684 16.8277 39.6244 16.8665 39.5788C16.8822 39.5381 16.9085 39.5101 16.9392 39.4796Z" fill="#1F1F1F"/>
<path d="M20.3722 41.6937C20.3355 41.7196 20.2958 41.7311 20.2507 41.7243L20.1596 41.7139C20.0796 41.7026 19.9855 41.6779 19.8723 41.6317C19.7626 41.5863 19.6669 41.5304 19.5833 41.4703C19.5065 41.4119 19.4442 41.3533 19.398 41.3017C19.3502 41.243 19.2931 41.1548 19.2364 41.029C19.1787 40.9064 19.1424 40.8093 19.1309 40.7382C19.117 40.6632 19.1243 40.5417 19.1526 40.3736C19.1776 40.2048 19.2052 40.0879 19.2397 40.0205C19.2768 39.957 19.3341 39.8742 19.415 39.7728C19.496 39.6715 19.579 39.5876 19.6572 39.5198C19.7378 39.456 19.8079 39.4035 19.8722 39.3702C19.9374 39.3336 20.0308 39.3001 20.1576 39.2638C20.2931 39.2227 20.4457 39.2094 20.612 39.2231C20.7748 39.2361 20.8888 39.2551 20.9606 39.2817C21.03 39.3043 21.1208 39.3522 21.2321 39.4288C21.3468 39.5061 21.4295 39.5693 21.4801 39.6184C21.5307 39.6676 21.579 39.7367 21.6268 39.8194C21.6713 39.9013 21.7031 39.9769 21.7174 40.0383C21.7342 40.1037 21.7414 40.2012 21.7356 40.3299C21.7265 40.4578 21.7057 40.5763 21.6751 40.6788C21.6465 40.7749 21.6158 40.8535 21.5865 40.9153C21.5597 40.9811 21.5058 41.0646 21.4297 41.174C21.3502 41.2825 21.2731 41.3711 21.1958 41.4357C21.1176 41.5035 21.0209 41.5603 20.9024 41.6052C20.7829 41.6534 20.6949 41.6813 20.6348 41.6883C20.5796 41.7031 20.489 41.7031 20.3722 41.6937ZM19.7647 41.2754C19.8208 41.2573 19.8678 41.2577 19.9115 41.2813L19.9946 41.331C20.0374 41.3578 20.0854 41.3789 20.1422 41.3952C20.1946 41.4139 20.2703 41.4277 20.3725 41.4372C20.4748 41.4467 20.5432 41.4485 20.5809 41.4434C20.6187 41.4383 20.6835 41.4153 20.7735 41.381C20.8644 41.3435 20.935 41.3013 20.992 41.2561C21.0533 41.2084 21.1136 41.1399 21.1772 41.0483C21.2451 40.9542 21.2927 40.8795 21.3182 40.8305C21.3412 40.7776 21.3656 40.7078 21.3924 40.6181C21.4172 40.5348 21.4357 40.4363 21.4434 40.3252C21.4502 40.2172 21.4475 40.1414 21.4342 40.1007C21.4219 40.0569 21.3989 40.0003 21.3642 39.9343C21.3295 39.8683 21.2934 39.819 21.2603 39.7842C21.2272 39.7493 21.1621 39.7003 21.0649 39.6372C20.9667 39.5773 20.8953 39.5372 20.8488 39.5232C20.8065 39.5068 20.7207 39.4907 20.5893 39.4815C20.4648 39.4737 20.3524 39.4859 20.2575 39.5123C20.154 39.5435 20.078 39.5674 20.0355 39.5885C19.9876 39.6153 19.9282 39.6566 19.8606 39.7131C19.794 39.7664 19.7259 39.8365 19.6556 39.9266C19.5828 40.0127 19.5361 40.0843 19.514 40.134C19.4929 40.1805 19.4686 40.2742 19.4411 40.4151C19.4195 40.5607 19.4131 40.6551 19.4235 40.7054C19.4329 40.7588 19.4638 40.8377 19.5151 40.9451C19.564 41.0486 19.6046 41.1193 19.6358 41.1606C19.6708 41.1891 19.7131 41.2295 19.7647 41.2754Z" fill="#1F1F1F"/>
<path d="M23.2438 42.3753C23.2071 42.4012 23.1674 42.4128 23.1223 42.406L23.0311 42.3956C22.9511 42.3843 22.857 42.3595 22.7439 42.3133C22.6342 42.2679 22.5385 42.212 22.4549 42.152C22.3781 42.0935 22.3158 42.0349 22.2696 41.9834C22.2218 41.9246 22.1647 41.8364 22.108 41.7106C22.0503 41.5881 22.014 41.4909 22.0025 41.4199C21.9886 41.3449 21.9959 41.2233 22.0242 41.0553C22.0491 40.8865 22.0767 40.7695 22.1113 40.7021C22.1484 40.6387 22.2057 40.5559 22.2866 40.4545C22.3676 40.3531 22.4506 40.2693 22.5288 40.2015C22.6094 40.1377 22.6795 40.0851 22.7438 40.0518C22.809 40.0153 22.9024 39.9817 23.0292 39.9455C23.1647 39.9043 23.3173 39.891 23.4835 39.9048C23.6464 39.9178 23.7604 39.9368 23.8322 39.9633C23.9016 39.9859 23.9924 40.0339 24.1037 40.1104C24.2184 40.1878 24.301 40.251 24.3517 40.3001C24.4023 40.3492 24.4505 40.4183 24.4984 40.501C24.5428 40.5829 24.5747 40.6586 24.589 40.72C24.6057 40.7854 24.613 40.8828 24.6072 41.0115C24.5981 41.1394 24.5773 41.2579 24.5467 41.3604C24.5181 41.4566 24.4874 41.5352 24.4581 41.597C24.4313 41.6627 24.3773 41.7463 24.3013 41.8556C24.2218 41.9642 24.1446 42.0527 24.0674 42.1173C23.9892 42.1851 23.8925 42.2419 23.774 42.2869C23.6545 42.3351 23.5665 42.363 23.5064 42.3699C23.4512 42.3848 23.3606 42.3847 23.2438 42.3753ZM22.6363 41.957C22.6924 41.939 22.7394 41.9394 22.7831 41.963L22.8662 42.0126C22.9089 42.0394 22.957 42.0606 23.0138 42.0769C23.0662 42.0956 23.1418 42.1093 23.2441 42.1188C23.3464 42.1283 23.4147 42.1301 23.4525 42.125C23.4903 42.1199 23.5551 42.097 23.6451 42.0626C23.736 42.0251 23.8066 41.9829 23.8636 41.9377C23.9249 41.89 23.9852 41.8216 24.0487 41.7299C24.1167 41.6358 24.1643 41.5611 24.1898 41.5122C24.2128 41.4592 24.2372 41.3895 24.2639 41.2997C24.2888 41.2164 24.3073 41.118 24.315 41.0068C24.3218 40.8989 24.3191 40.823 24.3058 40.7824C24.2935 40.7385 24.2705 40.682 24.2358 40.6159C24.2011 40.5499 24.165 40.5007 24.1319 40.4658C24.0988 40.4309 24.0337 40.3819 23.9365 40.3188C23.8383 40.2589 23.7669 40.2188 23.7203 40.2048C23.6781 40.1884 23.5923 40.1724 23.4609 40.1631C23.3363 40.1554 23.224 40.1675 23.1291 40.1939C23.0256 40.2252 22.9496 40.249 22.907 40.2701C22.8592 40.2969 22.7998 40.3382 22.7322 40.3947C22.6655 40.448 22.5975 40.5181 22.5272 40.6082C22.4544 40.6944 22.4077 40.7659 22.3856 40.8156C22.3645 40.8622 22.3402 40.9559 22.3127 41.0968C22.291 41.2424 22.2847 41.3367 22.2951 41.387C22.3045 41.4405 22.3354 41.5193 22.3867 41.6267C22.4356 41.7302 22.4762 41.801 22.5073 41.8423C22.5424 41.8707 22.5847 41.9111 22.6363 41.957Z" fill="#1F1F1F"/>
<path d="M25.1446 41.9787C25.138 42.001 25.1304 42.0265 25.1238 42.0489C25.1101 42.107 25.0974 42.162 25.0837 42.2201C25.07 42.2783 25.0582 42.33 25.0449 42.3747C25.0307 42.4225 25.0121 42.4727 24.9927 42.5261L24.9661 42.6154C24.9533 42.6465 24.9279 42.6714 24.8943 42.6876C24.8607 42.7038 24.8232 42.7088 24.7871 42.6972C24.751 42.6856 24.7211 42.6652 24.6974 42.636C24.6747 42.6036 24.6731 42.5726 24.6859 42.5415L24.7106 42.4586C24.731 42.402 24.7486 42.355 24.7619 42.3103C24.7742 42.2689 24.786 42.2171 24.7978 42.1653C24.8105 42.1104 24.8233 42.0554 24.8379 41.9941C24.8569 41.9303 24.8857 41.8212 24.9254 41.6634C24.9528 41.5471 24.9769 41.4539 24.9978 41.3838C25.0058 41.3448 25.0157 41.2994 25.0275 41.2476C25.0625 41.1058 25.0894 41.003 25.1103 40.9329C25.1311 40.8628 25.1554 40.7934 25.182 40.728C25.183 40.7248 25.1849 40.7184 25.1867 40.7121C25.1886 40.7057 25.1958 40.6937 25.2073 40.6793C25.2188 40.6649 25.2269 40.6497 25.2383 40.6353C25.2498 40.6209 25.2637 40.6104 25.281 40.6007C25.2983 40.5911 25.3146 40.5846 25.3333 40.582C25.3521 40.5795 25.3699 40.5801 25.3925 40.5887C25.4151 40.5972 25.4359 40.6121 25.4581 40.6342C25.4943 40.6697 25.5103 40.7005 25.5138 40.7251C25.5173 40.7498 25.5125 40.7657 25.4953 40.7754L25.4737 40.7875C25.4576 40.8417 25.4386 40.9054 25.4158 40.9819C25.3931 41.0585 25.3732 41.1254 25.3542 41.1892C25.3362 41.2497 25.3173 41.3135 25.2974 41.3804C25.296 41.3971 25.2937 41.417 25.2861 41.4425C25.2752 41.4911 25.2682 41.5269 25.2621 41.5596C25.3458 41.4595 25.4075 41.385 25.4506 41.337C25.498 41.2865 25.5478 41.24 25.5985 41.1902C25.6502 41.1373 25.7408 41.0626 25.8634 40.9646C25.9981 40.8625 26.0892 40.7981 26.1367 40.7714C26.1943 40.7471 26.2577 40.7275 26.3269 40.7126L26.4052 40.7032C26.4436 40.6949 26.4816 40.7001 26.5183 40.7221C26.5516 40.7432 26.5728 40.7685 26.5811 40.801C26.5894 40.8335 26.58 40.8654 26.5561 40.8974C26.5331 40.9262 26.5019 40.9464 26.4645 40.9515L26.3852 40.9641C26.3477 40.9692 26.3126 40.9782 26.2843 40.9888C26.2541 41.0057 26.1803 41.0604 26.0648 41.1465C25.9464 41.2421 25.8645 41.312 25.819 41.3561C25.7725 41.4034 25.7271 41.4475 25.684 41.4955C25.6409 41.5436 25.5749 41.6205 25.4859 41.7262C25.383 41.8423 25.3035 41.9162 25.2455 41.954C25.2105 41.9631 25.1788 41.9729 25.1446 41.9787Z" fill="#1F1F1F"/>
<path d="M26.7102 43.1507C26.674 43.1661 26.6383 43.168 26.602 43.1596C26.5658 43.1512 26.5375 43.1278 26.5176 43.0995C26.4987 43.0681 26.4929 43.0397 26.5022 43.008L26.5227 42.9621C26.5319 42.9304 26.5477 42.8766 26.57 42.8006C26.5922 42.7246 26.6108 42.6612 26.6247 42.6137C26.6376 42.5694 26.6529 42.5053 26.6728 42.4254C26.6936 42.3423 26.7157 42.2426 26.7416 42.1302C26.7651 42.0139 26.7867 41.904 26.8098 41.8011C26.8329 41.6982 26.8528 41.6183 26.8647 41.5535C26.8767 41.4886 26.8877 41.4269 26.9006 41.3589C26.9135 41.2909 26.9208 41.2418 26.9249 41.2157C26.9305 41.1967 26.9337 41.1738 26.9345 41.147L26.9409 41.1011C26.9426 41.0711 26.9576 41.0441 26.9881 41.0241C27.0195 41.0009 27.0538 40.9919 27.0909 40.9971C27.129 40.9992 27.1625 41.017 27.1899 41.0437C27.2173 41.0703 27.2263 41.0994 27.2203 41.1318L27.2191 41.1721C27.2131 41.2046 27.2081 41.2338 27.204 41.2599C27.1975 41.2821 27.1911 41.3279 27.1815 41.3967C27.1686 41.4647 27.1557 41.5328 27.1438 41.5976C27.1318 41.6625 27.1143 41.7463 27.0912 41.8492C27.0648 41.9513 27.0399 42.0605 27.0141 42.1729C26.9906 42.2891 26.9717 42.3896 26.9509 42.4727C26.9301 42.5558 26.9148 42.6199 26.9009 42.6674C26.887 42.7149 26.8685 42.7782 26.8453 42.8574C26.8221 42.9366 26.8054 42.9936 26.7962 43.0252L26.7738 43.0775C26.7678 43.11 26.7463 43.1354 26.7102 43.1507Z" fill="#1F1F1F"/>
<path d="M27.7846 41.1187C27.8077 41.0897 27.8382 41.0726 27.876 41.0675C27.9138 41.0624 27.9512 41.0709 27.9891 41.0897C28.0226 41.111 28.044 41.1364 28.0524 41.1691L28.0758 41.2977C28.0951 41.391 28.1087 41.5037 28.1175 41.6323C28.1291 41.7513 28.1373 41.8456 28.1473 41.9095C28.1631 41.9781 28.1858 42.0723 28.212 42.1912C28.2416 42.3108 28.2757 42.4521 28.3127 42.6077C28.3488 42.7664 28.3764 42.8685 28.3936 42.9204C28.4099 42.9754 28.4271 43.0272 28.4418 43.0751C28.4551 43.1157 28.4791 43.1691 28.5181 43.2327C28.5255 43.2446 28.5362 43.2573 28.5435 43.2693C28.5662 43.2539 28.5865 43.2345 28.6102 43.2159C28.7034 43.1344 28.7686 43.0739 28.8033 43.0304C28.8443 42.9781 28.8853 42.9257 28.9281 42.867C28.9754 42.8058 29.0549 42.6972 29.1677 42.5379C29.2829 42.3826 29.3648 42.278 29.4111 42.22C29.4574 42.1621 29.5109 42.0921 29.5716 42.01C29.6348 41.9319 29.6802 41.8771 29.7086 41.8425L29.7477 41.7966C29.7665 41.77 29.8003 41.7538 29.8381 41.7486C29.8793 41.7443 29.9167 41.7528 29.9512 41.7709C29.9847 41.7922 30.0062 41.8176 30.0102 41.8527C30.0176 41.8886 30.009 41.9175 29.9825 41.9457L29.9502 41.9931C29.9237 42.0213 29.8783 42.0761 29.8152 42.1542C29.7544 42.2363 29.7019 42.3031 29.6566 42.3578C29.6146 42.4134 29.5327 42.518 29.4165 42.6765C29.3004 42.835 29.2174 42.9429 29.1779 43.0024C29.1307 43.0635 29.0888 43.1191 29.0478 43.1714C29.0049 43.2301 28.9315 43.3059 28.8243 43.398C28.819 43.4036 28.8084 43.4149 28.79 43.4279C28.775 43.4416 28.761 43.4521 28.7523 43.457C28.7436 43.4618 28.7296 43.4724 28.7103 43.4885C28.6909 43.5047 28.6769 43.5152 28.6682 43.5201C28.6595 43.5249 28.6431 43.5315 28.6223 43.5404C28.6014 43.5494 28.5825 43.552 28.568 43.5521C28.5535 43.5522 28.5355 43.5516 28.5132 43.5534C28.4909 43.5552 28.4705 43.5505 28.454 43.5331C28.3846 43.5105 28.3232 43.4487 28.2656 43.35C28.2099 43.2689 28.1752 43.2029 28.1599 43.1446C28.1418 43.096 28.1246 43.0442 28.1084 42.9892C28.0897 42.9302 28.0606 42.8209 28.0264 42.6557C27.9903 42.4969 27.9587 42.3596 27.9257 42.2392C27.8961 42.1195 27.8743 42.0222 27.8619 41.9543C27.848 41.8793 27.835 41.7771 27.8228 41.6476C27.8188 41.5269 27.8058 41.4247 27.7904 41.3425L27.7603 41.2124C27.7519 41.1797 27.7614 41.1477 27.7846 41.1187Z" fill="#1F1F1F"/>
<path d="M32.2279 43.8969L32.2211 43.8953C32.1869 43.9252 32.157 43.9526 32.1349 43.9783C32.1069 43.9993 32.078 44.0235 32.0456 44.0469C32.0037 44.0784 31.9158 44.1302 31.7831 44.1992C31.6494 44.2714 31.5489 44.3169 31.4827 44.3327C31.4199 44.3492 31.358 44.3625 31.298 44.3694C31.2381 44.3763 31.1791 44.38 31.12 44.3837C31.0586 44.3834 30.9879 44.3776 30.909 44.3631C30.831 44.3455 30.7467 44.3127 30.6594 44.2655C30.5822 44.2207 30.5255 44.1805 30.4871 44.1513C30.4488 44.1221 30.4114 44.0897 30.3759 44.0509C30.3394 44.0153 30.3068 43.9669 30.2761 43.9121C30.2414 43.8461 30.2208 43.7697 30.216 43.6763C30.2093 43.5894 30.2115 43.5215 30.2233 43.4696C30.2343 43.4208 30.2539 43.3671 30.2841 43.3022C30.3133 43.2405 30.3489 43.1939 30.3826 43.1537C30.4173 43.1103 30.4761 43.0587 30.56 42.9958C30.6448 42.9296 30.7163 42.8843 30.7733 42.863C30.8259 42.8442 30.8786 42.8254 30.9371 42.8114C30.9955 42.7973 31.0695 42.7799 31.1604 42.7663C31.2581 42.7543 31.3699 42.7558 31.4871 42.7755C31.6052 42.792 31.6992 42.8168 31.7603 42.8546C31.8248 42.8931 31.905 42.9762 32.0018 43.1007C32.015 43.1173 32.0247 43.1332 32.0379 43.1499C32.0355 43.0605 32.0352 42.9887 32.0326 42.9368C32.026 42.8738 32.0131 42.7957 31.9914 42.6985C31.9721 42.6053 31.9505 42.5321 31.9275 42.4756C31.9079 42.4199 31.8796 42.3691 31.8494 42.3246C31.8241 42.2881 31.7677 42.2344 31.6862 42.168C31.6012 42.1009 31.525 42.0529 31.4567 42.0271C31.3825 41.9966 31.3234 41.9764 31.2759 41.9656C31.226 41.9509 31.1786 41.9401 31.1283 41.939C31.091 41.9305 31.0107 41.9328 30.8984 41.9449C30.8153 41.9568 30.7568 41.9709 30.7249 41.9807L30.6829 42.0122C30.6516 42.0324 30.6153 42.0447 30.5761 42.0427C30.5369 42.0406 30.5016 42.0258 30.4734 41.9989C30.4452 41.972 30.4368 41.9393 30.4396 41.9058C30.4423 41.8722 30.4587 41.8418 30.4866 41.8208L30.5407 41.7852C30.5932 41.7424 30.6991 41.7152 30.8601 41.697C31.0066 41.679 31.1116 41.6789 31.177 41.6903C31.2366 41.697 31.2951 41.7069 31.3518 41.7231C31.4162 41.7378 31.4947 41.7658 31.5815 41.8026C31.6751 41.8409 31.7731 41.9007 31.878 41.986C31.9838 42.0681 32.0601 42.1401 32.1034 42.2011C32.1433 42.2615 32.1789 42.3242 32.2083 42.3958C32.2376 42.4674 32.2622 42.5549 32.2844 42.6625C32.3067 42.7701 32.3201 42.8585 32.3248 42.9279C32.3294 42.9973 32.3333 43.0939 32.3343 43.2239C32.3382 43.3444 32.3449 43.4314 32.3509 43.484C32.3526 43.539 32.3509 43.5933 32.3526 43.6484C32.3543 43.7034 32.354 43.741 32.3541 43.7649C32.3668 43.7951 32.3495 43.8288 32.3057 43.8667L32.2279 43.8969ZM32.021 43.7167C32.0068 43.6793 31.996 43.6427 31.9833 43.6125C31.9666 43.5711 31.9476 43.5258 31.9261 43.4765C31.9036 43.4304 31.8515 43.3502 31.7678 43.2424C31.6865 43.1385 31.6321 43.0783 31.5976 43.0603C31.5724 43.0477 31.5225 43.033 31.4436 43.0185C31.3569 43.0057 31.281 43.0055 31.2167 43.0149C31.1378 43.0243 31.0759 43.0376 31.032 43.0516C30.988 43.0655 30.944 43.0795 30.9001 43.0934C30.8672 43.1065 30.8175 43.1396 30.7529 43.1865C30.6873 43.2365 30.6444 43.2712 30.6223 43.2969C30.6035 43.3234 30.5775 43.362 30.5531 43.4077C30.5329 43.4509 30.519 43.4854 30.5139 43.5149C30.5053 43.5437 30.5021 43.5909 30.5077 43.6571C30.5143 43.7201 30.5256 43.767 30.5451 43.7988C30.5661 43.8377 30.5889 43.8703 30.6113 43.8924C30.6337 43.9146 30.6594 43.9375 30.6851 43.9604C30.7109 43.9833 30.7604 44.0117 30.8258 44.047C30.8811 44.08 30.9325 44.102 30.98 44.1127C31.0352 44.1218 31.0812 44.1254 31.117 44.1267C31.1571 44.1256 31.2016 44.122 31.2505 44.116C31.2993 44.11 31.3457 44.1 31.3955 44.0908C31.4395 44.0768 31.5192 44.0402 31.6346 43.981C31.7509 43.9185 31.8247 43.8772 31.8518 43.8594C31.8807 43.8352 31.9062 43.8103 31.9265 43.7909C31.9448 43.778 31.9747 43.7506 32.021 43.7167Z" fill="#1F1F1F"/>
</svg>
